G04 #@! TF.GenerationSoftware,KiCad,Pcbnew,(5.1.2)-2*
G04 #@! TF.CreationDate,2022-02-14T19:05:22-05:00*
G04 #@! TF.ProjectId,FWA_2022_Compass_Badge_LWL-003-E10,4657415f-3230-4323-925f-436f6d706173,B*
G04 #@! TF.SameCoordinates,Original*
G04 #@! TF.FileFunction,Legend,Top*
G04 #@! TF.FilePolarity,Positive*
%FSLAX46Y46*%
G04 Gerber Fmt 4.6, Leading zero omitted, Abs format (unit mm)*
G04 Created by KiCad (PCBNEW (5.1.2)-2) date 2022-02-14 19:05:22*
%MOMM*%
%LPD*%
G04 APERTURE LIST*
%ADD10C,0.150000*%
%ADD11C,0.010000*%
%ADD12C,0.120000*%
%ADD13C,0.100000*%
%ADD14C,0.250000*%
%ADD15C,0.155000*%
G04 APERTURE END LIST*
D10*
X81125000Y-75158928D02*
X81232142Y-75194642D01*
X81267857Y-75230357D01*
X81303571Y-75301785D01*
X81303571Y-75408928D01*
X81267857Y-75480357D01*
X81232142Y-75516071D01*
X81160714Y-75551785D01*
X80875000Y-75551785D01*
X80875000Y-74801785D01*
X81125000Y-74801785D01*
X81196428Y-74837500D01*
X81232142Y-74873214D01*
X81267857Y-74944642D01*
X81267857Y-75016071D01*
X81232142Y-75087500D01*
X81196428Y-75123214D01*
X81125000Y-75158928D01*
X80875000Y-75158928D01*
X81946428Y-75551785D02*
X81946428Y-75158928D01*
X81910714Y-75087500D01*
X81839285Y-75051785D01*
X81696428Y-75051785D01*
X81625000Y-75087500D01*
X81946428Y-75516071D02*
X81875000Y-75551785D01*
X81696428Y-75551785D01*
X81625000Y-75516071D01*
X81589285Y-75444642D01*
X81589285Y-75373214D01*
X81625000Y-75301785D01*
X81696428Y-75266071D01*
X81875000Y-75266071D01*
X81946428Y-75230357D01*
X82196428Y-75051785D02*
X82482142Y-75051785D01*
X82303571Y-74801785D02*
X82303571Y-75444642D01*
X82339285Y-75516071D01*
X82410714Y-75551785D01*
X82482142Y-75551785D01*
X83303571Y-75266071D02*
X83875000Y-75266071D01*
X83589285Y-75551785D02*
X83589285Y-74980357D01*
X81053571Y-76826785D02*
X81053571Y-76076785D01*
X81375000Y-76791071D02*
X81446428Y-76826785D01*
X81589285Y-76826785D01*
X81660714Y-76791071D01*
X81696428Y-76719642D01*
X81696428Y-76683928D01*
X81660714Y-76612500D01*
X81589285Y-76576785D01*
X81482142Y-76576785D01*
X81410714Y-76541071D01*
X81375000Y-76469642D01*
X81375000Y-76433928D01*
X81410714Y-76362500D01*
X81482142Y-76326785D01*
X81589285Y-76326785D01*
X81660714Y-76362500D01*
X82589285Y-76076785D02*
X82589285Y-76683928D01*
X82625000Y-76755357D01*
X82660714Y-76791071D01*
X82732142Y-76826785D01*
X82875000Y-76826785D01*
X82946428Y-76791071D01*
X82982142Y-76755357D01*
X83017857Y-76683928D01*
X83017857Y-76076785D01*
X83375000Y-76326785D02*
X83375000Y-77076785D01*
X83375000Y-76362500D02*
X83446428Y-76326785D01*
X83589285Y-76326785D01*
X83660714Y-76362500D01*
X83696428Y-76398214D01*
X83732142Y-76469642D01*
X83732142Y-76683928D01*
X83696428Y-76755357D01*
X83660714Y-76791071D01*
X83589285Y-76826785D01*
X83446428Y-76826785D01*
X83375000Y-76791071D01*
X103276071Y-85216071D02*
X103847500Y-85216071D01*
X103561785Y-85501785D02*
X103561785Y-84930357D01*
X104168928Y-84823214D02*
X104204642Y-84787500D01*
X104276071Y-84751785D01*
X104454642Y-84751785D01*
X104526071Y-84787500D01*
X104561785Y-84823214D01*
X104597500Y-84894642D01*
X104597500Y-84966071D01*
X104561785Y-85073214D01*
X104133214Y-85501785D01*
X104597500Y-85501785D01*
X104918928Y-85430357D02*
X104954642Y-85466071D01*
X104918928Y-85501785D01*
X104883214Y-85466071D01*
X104918928Y-85430357D01*
X104918928Y-85501785D01*
X105633214Y-84751785D02*
X105276071Y-84751785D01*
X105240357Y-85108928D01*
X105276071Y-85073214D01*
X105347500Y-85037500D01*
X105526071Y-85037500D01*
X105597500Y-85073214D01*
X105633214Y-85108928D01*
X105668928Y-85180357D01*
X105668928Y-85358928D01*
X105633214Y-85430357D01*
X105597500Y-85466071D01*
X105526071Y-85501785D01*
X105347500Y-85501785D01*
X105276071Y-85466071D01*
X105240357Y-85430357D01*
X105883214Y-84751785D02*
X106133214Y-85501785D01*
X106383214Y-84751785D01*
X107097500Y-85001785D02*
X107383214Y-85001785D01*
X107204642Y-84751785D02*
X107204642Y-85394642D01*
X107240357Y-85466071D01*
X107311785Y-85501785D01*
X107383214Y-85501785D01*
X107740357Y-85501785D02*
X107668928Y-85466071D01*
X107633214Y-85430357D01*
X107597500Y-85358928D01*
X107597500Y-85144642D01*
X107633214Y-85073214D01*
X107668928Y-85037500D01*
X107740357Y-85001785D01*
X107847500Y-85001785D01*
X107918928Y-85037500D01*
X107954642Y-85073214D01*
X107990357Y-85144642D01*
X107990357Y-85358928D01*
X107954642Y-85430357D01*
X107918928Y-85466071D01*
X107847500Y-85501785D01*
X107740357Y-85501785D01*
X103276071Y-86491071D02*
X103847500Y-86491071D01*
X103561785Y-86776785D02*
X103561785Y-86205357D01*
X104133214Y-86026785D02*
X104597500Y-86026785D01*
X104347500Y-86312500D01*
X104454642Y-86312500D01*
X104526071Y-86348214D01*
X104561785Y-86383928D01*
X104597500Y-86455357D01*
X104597500Y-86633928D01*
X104561785Y-86705357D01*
X104526071Y-86741071D01*
X104454642Y-86776785D01*
X104240357Y-86776785D01*
X104168928Y-86741071D01*
X104133214Y-86705357D01*
X104918928Y-86705357D02*
X104954642Y-86741071D01*
X104918928Y-86776785D01*
X104883214Y-86741071D01*
X104918928Y-86705357D01*
X104918928Y-86776785D01*
X105633214Y-86026785D02*
X105276071Y-86026785D01*
X105240357Y-86383928D01*
X105276071Y-86348214D01*
X105347500Y-86312500D01*
X105526071Y-86312500D01*
X105597500Y-86348214D01*
X105633214Y-86383928D01*
X105668928Y-86455357D01*
X105668928Y-86633928D01*
X105633214Y-86705357D01*
X105597500Y-86741071D01*
X105526071Y-86776785D01*
X105347500Y-86776785D01*
X105276071Y-86741071D01*
X105240357Y-86705357D01*
X105883214Y-86026785D02*
X106133214Y-86776785D01*
X106383214Y-86026785D01*
X103276071Y-83853571D02*
X103847500Y-83853571D01*
X103561785Y-84139285D02*
X103561785Y-83567857D01*
X104454642Y-83746428D02*
X104561785Y-83782142D01*
X104597500Y-83817857D01*
X104633214Y-83889285D01*
X104633214Y-83996428D01*
X104597500Y-84067857D01*
X104561785Y-84103571D01*
X104490357Y-84139285D01*
X104204642Y-84139285D01*
X104204642Y-83389285D01*
X104454642Y-83389285D01*
X104526071Y-83425000D01*
X104561785Y-83460714D01*
X104597500Y-83532142D01*
X104597500Y-83603571D01*
X104561785Y-83675000D01*
X104526071Y-83710714D01*
X104454642Y-83746428D01*
X104204642Y-83746428D01*
X104918928Y-83925000D02*
X105276071Y-83925000D01*
X104847500Y-84139285D02*
X105097500Y-83389285D01*
X105347500Y-84139285D01*
X105490357Y-83389285D02*
X105918928Y-83389285D01*
X105704642Y-84139285D02*
X105704642Y-83389285D01*
X106061785Y-83389285D02*
X106490357Y-83389285D01*
X106276071Y-84139285D02*
X106276071Y-83389285D01*
X103276071Y-80889285D02*
X103276071Y-81496428D01*
X103311785Y-81567857D01*
X103347500Y-81603571D01*
X103418928Y-81639285D01*
X103561785Y-81639285D01*
X103633214Y-81603571D01*
X103668928Y-81567857D01*
X103704642Y-81496428D01*
X103704642Y-80889285D01*
X104061785Y-81639285D02*
X104061785Y-80889285D01*
X104347500Y-80889285D01*
X104418928Y-80925000D01*
X104454642Y-80960714D01*
X104490357Y-81032142D01*
X104490357Y-81139285D01*
X104454642Y-81210714D01*
X104418928Y-81246428D01*
X104347500Y-81282142D01*
X104061785Y-81282142D01*
X104811785Y-81639285D02*
X104811785Y-80889285D01*
X104990357Y-80889285D01*
X105097500Y-80925000D01*
X105168928Y-80996428D01*
X105204642Y-81067857D01*
X105240357Y-81210714D01*
X105240357Y-81317857D01*
X105204642Y-81460714D01*
X105168928Y-81532142D01*
X105097500Y-81603571D01*
X104990357Y-81639285D01*
X104811785Y-81639285D01*
X105561785Y-81639285D02*
X105561785Y-80889285D01*
X105740357Y-81710714D02*
X106311785Y-81710714D01*
X106918928Y-81639285D02*
X106668928Y-81282142D01*
X106490357Y-81639285D02*
X106490357Y-80889285D01*
X106776071Y-80889285D01*
X106847500Y-80925000D01*
X106883214Y-80960714D01*
X106918928Y-81032142D01*
X106918928Y-81139285D01*
X106883214Y-81210714D01*
X106847500Y-81246428D01*
X106776071Y-81282142D01*
X106490357Y-81282142D01*
X107204642Y-81603571D02*
X107311785Y-81639285D01*
X107490357Y-81639285D01*
X107561785Y-81603571D01*
X107597500Y-81567857D01*
X107633214Y-81496428D01*
X107633214Y-81425000D01*
X107597500Y-81353571D01*
X107561785Y-81317857D01*
X107490357Y-81282142D01*
X107347500Y-81246428D01*
X107276071Y-81210714D01*
X107240357Y-81175000D01*
X107204642Y-81103571D01*
X107204642Y-81032142D01*
X107240357Y-80960714D01*
X107276071Y-80925000D01*
X107347500Y-80889285D01*
X107526071Y-80889285D01*
X107633214Y-80925000D01*
X107847500Y-80889285D02*
X108276071Y-80889285D01*
X108061785Y-81639285D02*
X108061785Y-80889285D01*
X97773928Y-81639285D02*
X97773928Y-80889285D01*
X98059642Y-80889285D01*
X98131071Y-80925000D01*
X98166785Y-80960714D01*
X98202500Y-81032142D01*
X98202500Y-81139285D01*
X98166785Y-81210714D01*
X98131071Y-81246428D01*
X98059642Y-81282142D01*
X97773928Y-81282142D01*
X98488214Y-81425000D02*
X98845357Y-81425000D01*
X98416785Y-81639285D02*
X98666785Y-80889285D01*
X98916785Y-81639285D01*
X99309642Y-80889285D02*
X99381071Y-80889285D01*
X99452500Y-80925000D01*
X99488214Y-80960714D01*
X99523928Y-81032142D01*
X99559642Y-81175000D01*
X99559642Y-81353571D01*
X99523928Y-81496428D01*
X99488214Y-81567857D01*
X99452500Y-81603571D01*
X99381071Y-81639285D01*
X99309642Y-81639285D01*
X99238214Y-81603571D01*
X99202500Y-81567857D01*
X99166785Y-81496428D01*
X99131071Y-81353571D01*
X99131071Y-81175000D01*
X99166785Y-81032142D01*
X99202500Y-80960714D01*
X99238214Y-80925000D01*
X99309642Y-80889285D01*
X103668928Y-78325000D02*
X103597500Y-78289285D01*
X103490357Y-78289285D01*
X103383214Y-78325000D01*
X103311785Y-78396428D01*
X103276071Y-78467857D01*
X103240357Y-78610714D01*
X103240357Y-78717857D01*
X103276071Y-78860714D01*
X103311785Y-78932142D01*
X103383214Y-79003571D01*
X103490357Y-79039285D01*
X103561785Y-79039285D01*
X103668928Y-79003571D01*
X103704642Y-78967857D01*
X103704642Y-78717857D01*
X103561785Y-78717857D01*
X104026071Y-79039285D02*
X104026071Y-78289285D01*
X104454642Y-79039285D01*
X104454642Y-78289285D01*
X104811785Y-79039285D02*
X104811785Y-78289285D01*
X104990357Y-78289285D01*
X105097500Y-78325000D01*
X105168928Y-78396428D01*
X105204642Y-78467857D01*
X105240357Y-78610714D01*
X105240357Y-78717857D01*
X105204642Y-78860714D01*
X105168928Y-78932142D01*
X105097500Y-79003571D01*
X104990357Y-79039285D01*
X104811785Y-79039285D01*
X103668928Y-68225000D02*
X103597500Y-68189285D01*
X103490357Y-68189285D01*
X103383214Y-68225000D01*
X103311785Y-68296428D01*
X103276071Y-68367857D01*
X103240357Y-68510714D01*
X103240357Y-68617857D01*
X103276071Y-68760714D01*
X103311785Y-68832142D01*
X103383214Y-68903571D01*
X103490357Y-68939285D01*
X103561785Y-68939285D01*
X103668928Y-68903571D01*
X103704642Y-68867857D01*
X103704642Y-68617857D01*
X103561785Y-68617857D01*
X104026071Y-68939285D02*
X104026071Y-68189285D01*
X104454642Y-68939285D01*
X104454642Y-68189285D01*
X104811785Y-68939285D02*
X104811785Y-68189285D01*
X104990357Y-68189285D01*
X105097500Y-68225000D01*
X105168928Y-68296428D01*
X105204642Y-68367857D01*
X105240357Y-68510714D01*
X105240357Y-68617857D01*
X105204642Y-68760714D01*
X105168928Y-68832142D01*
X105097500Y-68903571D01*
X104990357Y-68939285D01*
X104811785Y-68939285D01*
X103276071Y-73008928D02*
X103526071Y-73008928D01*
X103633214Y-73401785D02*
X103276071Y-73401785D01*
X103276071Y-72651785D01*
X103633214Y-72651785D01*
X103883214Y-72651785D02*
X104383214Y-73401785D01*
X104383214Y-72651785D02*
X103883214Y-73401785D01*
X104668928Y-73401785D02*
X104668928Y-72651785D01*
X104954642Y-72651785D01*
X105026071Y-72687500D01*
X105061785Y-72723214D01*
X105097500Y-72794642D01*
X105097500Y-72901785D01*
X105061785Y-72973214D01*
X105026071Y-73008928D01*
X104954642Y-73044642D01*
X104668928Y-73044642D01*
X105240357Y-73473214D02*
X105811785Y-73473214D01*
X105954642Y-73187500D02*
X106311785Y-73187500D01*
X105883214Y-73401785D02*
X106133214Y-72651785D01*
X106383214Y-73401785D01*
X103168928Y-73926785D02*
X103597500Y-73926785D01*
X103383214Y-74676785D02*
X103383214Y-73926785D01*
X103776071Y-73926785D02*
X104276071Y-74676785D01*
X104276071Y-73926785D02*
X103776071Y-74676785D01*
X104383214Y-74748214D02*
X104954642Y-74748214D01*
X105097500Y-74462500D02*
X105454642Y-74462500D01*
X105026071Y-74676785D02*
X105276071Y-73926785D01*
X105526071Y-74676785D01*
X106168928Y-74676785D02*
X105740357Y-74676785D01*
X105954642Y-74676785D02*
X105954642Y-73926785D01*
X105883214Y-74033928D01*
X105811785Y-74105357D01*
X105740357Y-74141071D01*
X97773928Y-74039285D02*
X97773928Y-73289285D01*
X98059642Y-73289285D01*
X98131071Y-73325000D01*
X98166785Y-73360714D01*
X98202500Y-73432142D01*
X98202500Y-73539285D01*
X98166785Y-73610714D01*
X98131071Y-73646428D01*
X98059642Y-73682142D01*
X97773928Y-73682142D01*
X98488214Y-73825000D02*
X98845357Y-73825000D01*
X98416785Y-74039285D02*
X98666785Y-73289285D01*
X98916785Y-74039285D01*
X99559642Y-74039285D02*
X99131071Y-74039285D01*
X99345357Y-74039285D02*
X99345357Y-73289285D01*
X99273928Y-73396428D01*
X99202500Y-73467857D01*
X99131071Y-73503571D01*
X103276071Y-70408928D02*
X103526071Y-70408928D01*
X103633214Y-70801785D02*
X103276071Y-70801785D01*
X103276071Y-70051785D01*
X103633214Y-70051785D01*
X103883214Y-70051785D02*
X104383214Y-70801785D01*
X104383214Y-70051785D02*
X103883214Y-70801785D01*
X104668928Y-70801785D02*
X104668928Y-70051785D01*
X104954642Y-70051785D01*
X105026071Y-70087500D01*
X105061785Y-70123214D01*
X105097500Y-70194642D01*
X105097500Y-70301785D01*
X105061785Y-70373214D01*
X105026071Y-70408928D01*
X104954642Y-70444642D01*
X104668928Y-70444642D01*
X105240357Y-70873214D02*
X105811785Y-70873214D01*
X106240357Y-70408928D02*
X106347500Y-70444642D01*
X106383214Y-70480357D01*
X106418928Y-70551785D01*
X106418928Y-70658928D01*
X106383214Y-70730357D01*
X106347500Y-70766071D01*
X106276071Y-70801785D01*
X105990357Y-70801785D01*
X105990357Y-70051785D01*
X106240357Y-70051785D01*
X106311785Y-70087500D01*
X106347500Y-70123214D01*
X106383214Y-70194642D01*
X106383214Y-70266071D01*
X106347500Y-70337500D01*
X106311785Y-70373214D01*
X106240357Y-70408928D01*
X105990357Y-70408928D01*
X103704642Y-72076785D02*
X103454642Y-71719642D01*
X103276071Y-72076785D02*
X103276071Y-71326785D01*
X103561785Y-71326785D01*
X103633214Y-71362500D01*
X103668928Y-71398214D01*
X103704642Y-71469642D01*
X103704642Y-71576785D01*
X103668928Y-71648214D01*
X103633214Y-71683928D01*
X103561785Y-71719642D01*
X103276071Y-71719642D01*
X103954642Y-71326785D02*
X104454642Y-72076785D01*
X104454642Y-71326785D02*
X103954642Y-72076785D01*
X104561785Y-72148214D02*
X105133214Y-72148214D01*
X105276071Y-71862500D02*
X105633214Y-71862500D01*
X105204642Y-72076785D02*
X105454642Y-71326785D01*
X105704642Y-72076785D01*
X105918928Y-71398214D02*
X105954642Y-71362500D01*
X106026071Y-71326785D01*
X106204642Y-71326785D01*
X106276071Y-71362500D01*
X106311785Y-71398214D01*
X106347500Y-71469642D01*
X106347500Y-71541071D01*
X106311785Y-71648214D01*
X105883214Y-72076785D01*
X106347500Y-72076785D01*
X97773928Y-71439285D02*
X97773928Y-70689285D01*
X98059642Y-70689285D01*
X98131071Y-70725000D01*
X98166785Y-70760714D01*
X98202500Y-70832142D01*
X98202500Y-70939285D01*
X98166785Y-71010714D01*
X98131071Y-71046428D01*
X98059642Y-71082142D01*
X97773928Y-71082142D01*
X98488214Y-71225000D02*
X98845357Y-71225000D01*
X98416785Y-71439285D02*
X98666785Y-70689285D01*
X98916785Y-71439285D01*
X99131071Y-70760714D02*
X99166785Y-70725000D01*
X99238214Y-70689285D01*
X99416785Y-70689285D01*
X99488214Y-70725000D01*
X99523928Y-70760714D01*
X99559642Y-70832142D01*
X99559642Y-70903571D01*
X99523928Y-71010714D01*
X99095357Y-71439285D01*
X99559642Y-71439285D01*
X80476071Y-84139285D02*
X80476071Y-83389285D01*
X80761785Y-83389285D01*
X80833214Y-83425000D01*
X80868928Y-83460714D01*
X80904642Y-83532142D01*
X80904642Y-83639285D01*
X80868928Y-83710714D01*
X80833214Y-83746428D01*
X80761785Y-83782142D01*
X80476071Y-83782142D01*
X81476071Y-83746428D02*
X81583214Y-83782142D01*
X81618928Y-83817857D01*
X81654642Y-83889285D01*
X81654642Y-83996428D01*
X81618928Y-84067857D01*
X81583214Y-84103571D01*
X81511785Y-84139285D01*
X81226071Y-84139285D01*
X81226071Y-83389285D01*
X81476071Y-83389285D01*
X81547500Y-83425000D01*
X81583214Y-83460714D01*
X81618928Y-83532142D01*
X81618928Y-83603571D01*
X81583214Y-83675000D01*
X81547500Y-83710714D01*
X81476071Y-83746428D01*
X81226071Y-83746428D01*
X82368928Y-84139285D02*
X81940357Y-84139285D01*
X82154642Y-84139285D02*
X82154642Y-83389285D01*
X82083214Y-83496428D01*
X82011785Y-83567857D01*
X81940357Y-83603571D01*
X72581071Y-84139285D02*
X72581071Y-83389285D01*
X72902500Y-83460714D02*
X72938214Y-83425000D01*
X73009642Y-83389285D01*
X73188214Y-83389285D01*
X73259642Y-83425000D01*
X73295357Y-83460714D01*
X73331071Y-83532142D01*
X73331071Y-83603571D01*
X73295357Y-83710714D01*
X72866785Y-84139285D01*
X73331071Y-84139285D01*
X74081071Y-84067857D02*
X74045357Y-84103571D01*
X73938214Y-84139285D01*
X73866785Y-84139285D01*
X73759642Y-84103571D01*
X73688214Y-84032142D01*
X73652500Y-83960714D01*
X73616785Y-83817857D01*
X73616785Y-83710714D01*
X73652500Y-83567857D01*
X73688214Y-83496428D01*
X73759642Y-83425000D01*
X73866785Y-83389285D01*
X73938214Y-83389285D01*
X74045357Y-83425000D01*
X74081071Y-83460714D01*
X74223928Y-84210714D02*
X74795357Y-84210714D01*
X74938214Y-84103571D02*
X75045357Y-84139285D01*
X75223928Y-84139285D01*
X75295357Y-84103571D01*
X75331071Y-84067857D01*
X75366785Y-83996428D01*
X75366785Y-83925000D01*
X75331071Y-83853571D01*
X75295357Y-83817857D01*
X75223928Y-83782142D01*
X75081071Y-83746428D01*
X75009642Y-83710714D01*
X74973928Y-83675000D01*
X74938214Y-83603571D01*
X74938214Y-83532142D01*
X74973928Y-83460714D01*
X75009642Y-83425000D01*
X75081071Y-83389285D01*
X75259642Y-83389285D01*
X75366785Y-83425000D01*
X75688214Y-84139285D02*
X75688214Y-83389285D01*
X75866785Y-83389285D01*
X75973928Y-83425000D01*
X76045357Y-83496428D01*
X76081071Y-83567857D01*
X76116785Y-83710714D01*
X76116785Y-83817857D01*
X76081071Y-83960714D01*
X76045357Y-84032142D01*
X75973928Y-84103571D01*
X75866785Y-84139285D01*
X75688214Y-84139285D01*
X76402500Y-83925000D02*
X76759642Y-83925000D01*
X76331071Y-84139285D02*
X76581071Y-83389285D01*
X76831071Y-84139285D01*
X80476071Y-81639285D02*
X80476071Y-80889285D01*
X80761785Y-80889285D01*
X80833214Y-80925000D01*
X80868928Y-80960714D01*
X80904642Y-81032142D01*
X80904642Y-81139285D01*
X80868928Y-81210714D01*
X80833214Y-81246428D01*
X80761785Y-81282142D01*
X80476071Y-81282142D01*
X81476071Y-81246428D02*
X81583214Y-81282142D01*
X81618928Y-81317857D01*
X81654642Y-81389285D01*
X81654642Y-81496428D01*
X81618928Y-81567857D01*
X81583214Y-81603571D01*
X81511785Y-81639285D01*
X81226071Y-81639285D01*
X81226071Y-80889285D01*
X81476071Y-80889285D01*
X81547500Y-80925000D01*
X81583214Y-80960714D01*
X81618928Y-81032142D01*
X81618928Y-81103571D01*
X81583214Y-81175000D01*
X81547500Y-81210714D01*
X81476071Y-81246428D01*
X81226071Y-81246428D01*
X82118928Y-80889285D02*
X82190357Y-80889285D01*
X82261785Y-80925000D01*
X82297500Y-80960714D01*
X82333214Y-81032142D01*
X82368928Y-81175000D01*
X82368928Y-81353571D01*
X82333214Y-81496428D01*
X82297500Y-81567857D01*
X82261785Y-81603571D01*
X82190357Y-81639285D01*
X82118928Y-81639285D01*
X82047500Y-81603571D01*
X82011785Y-81567857D01*
X81976071Y-81496428D01*
X81940357Y-81353571D01*
X81940357Y-81175000D01*
X81976071Y-81032142D01*
X82011785Y-80960714D01*
X82047500Y-80925000D01*
X82118928Y-80889285D01*
X72616785Y-81639285D02*
X72616785Y-80889285D01*
X72938214Y-80960714D02*
X72973928Y-80925000D01*
X73045357Y-80889285D01*
X73223928Y-80889285D01*
X73295357Y-80925000D01*
X73331071Y-80960714D01*
X73366785Y-81032142D01*
X73366785Y-81103571D01*
X73331071Y-81210714D01*
X72902500Y-81639285D01*
X73366785Y-81639285D01*
X74116785Y-81567857D02*
X74081071Y-81603571D01*
X73973928Y-81639285D01*
X73902500Y-81639285D01*
X73795357Y-81603571D01*
X73723928Y-81532142D01*
X73688214Y-81460714D01*
X73652500Y-81317857D01*
X73652500Y-81210714D01*
X73688214Y-81067857D01*
X73723928Y-80996428D01*
X73795357Y-80925000D01*
X73902500Y-80889285D01*
X73973928Y-80889285D01*
X74081071Y-80925000D01*
X74116785Y-80960714D01*
X74259642Y-81710714D02*
X74831071Y-81710714D01*
X74973928Y-81603571D02*
X75081071Y-81639285D01*
X75259642Y-81639285D01*
X75331071Y-81603571D01*
X75366785Y-81567857D01*
X75402500Y-81496428D01*
X75402500Y-81425000D01*
X75366785Y-81353571D01*
X75331071Y-81317857D01*
X75259642Y-81282142D01*
X75116785Y-81246428D01*
X75045357Y-81210714D01*
X75009642Y-81175000D01*
X74973928Y-81103571D01*
X74973928Y-81032142D01*
X75009642Y-80960714D01*
X75045357Y-80925000D01*
X75116785Y-80889285D01*
X75295357Y-80889285D01*
X75402500Y-80925000D01*
X76152500Y-81567857D02*
X76116785Y-81603571D01*
X76009642Y-81639285D01*
X75938214Y-81639285D01*
X75831071Y-81603571D01*
X75759642Y-81532142D01*
X75723928Y-81460714D01*
X75688214Y-81317857D01*
X75688214Y-81210714D01*
X75723928Y-81067857D01*
X75759642Y-80996428D01*
X75831071Y-80925000D01*
X75938214Y-80889285D01*
X76009642Y-80889285D01*
X76116785Y-80925000D01*
X76152500Y-80960714D01*
X76831071Y-81639285D02*
X76473928Y-81639285D01*
X76473928Y-80889285D01*
X80476071Y-79139285D02*
X80476071Y-78389285D01*
X80761785Y-78389285D01*
X80833214Y-78425000D01*
X80868928Y-78460714D01*
X80904642Y-78532142D01*
X80904642Y-78639285D01*
X80868928Y-78710714D01*
X80833214Y-78746428D01*
X80761785Y-78782142D01*
X80476071Y-78782142D01*
X81476071Y-78746428D02*
X81583214Y-78782142D01*
X81618928Y-78817857D01*
X81654642Y-78889285D01*
X81654642Y-78996428D01*
X81618928Y-79067857D01*
X81583214Y-79103571D01*
X81511785Y-79139285D01*
X81226071Y-79139285D01*
X81226071Y-78389285D01*
X81476071Y-78389285D01*
X81547500Y-78425000D01*
X81583214Y-78460714D01*
X81618928Y-78532142D01*
X81618928Y-78603571D01*
X81583214Y-78675000D01*
X81547500Y-78710714D01*
X81476071Y-78746428D01*
X81226071Y-78746428D01*
X81940357Y-78460714D02*
X81976071Y-78425000D01*
X82047500Y-78389285D01*
X82226071Y-78389285D01*
X82297500Y-78425000D01*
X82333214Y-78460714D01*
X82368928Y-78532142D01*
X82368928Y-78603571D01*
X82333214Y-78710714D01*
X81904642Y-79139285D01*
X82368928Y-79139285D01*
X72081071Y-79139285D02*
X72081071Y-78389285D01*
X72366785Y-78389285D01*
X72438214Y-78425000D01*
X72473928Y-78460714D01*
X72509642Y-78532142D01*
X72509642Y-78639285D01*
X72473928Y-78710714D01*
X72438214Y-78746428D01*
X72366785Y-78782142D01*
X72081071Y-78782142D01*
X73081071Y-78746428D02*
X73188214Y-78782142D01*
X73223928Y-78817857D01*
X73259642Y-78889285D01*
X73259642Y-78996428D01*
X73223928Y-79067857D01*
X73188214Y-79103571D01*
X73116785Y-79139285D01*
X72831071Y-79139285D01*
X72831071Y-78389285D01*
X73081071Y-78389285D01*
X73152500Y-78425000D01*
X73188214Y-78460714D01*
X73223928Y-78532142D01*
X73223928Y-78603571D01*
X73188214Y-78675000D01*
X73152500Y-78710714D01*
X73081071Y-78746428D01*
X72831071Y-78746428D01*
X73402500Y-79210714D02*
X73973928Y-79210714D01*
X74081071Y-78389285D02*
X74259642Y-79139285D01*
X74402500Y-78603571D01*
X74545357Y-79139285D01*
X74723928Y-78389285D01*
X74973928Y-78925000D02*
X75331071Y-78925000D01*
X74902500Y-79139285D02*
X75152500Y-78389285D01*
X75402500Y-79139285D01*
X75652500Y-79139285D02*
X75652500Y-78389285D01*
X76081071Y-79139285D02*
X75759642Y-78710714D01*
X76081071Y-78389285D02*
X75652500Y-78817857D01*
X76402500Y-78746428D02*
X76652500Y-78746428D01*
X76759642Y-79139285D02*
X76402500Y-79139285D01*
X76402500Y-78389285D01*
X76759642Y-78389285D01*
X72616785Y-74039285D02*
X72616785Y-73289285D01*
X73045357Y-74039285D01*
X73045357Y-73289285D01*
X73652500Y-73646428D02*
X73402500Y-73646428D01*
X73402500Y-74039285D02*
X73402500Y-73289285D01*
X73759642Y-73289285D01*
X74473928Y-73967857D02*
X74438214Y-74003571D01*
X74331071Y-74039285D01*
X74259642Y-74039285D01*
X74152500Y-74003571D01*
X74081071Y-73932142D01*
X74045357Y-73860714D01*
X74009642Y-73717857D01*
X74009642Y-73610714D01*
X74045357Y-73467857D01*
X74081071Y-73396428D01*
X74152500Y-73325000D01*
X74259642Y-73289285D01*
X74331071Y-73289285D01*
X74438214Y-73325000D01*
X74473928Y-73360714D01*
X74616785Y-74110714D02*
X75188214Y-74110714D01*
X75366785Y-74039285D02*
X75366785Y-73289285D01*
X75723928Y-74039285D02*
X75723928Y-73289285D01*
X76152500Y-74039285D01*
X76152500Y-73289285D01*
X76402500Y-73289285D02*
X76831071Y-73289285D01*
X76616785Y-74039285D02*
X76616785Y-73289285D01*
X74902500Y-70901785D02*
X74902500Y-70151785D01*
X75331071Y-70901785D01*
X75331071Y-70151785D01*
X75938214Y-70508928D02*
X75688214Y-70508928D01*
X75688214Y-70901785D02*
X75688214Y-70151785D01*
X76045357Y-70151785D01*
X76759642Y-70830357D02*
X76723928Y-70866071D01*
X76616785Y-70901785D01*
X76545357Y-70901785D01*
X76438214Y-70866071D01*
X76366785Y-70794642D01*
X76331071Y-70723214D01*
X76295357Y-70580357D01*
X76295357Y-70473214D01*
X76331071Y-70330357D01*
X76366785Y-70258928D01*
X76438214Y-70187500D01*
X76545357Y-70151785D01*
X76616785Y-70151785D01*
X76723928Y-70187500D01*
X76759642Y-70223214D01*
X72295357Y-72176785D02*
X72295357Y-71426785D01*
X72295357Y-71783928D02*
X72723928Y-71783928D01*
X72723928Y-72176785D02*
X72723928Y-71426785D01*
X73045357Y-71962500D02*
X73402500Y-71962500D01*
X72973928Y-72176785D02*
X73223928Y-71426785D01*
X73473928Y-72176785D01*
X74152500Y-72176785D02*
X73902500Y-71819642D01*
X73723928Y-72176785D02*
X73723928Y-71426785D01*
X74009642Y-71426785D01*
X74081071Y-71462500D01*
X74116785Y-71498214D01*
X74152500Y-71569642D01*
X74152500Y-71676785D01*
X74116785Y-71748214D01*
X74081071Y-71783928D01*
X74009642Y-71819642D01*
X73723928Y-71819642D01*
X74366785Y-71426785D02*
X74616785Y-72176785D01*
X74866785Y-71426785D01*
X75116785Y-71783928D02*
X75366785Y-71783928D01*
X75473928Y-72176785D02*
X75116785Y-72176785D01*
X75116785Y-71426785D01*
X75473928Y-71426785D01*
X75759642Y-72141071D02*
X75866785Y-72176785D01*
X76045357Y-72176785D01*
X76116785Y-72141071D01*
X76152500Y-72105357D01*
X76188214Y-72033928D01*
X76188214Y-71962500D01*
X76152500Y-71891071D01*
X76116785Y-71855357D01*
X76045357Y-71819642D01*
X75902500Y-71783928D01*
X75831071Y-71748214D01*
X75795357Y-71712500D01*
X75759642Y-71641071D01*
X75759642Y-71569642D01*
X75795357Y-71498214D01*
X75831071Y-71462500D01*
X75902500Y-71426785D01*
X76081071Y-71426785D01*
X76188214Y-71462500D01*
X76402500Y-71426785D02*
X76831071Y-71426785D01*
X76616785Y-72176785D02*
X76616785Y-71426785D01*
X75188214Y-68225000D02*
X75116785Y-68189285D01*
X75009642Y-68189285D01*
X74902500Y-68225000D01*
X74831071Y-68296428D01*
X74795357Y-68367857D01*
X74759642Y-68510714D01*
X74759642Y-68617857D01*
X74795357Y-68760714D01*
X74831071Y-68832142D01*
X74902500Y-68903571D01*
X75009642Y-68939285D01*
X75081071Y-68939285D01*
X75188214Y-68903571D01*
X75223928Y-68867857D01*
X75223928Y-68617857D01*
X75081071Y-68617857D01*
X75545357Y-68939285D02*
X75545357Y-68189285D01*
X75973928Y-68939285D01*
X75973928Y-68189285D01*
X76331071Y-68939285D02*
X76331071Y-68189285D01*
X76509642Y-68189285D01*
X76616785Y-68225000D01*
X76688214Y-68296428D01*
X76723928Y-68367857D01*
X76759642Y-68510714D01*
X76759642Y-68617857D01*
X76723928Y-68760714D01*
X76688214Y-68832142D01*
X76616785Y-68903571D01*
X76509642Y-68939285D01*
X76331071Y-68939285D01*
D11*
G36*
X89363392Y-104508935D02*
G01*
X89391805Y-104517900D01*
X89417515Y-104533810D01*
X89427208Y-104542047D01*
X89449679Y-104567813D01*
X89464947Y-104596689D01*
X89472949Y-104627471D01*
X89473618Y-104658953D01*
X89466891Y-104689931D01*
X89452702Y-104719198D01*
X89437789Y-104738578D01*
X89412384Y-104760876D01*
X89383676Y-104776530D01*
X89353035Y-104785152D01*
X89321826Y-104786358D01*
X89291563Y-104779813D01*
X89259271Y-104764268D01*
X89232957Y-104743434D01*
X89213008Y-104718251D01*
X89199816Y-104689658D01*
X89193768Y-104658594D01*
X89195256Y-104625999D01*
X89204668Y-104592811D01*
X89209541Y-104581967D01*
X89228004Y-104553486D01*
X89251893Y-104531208D01*
X89280333Y-104515681D01*
X89312450Y-104507453D01*
X89330449Y-104506240D01*
X89363392Y-104508935D01*
X89363392Y-104508935D01*
G37*
X89363392Y-104508935D02*
X89391805Y-104517900D01*
X89417515Y-104533810D01*
X89427208Y-104542047D01*
X89449679Y-104567813D01*
X89464947Y-104596689D01*
X89472949Y-104627471D01*
X89473618Y-104658953D01*
X89466891Y-104689931D01*
X89452702Y-104719198D01*
X89437789Y-104738578D01*
X89412384Y-104760876D01*
X89383676Y-104776530D01*
X89353035Y-104785152D01*
X89321826Y-104786358D01*
X89291563Y-104779813D01*
X89259271Y-104764268D01*
X89232957Y-104743434D01*
X89213008Y-104718251D01*
X89199816Y-104689658D01*
X89193768Y-104658594D01*
X89195256Y-104625999D01*
X89204668Y-104592811D01*
X89209541Y-104581967D01*
X89228004Y-104553486D01*
X89251893Y-104531208D01*
X89280333Y-104515681D01*
X89312450Y-104507453D01*
X89330449Y-104506240D01*
X89363392Y-104508935D01*
D12*
X95360552Y-74700000D02*
G75*
G03X95360552Y-74700000I-280552J0D01*
G01*
X96476999Y-52729001D02*
X96473579Y-71088396D01*
X86164600Y-74242800D02*
X86164600Y-72490200D01*
X93860800Y-72464800D02*
X93860800Y-74242800D01*
X83503375Y-52742743D02*
X83497601Y-71067799D01*
X96473579Y-71088396D02*
G75*
G02X83497601Y-71067799I-6473579J9088396D01*
G01*
X83503375Y-52742744D02*
G75*
G02X96476999Y-52729001I6496625J-9257256D01*
G01*
X93149600Y-75766800D02*
X94419600Y-75766800D01*
X93784600Y-75131800D02*
X93784600Y-76401800D01*
D13*
X96775000Y-79500000D02*
X97050000Y-79500000D01*
X97050000Y-79500000D02*
X97425000Y-79225000D01*
X97425000Y-79225000D02*
X97425000Y-79175000D01*
X97425000Y-79175000D02*
X98200000Y-79175000D01*
X96950000Y-76200000D02*
X97425000Y-76200000D01*
X97425000Y-76200000D02*
X97425000Y-76550000D01*
X95775000Y-76425000D02*
X95775000Y-76550000D01*
X95775000Y-76500000D02*
X95775000Y-76200000D01*
X95775000Y-76200000D02*
X96225000Y-76200000D01*
X96150000Y-79500000D02*
X95775000Y-79500000D01*
X95775000Y-79500000D02*
X95775000Y-79200000D01*
X88900000Y-124250000D02*
X88900000Y-124550000D01*
X88950000Y-124200000D02*
X88900000Y-124250000D01*
X88950000Y-123950000D02*
X88950000Y-124200000D01*
X91100000Y-123900000D02*
X91100000Y-124400000D01*
X90800000Y-123900000D02*
X91100000Y-123900000D01*
X91100000Y-126100000D02*
X91100000Y-125700000D01*
X90850000Y-126100000D02*
X91100000Y-126100000D01*
X88900000Y-126100000D02*
X88900000Y-125500000D01*
X89150000Y-126100000D02*
X88900000Y-126100000D01*
D12*
X94100000Y-124200000D02*
X94100000Y-122800000D01*
X94800000Y-122100000D02*
X95400000Y-122100000D01*
X96100000Y-122800000D02*
X96100000Y-124200000D01*
X95400000Y-124900000D02*
X94800000Y-124900000D01*
X94800000Y-124900000D02*
G75*
G02X94100000Y-124200000I0J700000D01*
G01*
X96100000Y-124200000D02*
G75*
G02X95400000Y-124900000I-700000J0D01*
G01*
X95400000Y-122100000D02*
G75*
G02X96100000Y-122800000I0J-700000D01*
G01*
X94100000Y-122800000D02*
G75*
G02X94800000Y-122100000I700000J0D01*
G01*
X106590000Y-107217221D02*
X106590000Y-107542779D01*
X107610000Y-107217221D02*
X107610000Y-107542779D01*
X72380000Y-107189721D02*
X72380000Y-107515279D01*
X73400000Y-107189721D02*
X73400000Y-107515279D01*
X91090000Y-105337221D02*
X91090000Y-105662779D01*
X92110000Y-105337221D02*
X92110000Y-105662779D01*
X89590000Y-105337221D02*
X89590000Y-105662779D01*
X90610000Y-105337221D02*
X90610000Y-105662779D01*
X88090000Y-105337221D02*
X88090000Y-105662779D01*
X89110000Y-105337221D02*
X89110000Y-105662779D01*
X86590000Y-105337221D02*
X86590000Y-105662779D01*
X87610000Y-105337221D02*
X87610000Y-105662779D01*
X89510000Y-132740000D02*
X89510000Y-134440000D01*
X90310000Y-132740000D02*
X89510000Y-132740000D01*
X90510000Y-132740000D02*
X90310000Y-132740000D01*
X90510000Y-132840000D02*
X90510000Y-132740000D01*
X90510000Y-132940000D02*
X90510000Y-132840000D01*
X90510000Y-132940000D02*
X90510000Y-134440000D01*
X101280000Y-90657936D02*
X101280000Y-91862064D01*
X104000000Y-90657936D02*
X104000000Y-91862064D01*
X76180000Y-90677936D02*
X76180000Y-91882064D01*
X78900000Y-90677936D02*
X78900000Y-91882064D01*
X85565000Y-100000000D02*
X85565000Y-103450000D01*
X85565000Y-100000000D02*
X85565000Y-98050000D01*
X94435000Y-100000000D02*
X94435000Y-101950000D01*
X94435000Y-100000000D02*
X94435000Y-98050000D01*
D13*
X87400000Y-83650000D02*
X87400000Y-83350000D01*
X87700000Y-83650000D02*
X87400000Y-83650000D01*
X92600000Y-83650000D02*
X92600000Y-83350000D01*
X92300000Y-83650000D02*
X92600000Y-83650000D01*
X87400000Y-79450000D02*
X87400000Y-79750000D01*
X87700000Y-79450000D02*
X87400000Y-79450000D01*
X92300000Y-79650000D02*
X92300000Y-78850000D01*
X92600000Y-79950000D02*
X92300000Y-79650000D01*
X92600000Y-80350000D02*
X92600000Y-79950000D01*
D12*
X85200000Y-95500000D02*
G75*
G03X85200000Y-95500000I-700000J0D01*
G01*
X93500000Y-124400000D02*
G75*
G03X93500000Y-124400000I-700000J0D01*
G01*
X94500000Y-126200000D02*
G75*
G03X94500000Y-126200000I-700000J0D01*
G01*
X96100000Y-106500000D02*
G75*
G03X96100000Y-106500000I-700000J0D01*
G01*
X100000000Y-108400000D02*
G75*
G03X100000000Y-108400000I-700000J0D01*
G01*
X81350000Y-108350000D02*
G75*
G03X81350000Y-108350000I-700000J0D01*
G01*
X107800000Y-110100000D02*
G75*
G03X107800000Y-110100000I-700000J0D01*
G01*
X73600000Y-110100000D02*
G75*
G03X73600000Y-110100000I-700000J0D01*
G01*
X102300000Y-104600000D02*
G75*
G03X102300000Y-104600000I-700000J0D01*
G01*
X79100000Y-104600000D02*
G75*
G03X79100000Y-104600000I-700000J0D01*
G01*
X80700000Y-99500000D02*
G75*
G03X80700000Y-99500000I-700000J0D01*
G01*
X84950000Y-102750000D02*
G75*
G03X84950000Y-102750000I-700000J0D01*
G01*
D13*
X87003200Y-89800400D02*
X86753200Y-89800400D01*
X92692800Y-94162600D02*
X87400000Y-94152800D01*
X93109200Y-89804800D02*
X93109200Y-91900000D01*
X87003200Y-89793800D02*
X87003200Y-91902000D01*
X88000000Y-87558600D02*
X92667400Y-87558600D01*
D12*
X81662779Y-95490000D02*
X81337221Y-95490000D01*
X81662779Y-96510000D02*
X81337221Y-96510000D01*
X81490000Y-91337221D02*
X81490000Y-91662779D01*
X82510000Y-91337221D02*
X82510000Y-91662779D01*
X83490000Y-91337221D02*
X83490000Y-91662779D01*
X84510000Y-91337221D02*
X84510000Y-91662779D01*
X96575279Y-92490000D02*
X96249721Y-92490000D01*
X96575279Y-93510000D02*
X96249721Y-93510000D01*
X96024721Y-105010000D02*
X96350279Y-105010000D01*
X96024721Y-103990000D02*
X96350279Y-103990000D01*
X96110000Y-97962779D02*
X96110000Y-97637221D01*
X95090000Y-97962779D02*
X95090000Y-97637221D01*
X96575279Y-99890000D02*
X96249721Y-99890000D01*
X96575279Y-100910000D02*
X96249721Y-100910000D01*
X101090000Y-107437221D02*
X101090000Y-107762779D01*
X102110000Y-107437221D02*
X102110000Y-107762779D01*
X77890000Y-107437221D02*
X77890000Y-107762779D01*
X78910000Y-107437221D02*
X78910000Y-107762779D01*
X104790000Y-107237221D02*
X104790000Y-107562779D01*
X105810000Y-107237221D02*
X105810000Y-107562779D01*
X74140000Y-107187221D02*
X74140000Y-107512779D01*
X75160000Y-107187221D02*
X75160000Y-107512779D01*
D13*
X71350000Y-119175000D02*
X71650000Y-119175000D01*
X71350000Y-119550000D02*
X71350000Y-119175000D01*
X74650000Y-119175000D02*
X74650000Y-119625000D01*
X74350000Y-119175000D02*
X74650000Y-119175000D01*
X74425000Y-119175000D02*
X74300000Y-119175000D01*
X74650000Y-120825000D02*
X74300000Y-120825000D01*
X74650000Y-120350000D02*
X74650000Y-120825000D01*
X71675000Y-120825000D02*
X71675000Y-121600000D01*
X71625000Y-120825000D02*
X71675000Y-120825000D01*
X71350000Y-120450000D02*
X71625000Y-120825000D01*
X71350000Y-120175000D02*
X71350000Y-120450000D01*
X105350000Y-119175000D02*
X105650000Y-119175000D01*
X105350000Y-119550000D02*
X105350000Y-119175000D01*
X108650000Y-119175000D02*
X108650000Y-119625000D01*
X108350000Y-119175000D02*
X108650000Y-119175000D01*
X108425000Y-119175000D02*
X108300000Y-119175000D01*
X108650000Y-120825000D02*
X108300000Y-120825000D01*
X108650000Y-120350000D02*
X108650000Y-120825000D01*
X105675000Y-120825000D02*
X105675000Y-121600000D01*
X105625000Y-120825000D02*
X105675000Y-120825000D01*
X105350000Y-120450000D02*
X105625000Y-120825000D01*
X105350000Y-120175000D02*
X105350000Y-120450000D01*
X100150000Y-110275000D02*
X100450000Y-110275000D01*
X100150000Y-110650000D02*
X100150000Y-110275000D01*
X103450000Y-110275000D02*
X103450000Y-110725000D01*
X103150000Y-110275000D02*
X103450000Y-110275000D01*
X103225000Y-110275000D02*
X103100000Y-110275000D01*
X103450000Y-111925000D02*
X103100000Y-111925000D01*
X103450000Y-111450000D02*
X103450000Y-111925000D01*
X100475000Y-111925000D02*
X100475000Y-112700000D01*
X100425000Y-111925000D02*
X100475000Y-111925000D01*
X100150000Y-111550000D02*
X100425000Y-111925000D01*
X100150000Y-111275000D02*
X100150000Y-111550000D01*
X76550000Y-110275000D02*
X76850000Y-110275000D01*
X76550000Y-110650000D02*
X76550000Y-110275000D01*
X79850000Y-110275000D02*
X79850000Y-110725000D01*
X79550000Y-110275000D02*
X79850000Y-110275000D01*
X79625000Y-110275000D02*
X79500000Y-110275000D01*
X79850000Y-111925000D02*
X79500000Y-111925000D01*
X79850000Y-111450000D02*
X79850000Y-111925000D01*
X76875000Y-111925000D02*
X76875000Y-112700000D01*
X76825000Y-111925000D02*
X76875000Y-111925000D01*
X76550000Y-111550000D02*
X76825000Y-111925000D01*
X76550000Y-111275000D02*
X76550000Y-111550000D01*
D12*
X107600000Y-105700000D02*
X107600000Y-104000000D01*
X106800000Y-105700000D02*
X107600000Y-105700000D01*
X106600000Y-105700000D02*
X106800000Y-105700000D01*
X106600000Y-105600000D02*
X106600000Y-105700000D01*
X106600000Y-105500000D02*
X106600000Y-105600000D01*
X106600000Y-105500000D02*
X106600000Y-104000000D01*
X73400000Y-105640000D02*
X73400000Y-103940000D01*
X72600000Y-105640000D02*
X73400000Y-105640000D01*
X72400000Y-105640000D02*
X72600000Y-105640000D01*
X72400000Y-105540000D02*
X72400000Y-105640000D01*
X72400000Y-105440000D02*
X72400000Y-105540000D01*
X72400000Y-105440000D02*
X72400000Y-103940000D01*
D13*
X100030000Y-77320000D02*
X100030000Y-77820000D01*
X100030000Y-77320000D02*
X100530000Y-77320000D01*
X100030000Y-85220000D02*
X100030000Y-84720000D01*
X100030000Y-85220000D02*
X100530000Y-85220000D01*
X102830000Y-85220000D02*
X102330000Y-85220000D01*
X102830000Y-85220000D02*
X102830000Y-84720000D01*
X102830000Y-77320000D02*
X102830000Y-77820000D01*
X102830000Y-77320000D02*
X102330000Y-77320000D01*
X77170000Y-67160000D02*
X77170000Y-67660000D01*
X77170000Y-67160000D02*
X77670000Y-67160000D01*
X77170000Y-75060000D02*
X77170000Y-74560000D01*
X77170000Y-75060000D02*
X77670000Y-75060000D01*
X79970000Y-75060000D02*
X79470000Y-75060000D01*
X79970000Y-75060000D02*
X79970000Y-74560000D01*
X79970000Y-67160000D02*
X79970000Y-67660000D01*
X79970000Y-67160000D02*
X79470000Y-67160000D01*
X100030000Y-67160000D02*
X100030000Y-67660000D01*
X100030000Y-67160000D02*
X100530000Y-67160000D01*
X100030000Y-75060000D02*
X100030000Y-74560000D01*
X100030000Y-75060000D02*
X100530000Y-75060000D01*
X102830000Y-75060000D02*
X102330000Y-75060000D01*
X102830000Y-75060000D02*
X102830000Y-74560000D01*
X102830000Y-67160000D02*
X102830000Y-67660000D01*
X102830000Y-67160000D02*
X102330000Y-67160000D01*
X77170000Y-77320000D02*
X77170000Y-77820000D01*
X77170000Y-77320000D02*
X77670000Y-77320000D01*
X77170000Y-85220000D02*
X77170000Y-84720000D01*
X77170000Y-85220000D02*
X77670000Y-85220000D01*
X79970000Y-85220000D02*
X79470000Y-85220000D01*
X79970000Y-85220000D02*
X79970000Y-84720000D01*
X79970000Y-77320000D02*
X79970000Y-77820000D01*
X79970000Y-77320000D02*
X79470000Y-77320000D01*
D14*
X88700000Y-120150000D02*
G75*
G03X88700000Y-120150000I-100000J0D01*
G01*
D13*
X91050000Y-120000000D02*
X91050000Y-119500000D01*
X91050000Y-120000000D02*
X88950000Y-120000000D01*
X91050000Y-118000000D02*
X91050000Y-118500000D01*
X91050000Y-118000000D02*
X88950000Y-118000000D01*
X88950000Y-118500000D02*
X88950000Y-118000000D01*
D12*
X90500000Y-139050000D02*
X90500000Y-137350000D01*
X89700000Y-139050000D02*
X90500000Y-139050000D01*
X89500000Y-139050000D02*
X89700000Y-139050000D01*
X89500000Y-138950000D02*
X89500000Y-139050000D01*
X89500000Y-138850000D02*
X89500000Y-138950000D01*
X89500000Y-138850000D02*
X89500000Y-137350000D01*
X89500000Y-110950000D02*
X89500000Y-112650000D01*
X90300000Y-110950000D02*
X89500000Y-110950000D01*
X90500000Y-110950000D02*
X90300000Y-110950000D01*
X90500000Y-111050000D02*
X90500000Y-110950000D01*
X90500000Y-111150000D02*
X90500000Y-111050000D01*
X90500000Y-111150000D02*
X90500000Y-112650000D01*
X100272792Y-134565685D02*
X99070711Y-133363604D01*
X99707107Y-135131371D02*
X100272792Y-134565685D01*
X99565685Y-135272792D02*
X99707107Y-135131371D01*
X99494975Y-135202082D02*
X99565685Y-135272792D01*
X99424264Y-135131371D02*
X99494975Y-135202082D01*
X99424264Y-135131371D02*
X98363604Y-134070711D01*
X75950000Y-125500000D02*
X77650000Y-125500000D01*
X75950000Y-124700000D02*
X75950000Y-125500000D01*
X75950000Y-124500000D02*
X75950000Y-124700000D01*
X76050000Y-124500000D02*
X75950000Y-124500000D01*
X76150000Y-124500000D02*
X76050000Y-124500000D01*
X76150000Y-124500000D02*
X77650000Y-124500000D01*
X79727208Y-115434315D02*
X80929289Y-116636396D01*
X80292893Y-114868629D02*
X79727208Y-115434315D01*
X80434315Y-114727208D02*
X80292893Y-114868629D01*
X80505025Y-114797918D02*
X80434315Y-114727208D01*
X80575736Y-114868629D02*
X80505025Y-114797918D01*
X80575736Y-114868629D02*
X81636396Y-115929289D01*
X104050000Y-124500000D02*
X102350000Y-124500000D01*
X104050000Y-125300000D02*
X104050000Y-124500000D01*
X104050000Y-125500000D02*
X104050000Y-125300000D01*
X103950000Y-125500000D02*
X104050000Y-125500000D01*
X103850000Y-125500000D02*
X103950000Y-125500000D01*
X103850000Y-125500000D02*
X102350000Y-125500000D01*
X99596015Y-114696878D02*
X98393934Y-115898959D01*
X100161701Y-115262563D02*
X99596015Y-114696878D01*
X100303122Y-115403985D02*
X100161701Y-115262563D01*
X100232412Y-115474695D02*
X100303122Y-115403985D01*
X100161701Y-115545406D02*
X100232412Y-115474695D01*
X100161701Y-115545406D02*
X99101041Y-116606066D01*
X80434315Y-135272792D02*
X81636396Y-134070711D01*
X79868629Y-134707107D02*
X80434315Y-135272792D01*
X79727208Y-134565685D02*
X79868629Y-134707107D01*
X79797918Y-134494975D02*
X79727208Y-134565685D01*
X79868629Y-134424264D02*
X79797918Y-134494975D01*
X79868629Y-134424264D02*
X80929289Y-133363604D01*
X104100000Y-105400000D02*
X104100000Y-103700000D01*
X103300000Y-105400000D02*
X104100000Y-105400000D01*
X103100000Y-105400000D02*
X103300000Y-105400000D01*
X103100000Y-105300000D02*
X103100000Y-105400000D01*
X103100000Y-105200000D02*
X103100000Y-105300000D01*
X103100000Y-105200000D02*
X103100000Y-103700000D01*
X76900000Y-105400000D02*
X76900000Y-103700000D01*
X76100000Y-105400000D02*
X76900000Y-105400000D01*
X75900000Y-105400000D02*
X76100000Y-105400000D01*
X75900000Y-105300000D02*
X75900000Y-105400000D01*
X75900000Y-105200000D02*
X75900000Y-105300000D01*
X75900000Y-105200000D02*
X75900000Y-103700000D01*
X97710000Y-89375279D02*
X97710000Y-89049721D01*
X96690000Y-89375279D02*
X96690000Y-89049721D01*
X88110000Y-126762779D02*
X88110000Y-126437221D01*
X87090000Y-126762779D02*
X87090000Y-126437221D01*
X84760000Y-100162779D02*
X84760000Y-99837221D01*
X83740000Y-100162779D02*
X83740000Y-99837221D01*
X82960000Y-100258578D02*
X82960000Y-99741422D01*
X81540000Y-100258578D02*
X81540000Y-99741422D01*
X89290000Y-128037221D02*
X89290000Y-128362779D01*
X90310000Y-128037221D02*
X90310000Y-128362779D01*
X91090000Y-128078922D02*
X91090000Y-128596078D01*
X92510000Y-128078922D02*
X92510000Y-128596078D01*
X105610000Y-111121078D02*
X105610000Y-110603922D01*
X104190000Y-111121078D02*
X104190000Y-110603922D01*
X74440000Y-110591422D02*
X74440000Y-111108578D01*
X75860000Y-110591422D02*
X75860000Y-111108578D01*
X94310000Y-79637221D02*
X94310000Y-79962779D01*
X93290000Y-79637221D02*
X93290000Y-79962779D01*
X94310000Y-83362779D02*
X94310000Y-83037221D01*
X93290000Y-83362779D02*
X93290000Y-83037221D01*
D15*
X84589285Y-75946428D02*
X84696428Y-75982142D01*
X84732142Y-76017857D01*
X84767857Y-76089285D01*
X84767857Y-76196428D01*
X84732142Y-76267857D01*
X84696428Y-76303571D01*
X84625000Y-76339285D01*
X84339285Y-76339285D01*
X84339285Y-75589285D01*
X84589285Y-75589285D01*
X84660714Y-75625000D01*
X84696428Y-75660714D01*
X84732142Y-75732142D01*
X84732142Y-75803571D01*
X84696428Y-75875000D01*
X84660714Y-75910714D01*
X84589285Y-75946428D01*
X84339285Y-75946428D01*
X85053571Y-76125000D02*
X85410714Y-76125000D01*
X84982142Y-76339285D02*
X85232142Y-75589285D01*
X85482142Y-76339285D01*
X85625000Y-75589285D02*
X86053571Y-75589285D01*
X85839285Y-76339285D02*
X85839285Y-75589285D01*
X86696428Y-76339285D02*
X86267857Y-76339285D01*
X86482142Y-76339285D02*
X86482142Y-75589285D01*
X86410714Y-75696428D01*
X86339285Y-75767857D01*
X86267857Y-75803571D01*
D10*
X99204761Y-80097619D02*
X99109523Y-80050000D01*
X99014285Y-79954761D01*
X98871428Y-79811904D01*
X98776190Y-79764285D01*
X98680952Y-79764285D01*
X98728571Y-80002380D02*
X98633333Y-79954761D01*
X98538095Y-79859523D01*
X98490476Y-79669047D01*
X98490476Y-79335714D01*
X98538095Y-79145238D01*
X98633333Y-79050000D01*
X98728571Y-79002380D01*
X98919047Y-79002380D01*
X99014285Y-79050000D01*
X99109523Y-79145238D01*
X99157142Y-79335714D01*
X99157142Y-79669047D01*
X99109523Y-79859523D01*
X99014285Y-79954761D01*
X98919047Y-80002380D01*
X98728571Y-80002380D01*
X99490476Y-79002380D02*
X100157142Y-79002380D01*
X99728571Y-80002380D01*
X89238095Y-121702380D02*
X89238095Y-122511904D01*
X89285714Y-122607142D01*
X89333333Y-122654761D01*
X89428571Y-122702380D01*
X89619047Y-122702380D01*
X89714285Y-122654761D01*
X89761904Y-122607142D01*
X89809523Y-122511904D01*
X89809523Y-121702380D01*
X90238095Y-121797619D02*
X90285714Y-121750000D01*
X90380952Y-121702380D01*
X90619047Y-121702380D01*
X90714285Y-121750000D01*
X90761904Y-121797619D01*
X90809523Y-121892857D01*
X90809523Y-121988095D01*
X90761904Y-122130952D01*
X90190476Y-122702380D01*
X90809523Y-122702380D01*
X94266666Y-120852380D02*
X94266666Y-121566666D01*
X94219047Y-121709523D01*
X94123809Y-121804761D01*
X93980952Y-121852380D01*
X93885714Y-121852380D01*
X94742857Y-121852380D02*
X94742857Y-120852380D01*
X95123809Y-120852380D01*
X95219047Y-120900000D01*
X95266666Y-120947619D01*
X95314285Y-121042857D01*
X95314285Y-121185714D01*
X95266666Y-121280952D01*
X95219047Y-121328571D01*
X95123809Y-121376190D01*
X94742857Y-121376190D01*
X96266666Y-121852380D02*
X95695238Y-121852380D01*
X95980952Y-121852380D02*
X95980952Y-120852380D01*
X95885714Y-120995238D01*
X95790476Y-121090476D01*
X95695238Y-121138095D01*
X108982380Y-108022857D02*
X108506190Y-108356190D01*
X108982380Y-108594285D02*
X107982380Y-108594285D01*
X107982380Y-108213333D01*
X108030000Y-108118095D01*
X108077619Y-108070476D01*
X108172857Y-108022857D01*
X108315714Y-108022857D01*
X108410952Y-108070476D01*
X108458571Y-108118095D01*
X108506190Y-108213333D01*
X108506190Y-108594285D01*
X108982380Y-107070476D02*
X108982380Y-107641904D01*
X108982380Y-107356190D02*
X107982380Y-107356190D01*
X108125238Y-107451428D01*
X108220476Y-107546666D01*
X108268095Y-107641904D01*
X107982380Y-106737142D02*
X107982380Y-106070476D01*
X108982380Y-106499047D01*
X71822380Y-107982857D02*
X71346190Y-108316190D01*
X71822380Y-108554285D02*
X70822380Y-108554285D01*
X70822380Y-108173333D01*
X70870000Y-108078095D01*
X70917619Y-108030476D01*
X71012857Y-107982857D01*
X71155714Y-107982857D01*
X71250952Y-108030476D01*
X71298571Y-108078095D01*
X71346190Y-108173333D01*
X71346190Y-108554285D01*
X71822380Y-107030476D02*
X71822380Y-107601904D01*
X71822380Y-107316190D02*
X70822380Y-107316190D01*
X70965238Y-107411428D01*
X71060476Y-107506666D01*
X71108095Y-107601904D01*
X70822380Y-106173333D02*
X70822380Y-106363809D01*
X70870000Y-106459047D01*
X70917619Y-106506666D01*
X71060476Y-106601904D01*
X71250952Y-106649523D01*
X71631904Y-106649523D01*
X71727142Y-106601904D01*
X71774761Y-106554285D01*
X71822380Y-106459047D01*
X71822380Y-106268571D01*
X71774761Y-106173333D01*
X71727142Y-106125714D01*
X71631904Y-106078095D01*
X71393809Y-106078095D01*
X71298571Y-106125714D01*
X71250952Y-106173333D01*
X71203333Y-106268571D01*
X71203333Y-106459047D01*
X71250952Y-106554285D01*
X71298571Y-106601904D01*
X71393809Y-106649523D01*
D15*
X93075000Y-106739285D02*
X92825000Y-106382142D01*
X92646428Y-106739285D02*
X92646428Y-105989285D01*
X92932142Y-105989285D01*
X93003571Y-106025000D01*
X93039285Y-106060714D01*
X93075000Y-106132142D01*
X93075000Y-106239285D01*
X93039285Y-106310714D01*
X93003571Y-106346428D01*
X92932142Y-106382142D01*
X92646428Y-106382142D01*
X93503571Y-106310714D02*
X93432142Y-106275000D01*
X93396428Y-106239285D01*
X93360714Y-106167857D01*
X93360714Y-106132142D01*
X93396428Y-106060714D01*
X93432142Y-106025000D01*
X93503571Y-105989285D01*
X93646428Y-105989285D01*
X93717857Y-106025000D01*
X93753571Y-106060714D01*
X93789285Y-106132142D01*
X93789285Y-106167857D01*
X93753571Y-106239285D01*
X93717857Y-106275000D01*
X93646428Y-106310714D01*
X93503571Y-106310714D01*
X93432142Y-106346428D01*
X93396428Y-106382142D01*
X93360714Y-106453571D01*
X93360714Y-106596428D01*
X93396428Y-106667857D01*
X93432142Y-106703571D01*
X93503571Y-106739285D01*
X93646428Y-106739285D01*
X93717857Y-106703571D01*
X93753571Y-106667857D01*
X93789285Y-106596428D01*
X93789285Y-106453571D01*
X93753571Y-106382142D01*
X93717857Y-106346428D01*
X93646428Y-106310714D01*
X90275000Y-108239285D02*
X90025000Y-107882142D01*
X89846428Y-108239285D02*
X89846428Y-107489285D01*
X90132142Y-107489285D01*
X90203571Y-107525000D01*
X90239285Y-107560714D01*
X90275000Y-107632142D01*
X90275000Y-107739285D01*
X90239285Y-107810714D01*
X90203571Y-107846428D01*
X90132142Y-107882142D01*
X89846428Y-107882142D01*
X90525000Y-107489285D02*
X91025000Y-107489285D01*
X90703571Y-108239285D01*
X88075000Y-108239285D02*
X87825000Y-107882142D01*
X87646428Y-108239285D02*
X87646428Y-107489285D01*
X87932142Y-107489285D01*
X88003571Y-107525000D01*
X88039285Y-107560714D01*
X88075000Y-107632142D01*
X88075000Y-107739285D01*
X88039285Y-107810714D01*
X88003571Y-107846428D01*
X87932142Y-107882142D01*
X87646428Y-107882142D01*
X88717857Y-107489285D02*
X88575000Y-107489285D01*
X88503571Y-107525000D01*
X88467857Y-107560714D01*
X88396428Y-107667857D01*
X88360714Y-107810714D01*
X88360714Y-108096428D01*
X88396428Y-108167857D01*
X88432142Y-108203571D01*
X88503571Y-108239285D01*
X88646428Y-108239285D01*
X88717857Y-108203571D01*
X88753571Y-108167857D01*
X88789285Y-108096428D01*
X88789285Y-107917857D01*
X88753571Y-107846428D01*
X88717857Y-107810714D01*
X88646428Y-107775000D01*
X88503571Y-107775000D01*
X88432142Y-107810714D01*
X88396428Y-107846428D01*
X88360714Y-107917857D01*
X85275000Y-106739285D02*
X85025000Y-106382142D01*
X84846428Y-106739285D02*
X84846428Y-105989285D01*
X85132142Y-105989285D01*
X85203571Y-106025000D01*
X85239285Y-106060714D01*
X85275000Y-106132142D01*
X85275000Y-106239285D01*
X85239285Y-106310714D01*
X85203571Y-106346428D01*
X85132142Y-106382142D01*
X84846428Y-106382142D01*
X85953571Y-105989285D02*
X85596428Y-105989285D01*
X85560714Y-106346428D01*
X85596428Y-106310714D01*
X85667857Y-106275000D01*
X85846428Y-106275000D01*
X85917857Y-106310714D01*
X85953571Y-106346428D01*
X85989285Y-106417857D01*
X85989285Y-106596428D01*
X85953571Y-106667857D01*
X85917857Y-106703571D01*
X85846428Y-106739285D01*
X85667857Y-106739285D01*
X85596428Y-106703571D01*
X85560714Y-106667857D01*
D10*
X89341904Y-132272380D02*
X89341904Y-131272380D01*
X89580000Y-131272380D01*
X89722857Y-131320000D01*
X89818095Y-131415238D01*
X89865714Y-131510476D01*
X89913333Y-131700952D01*
X89913333Y-131843809D01*
X89865714Y-132034285D01*
X89818095Y-132129523D01*
X89722857Y-132224761D01*
X89580000Y-132272380D01*
X89341904Y-132272380D01*
X90246666Y-131272380D02*
X90865714Y-131272380D01*
X90532380Y-131653333D01*
X90675238Y-131653333D01*
X90770476Y-131700952D01*
X90818095Y-131748571D01*
X90865714Y-131843809D01*
X90865714Y-132081904D01*
X90818095Y-132177142D01*
X90770476Y-132224761D01*
X90675238Y-132272380D01*
X90389523Y-132272380D01*
X90294285Y-132224761D01*
X90246666Y-132177142D01*
X101997142Y-88607142D02*
X101949523Y-88654761D01*
X101806666Y-88702380D01*
X101711428Y-88702380D01*
X101568571Y-88654761D01*
X101473333Y-88559523D01*
X101425714Y-88464285D01*
X101378095Y-88273809D01*
X101378095Y-88130952D01*
X101425714Y-87940476D01*
X101473333Y-87845238D01*
X101568571Y-87750000D01*
X101711428Y-87702380D01*
X101806666Y-87702380D01*
X101949523Y-87750000D01*
X101997142Y-87797619D01*
X102949523Y-88702380D02*
X102378095Y-88702380D01*
X102663809Y-88702380D02*
X102663809Y-87702380D01*
X102568571Y-87845238D01*
X102473333Y-87940476D01*
X102378095Y-87988095D01*
X103806666Y-88035714D02*
X103806666Y-88702380D01*
X103568571Y-87654761D02*
X103330476Y-88369047D01*
X103949523Y-88369047D01*
X76817142Y-88607142D02*
X76769523Y-88654761D01*
X76626666Y-88702380D01*
X76531428Y-88702380D01*
X76388571Y-88654761D01*
X76293333Y-88559523D01*
X76245714Y-88464285D01*
X76198095Y-88273809D01*
X76198095Y-88130952D01*
X76245714Y-87940476D01*
X76293333Y-87845238D01*
X76388571Y-87750000D01*
X76531428Y-87702380D01*
X76626666Y-87702380D01*
X76769523Y-87750000D01*
X76817142Y-87797619D01*
X77769523Y-88702380D02*
X77198095Y-88702380D01*
X77483809Y-88702380D02*
X77483809Y-87702380D01*
X77388571Y-87845238D01*
X77293333Y-87940476D01*
X77198095Y-87988095D01*
X78102857Y-87702380D02*
X78721904Y-87702380D01*
X78388571Y-88083333D01*
X78531428Y-88083333D01*
X78626666Y-88130952D01*
X78674285Y-88178571D01*
X78721904Y-88273809D01*
X78721904Y-88511904D01*
X78674285Y-88607142D01*
X78626666Y-88654761D01*
X78531428Y-88702380D01*
X78245714Y-88702380D01*
X78150476Y-88654761D01*
X78102857Y-88607142D01*
D15*
X87417857Y-77567857D02*
X87382142Y-77603571D01*
X87275000Y-77639285D01*
X87203571Y-77639285D01*
X87096428Y-77603571D01*
X87025000Y-77532142D01*
X86989285Y-77460714D01*
X86953571Y-77317857D01*
X86953571Y-77210714D01*
X86989285Y-77067857D01*
X87025000Y-76996428D01*
X87096428Y-76925000D01*
X87203571Y-76889285D01*
X87275000Y-76889285D01*
X87382142Y-76925000D01*
X87417857Y-76960714D01*
X88132142Y-77639285D02*
X87703571Y-77639285D01*
X87917857Y-77639285D02*
X87917857Y-76889285D01*
X87846428Y-76996428D01*
X87775000Y-77067857D01*
X87703571Y-77103571D01*
X88417857Y-76960714D02*
X88453571Y-76925000D01*
X88525000Y-76889285D01*
X88703571Y-76889285D01*
X88775000Y-76925000D01*
X88810714Y-76960714D01*
X88846428Y-77032142D01*
X88846428Y-77103571D01*
X88810714Y-77210714D01*
X88382142Y-77639285D01*
X88846428Y-77639285D01*
X83928571Y-104089285D02*
X83928571Y-104696428D01*
X83964285Y-104767857D01*
X84000000Y-104803571D01*
X84071428Y-104839285D01*
X84214285Y-104839285D01*
X84285714Y-104803571D01*
X84321428Y-104767857D01*
X84357142Y-104696428D01*
X84357142Y-104089285D01*
X84642857Y-104089285D02*
X85107142Y-104089285D01*
X84857142Y-104375000D01*
X84964285Y-104375000D01*
X85035714Y-104410714D01*
X85071428Y-104446428D01*
X85107142Y-104517857D01*
X85107142Y-104696428D01*
X85071428Y-104767857D01*
X85035714Y-104803571D01*
X84964285Y-104839285D01*
X84750000Y-104839285D01*
X84678571Y-104803571D01*
X84642857Y-104767857D01*
X92828571Y-76989285D02*
X92828571Y-77596428D01*
X92864285Y-77667857D01*
X92900000Y-77703571D01*
X92971428Y-77739285D01*
X93114285Y-77739285D01*
X93185714Y-77703571D01*
X93221428Y-77667857D01*
X93257142Y-77596428D01*
X93257142Y-76989285D01*
X94007142Y-77739285D02*
X93578571Y-77739285D01*
X93792857Y-77739285D02*
X93792857Y-76989285D01*
X93721428Y-77096428D01*
X93650000Y-77167857D01*
X93578571Y-77203571D01*
X86196428Y-95089285D02*
X86625000Y-95089285D01*
X86410714Y-95839285D02*
X86410714Y-95089285D01*
X86875000Y-95839285D02*
X86875000Y-95089285D01*
X87160714Y-95089285D01*
X87232142Y-95125000D01*
X87267857Y-95160714D01*
X87303571Y-95232142D01*
X87303571Y-95339285D01*
X87267857Y-95410714D01*
X87232142Y-95446428D01*
X87160714Y-95482142D01*
X86875000Y-95482142D01*
X88017857Y-95839285D02*
X87589285Y-95839285D01*
X87803571Y-95839285D02*
X87803571Y-95089285D01*
X87732142Y-95196428D01*
X87660714Y-95267857D01*
X87589285Y-95303571D01*
X88446428Y-95410714D02*
X88375000Y-95375000D01*
X88339285Y-95339285D01*
X88303571Y-95267857D01*
X88303571Y-95232142D01*
X88339285Y-95160714D01*
X88375000Y-95125000D01*
X88446428Y-95089285D01*
X88589285Y-95089285D01*
X88660714Y-95125000D01*
X88696428Y-95160714D01*
X88732142Y-95232142D01*
X88732142Y-95267857D01*
X88696428Y-95339285D01*
X88660714Y-95375000D01*
X88589285Y-95410714D01*
X88446428Y-95410714D01*
X88375000Y-95446428D01*
X88339285Y-95482142D01*
X88303571Y-95553571D01*
X88303571Y-95696428D01*
X88339285Y-95767857D01*
X88375000Y-95803571D01*
X88446428Y-95839285D01*
X88589285Y-95839285D01*
X88660714Y-95803571D01*
X88696428Y-95767857D01*
X88732142Y-95696428D01*
X88732142Y-95553571D01*
X88696428Y-95482142D01*
X88660714Y-95446428D01*
X88589285Y-95410714D01*
X91196428Y-122589285D02*
X91625000Y-122589285D01*
X91410714Y-123339285D02*
X91410714Y-122589285D01*
X91875000Y-123339285D02*
X91875000Y-122589285D01*
X92160714Y-122589285D01*
X92232142Y-122625000D01*
X92267857Y-122660714D01*
X92303571Y-122732142D01*
X92303571Y-122839285D01*
X92267857Y-122910714D01*
X92232142Y-122946428D01*
X92160714Y-122982142D01*
X91875000Y-122982142D01*
X93017857Y-123339285D02*
X92589285Y-123339285D01*
X92803571Y-123339285D02*
X92803571Y-122589285D01*
X92732142Y-122696428D01*
X92660714Y-122767857D01*
X92589285Y-122803571D01*
X93660714Y-122839285D02*
X93660714Y-123339285D01*
X93482142Y-122553571D02*
X93303571Y-123089285D01*
X93767857Y-123089285D01*
X94896428Y-125789285D02*
X95325000Y-125789285D01*
X95110714Y-126539285D02*
X95110714Y-125789285D01*
X95575000Y-126539285D02*
X95575000Y-125789285D01*
X95860714Y-125789285D01*
X95932142Y-125825000D01*
X95967857Y-125860714D01*
X96003571Y-125932142D01*
X96003571Y-126039285D01*
X95967857Y-126110714D01*
X95932142Y-126146428D01*
X95860714Y-126182142D01*
X95575000Y-126182142D01*
X96717857Y-126539285D02*
X96289285Y-126539285D01*
X96503571Y-126539285D02*
X96503571Y-125789285D01*
X96432142Y-125896428D01*
X96360714Y-125967857D01*
X96289285Y-126003571D01*
X97003571Y-125860714D02*
X97039285Y-125825000D01*
X97110714Y-125789285D01*
X97289285Y-125789285D01*
X97360714Y-125825000D01*
X97396428Y-125860714D01*
X97432142Y-125932142D01*
X97432142Y-126003571D01*
X97396428Y-126110714D01*
X96967857Y-126539285D01*
X97432142Y-126539285D01*
X94096428Y-107789285D02*
X94525000Y-107789285D01*
X94310714Y-108539285D02*
X94310714Y-107789285D01*
X94775000Y-108539285D02*
X94775000Y-107789285D01*
X95060714Y-107789285D01*
X95132142Y-107825000D01*
X95167857Y-107860714D01*
X95203571Y-107932142D01*
X95203571Y-108039285D01*
X95167857Y-108110714D01*
X95132142Y-108146428D01*
X95060714Y-108182142D01*
X94775000Y-108182142D01*
X95917857Y-108539285D02*
X95489285Y-108539285D01*
X95703571Y-108539285D02*
X95703571Y-107789285D01*
X95632142Y-107896428D01*
X95560714Y-107967857D01*
X95489285Y-108003571D01*
X96632142Y-108539285D02*
X96203571Y-108539285D01*
X96417857Y-108539285D02*
X96417857Y-107789285D01*
X96346428Y-107896428D01*
X96275000Y-107967857D01*
X96203571Y-108003571D01*
X97153571Y-109789285D02*
X97582142Y-109789285D01*
X97367857Y-110539285D02*
X97367857Y-109789285D01*
X97832142Y-110539285D02*
X97832142Y-109789285D01*
X98117857Y-109789285D01*
X98189285Y-109825000D01*
X98225000Y-109860714D01*
X98260714Y-109932142D01*
X98260714Y-110039285D01*
X98225000Y-110110714D01*
X98189285Y-110146428D01*
X98117857Y-110182142D01*
X97832142Y-110182142D01*
X98617857Y-110539285D02*
X98760714Y-110539285D01*
X98832142Y-110503571D01*
X98867857Y-110467857D01*
X98939285Y-110360714D01*
X98975000Y-110217857D01*
X98975000Y-109932142D01*
X98939285Y-109860714D01*
X98903571Y-109825000D01*
X98832142Y-109789285D01*
X98689285Y-109789285D01*
X98617857Y-109825000D01*
X98582142Y-109860714D01*
X98546428Y-109932142D01*
X98546428Y-110110714D01*
X98582142Y-110182142D01*
X98617857Y-110217857D01*
X98689285Y-110253571D01*
X98832142Y-110253571D01*
X98903571Y-110217857D01*
X98939285Y-110182142D01*
X98975000Y-110110714D01*
X80953571Y-109689285D02*
X81382142Y-109689285D01*
X81167857Y-110439285D02*
X81167857Y-109689285D01*
X81632142Y-110439285D02*
X81632142Y-109689285D01*
X81917857Y-109689285D01*
X81989285Y-109725000D01*
X82025000Y-109760714D01*
X82060714Y-109832142D01*
X82060714Y-109939285D01*
X82025000Y-110010714D01*
X81989285Y-110046428D01*
X81917857Y-110082142D01*
X81632142Y-110082142D01*
X82489285Y-110010714D02*
X82417857Y-109975000D01*
X82382142Y-109939285D01*
X82346428Y-109867857D01*
X82346428Y-109832142D01*
X82382142Y-109760714D01*
X82417857Y-109725000D01*
X82489285Y-109689285D01*
X82632142Y-109689285D01*
X82703571Y-109725000D01*
X82739285Y-109760714D01*
X82775000Y-109832142D01*
X82775000Y-109867857D01*
X82739285Y-109939285D01*
X82703571Y-109975000D01*
X82632142Y-110010714D01*
X82489285Y-110010714D01*
X82417857Y-110046428D01*
X82382142Y-110082142D01*
X82346428Y-110153571D01*
X82346428Y-110296428D01*
X82382142Y-110367857D01*
X82417857Y-110403571D01*
X82489285Y-110439285D01*
X82632142Y-110439285D01*
X82703571Y-110403571D01*
X82739285Y-110367857D01*
X82775000Y-110296428D01*
X82775000Y-110153571D01*
X82739285Y-110082142D01*
X82703571Y-110046428D01*
X82632142Y-110010714D01*
X106853571Y-111489285D02*
X107282142Y-111489285D01*
X107067857Y-112239285D02*
X107067857Y-111489285D01*
X107532142Y-112239285D02*
X107532142Y-111489285D01*
X107817857Y-111489285D01*
X107889285Y-111525000D01*
X107925000Y-111560714D01*
X107960714Y-111632142D01*
X107960714Y-111739285D01*
X107925000Y-111810714D01*
X107889285Y-111846428D01*
X107817857Y-111882142D01*
X107532142Y-111882142D01*
X108210714Y-111489285D02*
X108710714Y-111489285D01*
X108389285Y-112239285D01*
X71203571Y-111439285D02*
X71632142Y-111439285D01*
X71417857Y-112189285D02*
X71417857Y-111439285D01*
X71882142Y-112189285D02*
X71882142Y-111439285D01*
X72167857Y-111439285D01*
X72239285Y-111475000D01*
X72275000Y-111510714D01*
X72310714Y-111582142D01*
X72310714Y-111689285D01*
X72275000Y-111760714D01*
X72239285Y-111796428D01*
X72167857Y-111832142D01*
X71882142Y-111832142D01*
X72953571Y-111439285D02*
X72810714Y-111439285D01*
X72739285Y-111475000D01*
X72703571Y-111510714D01*
X72632142Y-111617857D01*
X72596428Y-111760714D01*
X72596428Y-112046428D01*
X72632142Y-112117857D01*
X72667857Y-112153571D01*
X72739285Y-112189285D01*
X72882142Y-112189285D01*
X72953571Y-112153571D01*
X72989285Y-112117857D01*
X73025000Y-112046428D01*
X73025000Y-111867857D01*
X72989285Y-111796428D01*
X72953571Y-111760714D01*
X72882142Y-111725000D01*
X72739285Y-111725000D01*
X72667857Y-111760714D01*
X72632142Y-111796428D01*
X72596428Y-111867857D01*
X100553571Y-102741285D02*
X100982142Y-102741285D01*
X100767857Y-103491285D02*
X100767857Y-102741285D01*
X101232142Y-103491285D02*
X101232142Y-102741285D01*
X101517857Y-102741285D01*
X101589285Y-102777000D01*
X101625000Y-102812714D01*
X101660714Y-102884142D01*
X101660714Y-102991285D01*
X101625000Y-103062714D01*
X101589285Y-103098428D01*
X101517857Y-103134142D01*
X101232142Y-103134142D01*
X102339285Y-102741285D02*
X101982142Y-102741285D01*
X101946428Y-103098428D01*
X101982142Y-103062714D01*
X102053571Y-103027000D01*
X102232142Y-103027000D01*
X102303571Y-103062714D01*
X102339285Y-103098428D01*
X102375000Y-103169857D01*
X102375000Y-103348428D01*
X102339285Y-103419857D01*
X102303571Y-103455571D01*
X102232142Y-103491285D01*
X102053571Y-103491285D01*
X101982142Y-103455571D01*
X101946428Y-103419857D01*
X77703571Y-102689285D02*
X78132142Y-102689285D01*
X77917857Y-103439285D02*
X77917857Y-102689285D01*
X78382142Y-103439285D02*
X78382142Y-102689285D01*
X78667857Y-102689285D01*
X78739285Y-102725000D01*
X78775000Y-102760714D01*
X78810714Y-102832142D01*
X78810714Y-102939285D01*
X78775000Y-103010714D01*
X78739285Y-103046428D01*
X78667857Y-103082142D01*
X78382142Y-103082142D01*
X79453571Y-102939285D02*
X79453571Y-103439285D01*
X79275000Y-102653571D02*
X79096428Y-103189285D01*
X79560714Y-103189285D01*
X79053571Y-97589285D02*
X79482142Y-97589285D01*
X79267857Y-98339285D02*
X79267857Y-97589285D01*
X79732142Y-98339285D02*
X79732142Y-97589285D01*
X80017857Y-97589285D01*
X80089285Y-97625000D01*
X80125000Y-97660714D01*
X80160714Y-97732142D01*
X80160714Y-97839285D01*
X80125000Y-97910714D01*
X80089285Y-97946428D01*
X80017857Y-97982142D01*
X79732142Y-97982142D01*
X80446428Y-97660714D02*
X80482142Y-97625000D01*
X80553571Y-97589285D01*
X80732142Y-97589285D01*
X80803571Y-97625000D01*
X80839285Y-97660714D01*
X80875000Y-97732142D01*
X80875000Y-97803571D01*
X80839285Y-97910714D01*
X80410714Y-98339285D01*
X80875000Y-98339285D01*
X81053571Y-102339285D02*
X81482142Y-102339285D01*
X81267857Y-103089285D02*
X81267857Y-102339285D01*
X81732142Y-103089285D02*
X81732142Y-102339285D01*
X82017857Y-102339285D01*
X82089285Y-102375000D01*
X82125000Y-102410714D01*
X82160714Y-102482142D01*
X82160714Y-102589285D01*
X82125000Y-102660714D01*
X82089285Y-102696428D01*
X82017857Y-102732142D01*
X81732142Y-102732142D01*
X82875000Y-103089285D02*
X82446428Y-103089285D01*
X82660714Y-103089285D02*
X82660714Y-102339285D01*
X82589285Y-102446428D01*
X82517857Y-102517857D01*
X82446428Y-102553571D01*
X83878571Y-87003571D02*
X83985714Y-87039285D01*
X84164285Y-87039285D01*
X84235714Y-87003571D01*
X84271428Y-86967857D01*
X84307142Y-86896428D01*
X84307142Y-86825000D01*
X84271428Y-86753571D01*
X84235714Y-86717857D01*
X84164285Y-86682142D01*
X84021428Y-86646428D01*
X83950000Y-86610714D01*
X83914285Y-86575000D01*
X83878571Y-86503571D01*
X83878571Y-86432142D01*
X83914285Y-86360714D01*
X83950000Y-86325000D01*
X84021428Y-86289285D01*
X84200000Y-86289285D01*
X84307142Y-86325000D01*
X85021428Y-87039285D02*
X84592857Y-87039285D01*
X84807142Y-87039285D02*
X84807142Y-86289285D01*
X84735714Y-86396428D01*
X84664285Y-86467857D01*
X84592857Y-86503571D01*
X78230357Y-96339285D02*
X77980357Y-95982142D01*
X77801785Y-96339285D02*
X77801785Y-95589285D01*
X78087500Y-95589285D01*
X78158928Y-95625000D01*
X78194642Y-95660714D01*
X78230357Y-95732142D01*
X78230357Y-95839285D01*
X78194642Y-95910714D01*
X78158928Y-95946428D01*
X78087500Y-95982142D01*
X77801785Y-95982142D01*
X78944642Y-96339285D02*
X78516071Y-96339285D01*
X78730357Y-96339285D02*
X78730357Y-95589285D01*
X78658928Y-95696428D01*
X78587500Y-95767857D01*
X78516071Y-95803571D01*
X79623214Y-95589285D02*
X79266071Y-95589285D01*
X79230357Y-95946428D01*
X79266071Y-95910714D01*
X79337500Y-95875000D01*
X79516071Y-95875000D01*
X79587500Y-95910714D01*
X79623214Y-95946428D01*
X79658928Y-96017857D01*
X79658928Y-96196428D01*
X79623214Y-96267857D01*
X79587500Y-96303571D01*
X79516071Y-96339285D01*
X79337500Y-96339285D01*
X79266071Y-96303571D01*
X79230357Y-96267857D01*
X81017857Y-93839285D02*
X80767857Y-93482142D01*
X80589285Y-93839285D02*
X80589285Y-93089285D01*
X80875000Y-93089285D01*
X80946428Y-93125000D01*
X80982142Y-93160714D01*
X81017857Y-93232142D01*
X81017857Y-93339285D01*
X80982142Y-93410714D01*
X80946428Y-93446428D01*
X80875000Y-93482142D01*
X80589285Y-93482142D01*
X81732142Y-93839285D02*
X81303571Y-93839285D01*
X81517857Y-93839285D02*
X81517857Y-93089285D01*
X81446428Y-93196428D01*
X81375000Y-93267857D01*
X81303571Y-93303571D01*
X82375000Y-93339285D02*
X82375000Y-93839285D01*
X82196428Y-93053571D02*
X82017857Y-93589285D01*
X82482142Y-93589285D01*
X83517857Y-89339285D02*
X83267857Y-88982142D01*
X83089285Y-89339285D02*
X83089285Y-88589285D01*
X83375000Y-88589285D01*
X83446428Y-88625000D01*
X83482142Y-88660714D01*
X83517857Y-88732142D01*
X83517857Y-88839285D01*
X83482142Y-88910714D01*
X83446428Y-88946428D01*
X83375000Y-88982142D01*
X83089285Y-88982142D01*
X84232142Y-89339285D02*
X83803571Y-89339285D01*
X84017857Y-89339285D02*
X84017857Y-88589285D01*
X83946428Y-88696428D01*
X83875000Y-88767857D01*
X83803571Y-88803571D01*
X84482142Y-88589285D02*
X84946428Y-88589285D01*
X84696428Y-88875000D01*
X84803571Y-88875000D01*
X84875000Y-88910714D01*
X84910714Y-88946428D01*
X84946428Y-89017857D01*
X84946428Y-89196428D01*
X84910714Y-89267857D01*
X84875000Y-89303571D01*
X84803571Y-89339285D01*
X84589285Y-89339285D01*
X84517857Y-89303571D01*
X84482142Y-89267857D01*
X95930357Y-94769285D02*
X95680357Y-94412142D01*
X95501785Y-94769285D02*
X95501785Y-94019285D01*
X95787500Y-94019285D01*
X95858928Y-94055000D01*
X95894642Y-94090714D01*
X95930357Y-94162142D01*
X95930357Y-94269285D01*
X95894642Y-94340714D01*
X95858928Y-94376428D01*
X95787500Y-94412142D01*
X95501785Y-94412142D01*
X96644642Y-94769285D02*
X96216071Y-94769285D01*
X96430357Y-94769285D02*
X96430357Y-94019285D01*
X96358928Y-94126428D01*
X96287500Y-94197857D01*
X96216071Y-94233571D01*
X96930357Y-94090714D02*
X96966071Y-94055000D01*
X97037500Y-94019285D01*
X97216071Y-94019285D01*
X97287500Y-94055000D01*
X97323214Y-94090714D01*
X97358928Y-94162142D01*
X97358928Y-94233571D01*
X97323214Y-94340714D01*
X96894642Y-94769285D01*
X97358928Y-94769285D01*
X95192857Y-103539285D02*
X94942857Y-103182142D01*
X94764285Y-103539285D02*
X94764285Y-102789285D01*
X95050000Y-102789285D01*
X95121428Y-102825000D01*
X95157142Y-102860714D01*
X95192857Y-102932142D01*
X95192857Y-103039285D01*
X95157142Y-103110714D01*
X95121428Y-103146428D01*
X95050000Y-103182142D01*
X94764285Y-103182142D01*
X95907142Y-103539285D02*
X95478571Y-103539285D01*
X95692857Y-103539285D02*
X95692857Y-102789285D01*
X95621428Y-102896428D01*
X95550000Y-102967857D01*
X95478571Y-103003571D01*
X96621428Y-103539285D02*
X96192857Y-103539285D01*
X96407142Y-103539285D02*
X96407142Y-102789285D01*
X96335714Y-102896428D01*
X96264285Y-102967857D01*
X96192857Y-103003571D01*
X97017857Y-98939285D02*
X96767857Y-98582142D01*
X96589285Y-98939285D02*
X96589285Y-98189285D01*
X96875000Y-98189285D01*
X96946428Y-98225000D01*
X96982142Y-98260714D01*
X97017857Y-98332142D01*
X97017857Y-98439285D01*
X96982142Y-98510714D01*
X96946428Y-98546428D01*
X96875000Y-98582142D01*
X96589285Y-98582142D01*
X97732142Y-98939285D02*
X97303571Y-98939285D01*
X97517857Y-98939285D02*
X97517857Y-98189285D01*
X97446428Y-98296428D01*
X97375000Y-98367857D01*
X97303571Y-98403571D01*
X98196428Y-98189285D02*
X98267857Y-98189285D01*
X98339285Y-98225000D01*
X98375000Y-98260714D01*
X98410714Y-98332142D01*
X98446428Y-98475000D01*
X98446428Y-98653571D01*
X98410714Y-98796428D01*
X98375000Y-98867857D01*
X98339285Y-98903571D01*
X98267857Y-98939285D01*
X98196428Y-98939285D01*
X98125000Y-98903571D01*
X98089285Y-98867857D01*
X98053571Y-98796428D01*
X98017857Y-98653571D01*
X98017857Y-98475000D01*
X98053571Y-98332142D01*
X98089285Y-98260714D01*
X98125000Y-98225000D01*
X98196428Y-98189285D01*
X98575000Y-100739285D02*
X98325000Y-100382142D01*
X98146428Y-100739285D02*
X98146428Y-99989285D01*
X98432142Y-99989285D01*
X98503571Y-100025000D01*
X98539285Y-100060714D01*
X98575000Y-100132142D01*
X98575000Y-100239285D01*
X98539285Y-100310714D01*
X98503571Y-100346428D01*
X98432142Y-100382142D01*
X98146428Y-100382142D01*
X98932142Y-100739285D02*
X99075000Y-100739285D01*
X99146428Y-100703571D01*
X99182142Y-100667857D01*
X99253571Y-100560714D01*
X99289285Y-100417857D01*
X99289285Y-100132142D01*
X99253571Y-100060714D01*
X99217857Y-100025000D01*
X99146428Y-99989285D01*
X99003571Y-99989285D01*
X98932142Y-100025000D01*
X98896428Y-100060714D01*
X98860714Y-100132142D01*
X98860714Y-100310714D01*
X98896428Y-100382142D01*
X98932142Y-100417857D01*
X99003571Y-100453571D01*
X99146428Y-100453571D01*
X99217857Y-100417857D01*
X99253571Y-100382142D01*
X99289285Y-100310714D01*
X99875000Y-107139285D02*
X99625000Y-106782142D01*
X99446428Y-107139285D02*
X99446428Y-106389285D01*
X99732142Y-106389285D01*
X99803571Y-106425000D01*
X99839285Y-106460714D01*
X99875000Y-106532142D01*
X99875000Y-106639285D01*
X99839285Y-106710714D01*
X99803571Y-106746428D01*
X99732142Y-106782142D01*
X99446428Y-106782142D01*
X100517857Y-106639285D02*
X100517857Y-107139285D01*
X100339285Y-106353571D02*
X100160714Y-106889285D01*
X100625000Y-106889285D01*
X80025000Y-107189285D02*
X79775000Y-106832142D01*
X79596428Y-107189285D02*
X79596428Y-106439285D01*
X79882142Y-106439285D01*
X79953571Y-106475000D01*
X79989285Y-106510714D01*
X80025000Y-106582142D01*
X80025000Y-106689285D01*
X79989285Y-106760714D01*
X79953571Y-106796428D01*
X79882142Y-106832142D01*
X79596428Y-106832142D01*
X80275000Y-106439285D02*
X80739285Y-106439285D01*
X80489285Y-106725000D01*
X80596428Y-106725000D01*
X80667857Y-106760714D01*
X80703571Y-106796428D01*
X80739285Y-106867857D01*
X80739285Y-107046428D01*
X80703571Y-107117857D01*
X80667857Y-107153571D01*
X80596428Y-107189285D01*
X80382142Y-107189285D01*
X80310714Y-107153571D01*
X80275000Y-107117857D01*
X103375000Y-106926785D02*
X103125000Y-106569642D01*
X102946428Y-106926785D02*
X102946428Y-106176785D01*
X103232142Y-106176785D01*
X103303571Y-106212500D01*
X103339285Y-106248214D01*
X103375000Y-106319642D01*
X103375000Y-106426785D01*
X103339285Y-106498214D01*
X103303571Y-106533928D01*
X103232142Y-106569642D01*
X102946428Y-106569642D01*
X103660714Y-106248214D02*
X103696428Y-106212500D01*
X103767857Y-106176785D01*
X103946428Y-106176785D01*
X104017857Y-106212500D01*
X104053571Y-106248214D01*
X104089285Y-106319642D01*
X104089285Y-106391071D01*
X104053571Y-106498214D01*
X103625000Y-106926785D01*
X104089285Y-106926785D01*
X76275000Y-106939285D02*
X76025000Y-106582142D01*
X75846428Y-106939285D02*
X75846428Y-106189285D01*
X76132142Y-106189285D01*
X76203571Y-106225000D01*
X76239285Y-106260714D01*
X76275000Y-106332142D01*
X76275000Y-106439285D01*
X76239285Y-106510714D01*
X76203571Y-106546428D01*
X76132142Y-106582142D01*
X75846428Y-106582142D01*
X76989285Y-106939285D02*
X76560714Y-106939285D01*
X76775000Y-106939285D02*
X76775000Y-106189285D01*
X76703571Y-106296428D01*
X76632142Y-106367857D01*
X76560714Y-106403571D01*
X71928571Y-123010714D02*
X71857142Y-122975000D01*
X71785714Y-122903571D01*
X71678571Y-122796428D01*
X71607142Y-122760714D01*
X71535714Y-122760714D01*
X71571428Y-122939285D02*
X71500000Y-122903571D01*
X71428571Y-122832142D01*
X71392857Y-122689285D01*
X71392857Y-122439285D01*
X71428571Y-122296428D01*
X71500000Y-122225000D01*
X71571428Y-122189285D01*
X71714285Y-122189285D01*
X71785714Y-122225000D01*
X71857142Y-122296428D01*
X71892857Y-122439285D01*
X71892857Y-122689285D01*
X71857142Y-122832142D01*
X71785714Y-122903571D01*
X71714285Y-122939285D01*
X71571428Y-122939285D01*
X72535714Y-122189285D02*
X72392857Y-122189285D01*
X72321428Y-122225000D01*
X72285714Y-122260714D01*
X72214285Y-122367857D01*
X72178571Y-122510714D01*
X72178571Y-122796428D01*
X72214285Y-122867857D01*
X72250000Y-122903571D01*
X72321428Y-122939285D01*
X72464285Y-122939285D01*
X72535714Y-122903571D01*
X72571428Y-122867857D01*
X72607142Y-122796428D01*
X72607142Y-122617857D01*
X72571428Y-122546428D01*
X72535714Y-122510714D01*
X72464285Y-122475000D01*
X72321428Y-122475000D01*
X72250000Y-122510714D01*
X72214285Y-122546428D01*
X72178571Y-122617857D01*
X105128571Y-122910714D02*
X105057142Y-122875000D01*
X104985714Y-122803571D01*
X104878571Y-122696428D01*
X104807142Y-122660714D01*
X104735714Y-122660714D01*
X104771428Y-122839285D02*
X104700000Y-122803571D01*
X104628571Y-122732142D01*
X104592857Y-122589285D01*
X104592857Y-122339285D01*
X104628571Y-122196428D01*
X104700000Y-122125000D01*
X104771428Y-122089285D01*
X104914285Y-122089285D01*
X104985714Y-122125000D01*
X105057142Y-122196428D01*
X105092857Y-122339285D01*
X105092857Y-122589285D01*
X105057142Y-122732142D01*
X104985714Y-122803571D01*
X104914285Y-122839285D01*
X104771428Y-122839285D01*
X105771428Y-122089285D02*
X105414285Y-122089285D01*
X105378571Y-122446428D01*
X105414285Y-122410714D01*
X105485714Y-122375000D01*
X105664285Y-122375000D01*
X105735714Y-122410714D01*
X105771428Y-122446428D01*
X105807142Y-122517857D01*
X105807142Y-122696428D01*
X105771428Y-122767857D01*
X105735714Y-122803571D01*
X105664285Y-122839285D01*
X105485714Y-122839285D01*
X105414285Y-122803571D01*
X105378571Y-122767857D01*
X98928571Y-112610714D02*
X98857142Y-112575000D01*
X98785714Y-112503571D01*
X98678571Y-112396428D01*
X98607142Y-112360714D01*
X98535714Y-112360714D01*
X98571428Y-112539285D02*
X98500000Y-112503571D01*
X98428571Y-112432142D01*
X98392857Y-112289285D01*
X98392857Y-112039285D01*
X98428571Y-111896428D01*
X98500000Y-111825000D01*
X98571428Y-111789285D01*
X98714285Y-111789285D01*
X98785714Y-111825000D01*
X98857142Y-111896428D01*
X98892857Y-112039285D01*
X98892857Y-112289285D01*
X98857142Y-112432142D01*
X98785714Y-112503571D01*
X98714285Y-112539285D01*
X98571428Y-112539285D01*
X99535714Y-112039285D02*
X99535714Y-112539285D01*
X99357142Y-111753571D02*
X99178571Y-112289285D01*
X99642857Y-112289285D01*
X77078571Y-114260714D02*
X77007142Y-114225000D01*
X76935714Y-114153571D01*
X76828571Y-114046428D01*
X76757142Y-114010714D01*
X76685714Y-114010714D01*
X76721428Y-114189285D02*
X76650000Y-114153571D01*
X76578571Y-114082142D01*
X76542857Y-113939285D01*
X76542857Y-113689285D01*
X76578571Y-113546428D01*
X76650000Y-113475000D01*
X76721428Y-113439285D01*
X76864285Y-113439285D01*
X76935714Y-113475000D01*
X77007142Y-113546428D01*
X77042857Y-113689285D01*
X77042857Y-113939285D01*
X77007142Y-114082142D01*
X76935714Y-114153571D01*
X76864285Y-114189285D01*
X76721428Y-114189285D01*
X77292857Y-113439285D02*
X77757142Y-113439285D01*
X77507142Y-113725000D01*
X77614285Y-113725000D01*
X77685714Y-113760714D01*
X77721428Y-113796428D01*
X77757142Y-113867857D01*
X77757142Y-114046428D01*
X77721428Y-114117857D01*
X77685714Y-114153571D01*
X77614285Y-114189285D01*
X77400000Y-114189285D01*
X77328571Y-114153571D01*
X77292857Y-114117857D01*
X108728571Y-105510714D02*
X108657142Y-105475000D01*
X108585714Y-105403571D01*
X108478571Y-105296428D01*
X108407142Y-105260714D01*
X108335714Y-105260714D01*
X108371428Y-105439285D02*
X108300000Y-105403571D01*
X108228571Y-105332142D01*
X108192857Y-105189285D01*
X108192857Y-104939285D01*
X108228571Y-104796428D01*
X108300000Y-104725000D01*
X108371428Y-104689285D01*
X108514285Y-104689285D01*
X108585714Y-104725000D01*
X108657142Y-104796428D01*
X108692857Y-104939285D01*
X108692857Y-105189285D01*
X108657142Y-105332142D01*
X108585714Y-105403571D01*
X108514285Y-105439285D01*
X108371428Y-105439285D01*
X108978571Y-104760714D02*
X109014285Y-104725000D01*
X109085714Y-104689285D01*
X109264285Y-104689285D01*
X109335714Y-104725000D01*
X109371428Y-104760714D01*
X109407142Y-104832142D01*
X109407142Y-104903571D01*
X109371428Y-105010714D01*
X108942857Y-105439285D01*
X109407142Y-105439285D01*
X71078571Y-105500714D02*
X71007142Y-105465000D01*
X70935714Y-105393571D01*
X70828571Y-105286428D01*
X70757142Y-105250714D01*
X70685714Y-105250714D01*
X70721428Y-105429285D02*
X70650000Y-105393571D01*
X70578571Y-105322142D01*
X70542857Y-105179285D01*
X70542857Y-104929285D01*
X70578571Y-104786428D01*
X70650000Y-104715000D01*
X70721428Y-104679285D01*
X70864285Y-104679285D01*
X70935714Y-104715000D01*
X71007142Y-104786428D01*
X71042857Y-104929285D01*
X71042857Y-105179285D01*
X71007142Y-105322142D01*
X70935714Y-105393571D01*
X70864285Y-105429285D01*
X70721428Y-105429285D01*
X71757142Y-105429285D02*
X71328571Y-105429285D01*
X71542857Y-105429285D02*
X71542857Y-104679285D01*
X71471428Y-104786428D01*
X71400000Y-104857857D01*
X71328571Y-104893571D01*
X101050000Y-85589285D02*
X101050000Y-86125000D01*
X101014285Y-86232142D01*
X100942857Y-86303571D01*
X100835714Y-86339285D01*
X100764285Y-86339285D01*
X101728571Y-85839285D02*
X101728571Y-86339285D01*
X101550000Y-85553571D02*
X101371428Y-86089285D01*
X101835714Y-86089285D01*
X78350000Y-75389285D02*
X78350000Y-75925000D01*
X78314285Y-76032142D01*
X78242857Y-76103571D01*
X78135714Y-76139285D01*
X78064285Y-76139285D01*
X78635714Y-75389285D02*
X79100000Y-75389285D01*
X78850000Y-75675000D01*
X78957142Y-75675000D01*
X79028571Y-75710714D01*
X79064285Y-75746428D01*
X79100000Y-75817857D01*
X79100000Y-75996428D01*
X79064285Y-76067857D01*
X79028571Y-76103571D01*
X78957142Y-76139285D01*
X78742857Y-76139285D01*
X78671428Y-76103571D01*
X78635714Y-76067857D01*
X101150000Y-75389285D02*
X101150000Y-75925000D01*
X101114285Y-76032142D01*
X101042857Y-76103571D01*
X100935714Y-76139285D01*
X100864285Y-76139285D01*
X101471428Y-75460714D02*
X101507142Y-75425000D01*
X101578571Y-75389285D01*
X101757142Y-75389285D01*
X101828571Y-75425000D01*
X101864285Y-75460714D01*
X101900000Y-75532142D01*
X101900000Y-75603571D01*
X101864285Y-75710714D01*
X101435714Y-76139285D01*
X101900000Y-76139285D01*
X78350000Y-85589285D02*
X78350000Y-86125000D01*
X78314285Y-86232142D01*
X78242857Y-86303571D01*
X78135714Y-86339285D01*
X78064285Y-86339285D01*
X79100000Y-86339285D02*
X78671428Y-86339285D01*
X78885714Y-86339285D02*
X78885714Y-85589285D01*
X78814285Y-85696428D01*
X78742857Y-85767857D01*
X78671428Y-85803571D01*
X89089285Y-121339285D02*
X89089285Y-120589285D01*
X89267857Y-120589285D01*
X89375000Y-120625000D01*
X89446428Y-120696428D01*
X89482142Y-120767857D01*
X89517857Y-120910714D01*
X89517857Y-121017857D01*
X89482142Y-121160714D01*
X89446428Y-121232142D01*
X89375000Y-121303571D01*
X89267857Y-121339285D01*
X89089285Y-121339285D01*
X90232142Y-121339285D02*
X89803571Y-121339285D01*
X90017857Y-121339285D02*
X90017857Y-120589285D01*
X89946428Y-120696428D01*
X89875000Y-120767857D01*
X89803571Y-120803571D01*
X90517857Y-120660714D02*
X90553571Y-120625000D01*
X90625000Y-120589285D01*
X90803571Y-120589285D01*
X90875000Y-120625000D01*
X90910714Y-120660714D01*
X90946428Y-120732142D01*
X90946428Y-120803571D01*
X90910714Y-120910714D01*
X90482142Y-121339285D01*
X90946428Y-121339285D01*
X89089285Y-140139285D02*
X89089285Y-139389285D01*
X89267857Y-139389285D01*
X89375000Y-139425000D01*
X89446428Y-139496428D01*
X89482142Y-139567857D01*
X89517857Y-139710714D01*
X89517857Y-139817857D01*
X89482142Y-139960714D01*
X89446428Y-140032142D01*
X89375000Y-140103571D01*
X89267857Y-140139285D01*
X89089285Y-140139285D01*
X90232142Y-140139285D02*
X89803571Y-140139285D01*
X90017857Y-140139285D02*
X90017857Y-139389285D01*
X89946428Y-139496428D01*
X89875000Y-139567857D01*
X89803571Y-139603571D01*
X90946428Y-140139285D02*
X90517857Y-140139285D01*
X90732142Y-140139285D02*
X90732142Y-139389285D01*
X90660714Y-139496428D01*
X90589285Y-139567857D01*
X90517857Y-139603571D01*
X89089285Y-110539285D02*
X89089285Y-109789285D01*
X89267857Y-109789285D01*
X89375000Y-109825000D01*
X89446428Y-109896428D01*
X89482142Y-109967857D01*
X89517857Y-110110714D01*
X89517857Y-110217857D01*
X89482142Y-110360714D01*
X89446428Y-110432142D01*
X89375000Y-110503571D01*
X89267857Y-110539285D01*
X89089285Y-110539285D01*
X90232142Y-110539285D02*
X89803571Y-110539285D01*
X90017857Y-110539285D02*
X90017857Y-109789285D01*
X89946428Y-109896428D01*
X89875000Y-109967857D01*
X89803571Y-110003571D01*
X90696428Y-109789285D02*
X90767857Y-109789285D01*
X90839285Y-109825000D01*
X90875000Y-109860714D01*
X90910714Y-109932142D01*
X90946428Y-110075000D01*
X90946428Y-110253571D01*
X90910714Y-110396428D01*
X90875000Y-110467857D01*
X90839285Y-110503571D01*
X90767857Y-110539285D01*
X90696428Y-110539285D01*
X90625000Y-110503571D01*
X90589285Y-110467857D01*
X90553571Y-110396428D01*
X90517857Y-110253571D01*
X90517857Y-110075000D01*
X90553571Y-109932142D01*
X90589285Y-109860714D01*
X90625000Y-109825000D01*
X90696428Y-109789285D01*
X100646428Y-134339285D02*
X100646428Y-133589285D01*
X100825000Y-133589285D01*
X100932142Y-133625000D01*
X101003571Y-133696428D01*
X101039285Y-133767857D01*
X101075000Y-133910714D01*
X101075000Y-134017857D01*
X101039285Y-134160714D01*
X101003571Y-134232142D01*
X100932142Y-134303571D01*
X100825000Y-134339285D01*
X100646428Y-134339285D01*
X101432142Y-134339285D02*
X101575000Y-134339285D01*
X101646428Y-134303571D01*
X101682142Y-134267857D01*
X101753571Y-134160714D01*
X101789285Y-134017857D01*
X101789285Y-133732142D01*
X101753571Y-133660714D01*
X101717857Y-133625000D01*
X101646428Y-133589285D01*
X101503571Y-133589285D01*
X101432142Y-133625000D01*
X101396428Y-133660714D01*
X101360714Y-133732142D01*
X101360714Y-133910714D01*
X101396428Y-133982142D01*
X101432142Y-134017857D01*
X101503571Y-134053571D01*
X101646428Y-134053571D01*
X101717857Y-134017857D01*
X101753571Y-133982142D01*
X101789285Y-133910714D01*
X74246428Y-125339285D02*
X74246428Y-124589285D01*
X74425000Y-124589285D01*
X74532142Y-124625000D01*
X74603571Y-124696428D01*
X74639285Y-124767857D01*
X74675000Y-124910714D01*
X74675000Y-125017857D01*
X74639285Y-125160714D01*
X74603571Y-125232142D01*
X74532142Y-125303571D01*
X74425000Y-125339285D01*
X74246428Y-125339285D01*
X75103571Y-124910714D02*
X75032142Y-124875000D01*
X74996428Y-124839285D01*
X74960714Y-124767857D01*
X74960714Y-124732142D01*
X74996428Y-124660714D01*
X75032142Y-124625000D01*
X75103571Y-124589285D01*
X75246428Y-124589285D01*
X75317857Y-124625000D01*
X75353571Y-124660714D01*
X75389285Y-124732142D01*
X75389285Y-124767857D01*
X75353571Y-124839285D01*
X75317857Y-124875000D01*
X75246428Y-124910714D01*
X75103571Y-124910714D01*
X75032142Y-124946428D01*
X74996428Y-124982142D01*
X74960714Y-125053571D01*
X74960714Y-125196428D01*
X74996428Y-125267857D01*
X75032142Y-125303571D01*
X75103571Y-125339285D01*
X75246428Y-125339285D01*
X75317857Y-125303571D01*
X75353571Y-125267857D01*
X75389285Y-125196428D01*
X75389285Y-125053571D01*
X75353571Y-124982142D01*
X75317857Y-124946428D01*
X75246428Y-124910714D01*
X78646428Y-114939285D02*
X78646428Y-114189285D01*
X78825000Y-114189285D01*
X78932142Y-114225000D01*
X79003571Y-114296428D01*
X79039285Y-114367857D01*
X79075000Y-114510714D01*
X79075000Y-114617857D01*
X79039285Y-114760714D01*
X79003571Y-114832142D01*
X78932142Y-114903571D01*
X78825000Y-114939285D01*
X78646428Y-114939285D01*
X79325000Y-114189285D02*
X79825000Y-114189285D01*
X79503571Y-114939285D01*
X104646428Y-125339285D02*
X104646428Y-124589285D01*
X104825000Y-124589285D01*
X104932142Y-124625000D01*
X105003571Y-124696428D01*
X105039285Y-124767857D01*
X105075000Y-124910714D01*
X105075000Y-125017857D01*
X105039285Y-125160714D01*
X105003571Y-125232142D01*
X104932142Y-125303571D01*
X104825000Y-125339285D01*
X104646428Y-125339285D01*
X105717857Y-124589285D02*
X105575000Y-124589285D01*
X105503571Y-124625000D01*
X105467857Y-124660714D01*
X105396428Y-124767857D01*
X105360714Y-124910714D01*
X105360714Y-125196428D01*
X105396428Y-125267857D01*
X105432142Y-125303571D01*
X105503571Y-125339285D01*
X105646428Y-125339285D01*
X105717857Y-125303571D01*
X105753571Y-125267857D01*
X105789285Y-125196428D01*
X105789285Y-125017857D01*
X105753571Y-124946428D01*
X105717857Y-124910714D01*
X105646428Y-124875000D01*
X105503571Y-124875000D01*
X105432142Y-124910714D01*
X105396428Y-124946428D01*
X105360714Y-125017857D01*
X100446428Y-114839284D02*
X100446428Y-114089284D01*
X100625000Y-114089284D01*
X100732142Y-114124999D01*
X100803571Y-114196427D01*
X100839285Y-114267856D01*
X100875000Y-114410713D01*
X100875000Y-114517856D01*
X100839285Y-114660713D01*
X100803571Y-114732141D01*
X100732142Y-114803570D01*
X100625000Y-114839284D01*
X100446428Y-114839284D01*
X101553571Y-114089284D02*
X101196428Y-114089284D01*
X101160714Y-114446427D01*
X101196428Y-114410713D01*
X101267857Y-114374999D01*
X101446428Y-114374999D01*
X101517857Y-114410713D01*
X101553571Y-114446427D01*
X101589285Y-114517856D01*
X101589285Y-114696427D01*
X101553571Y-114767856D01*
X101517857Y-114803570D01*
X101446428Y-114839284D01*
X101267857Y-114839284D01*
X101196428Y-114803570D01*
X101160714Y-114767856D01*
X78246428Y-134339285D02*
X78246428Y-133589285D01*
X78425000Y-133589285D01*
X78532142Y-133625000D01*
X78603571Y-133696428D01*
X78639285Y-133767857D01*
X78675000Y-133910714D01*
X78675000Y-134017857D01*
X78639285Y-134160714D01*
X78603571Y-134232142D01*
X78532142Y-134303571D01*
X78425000Y-134339285D01*
X78246428Y-134339285D01*
X79317857Y-133839285D02*
X79317857Y-134339285D01*
X79139285Y-133553571D02*
X78960714Y-134089285D01*
X79425000Y-134089285D01*
X104646428Y-105339285D02*
X104646428Y-104589285D01*
X104825000Y-104589285D01*
X104932142Y-104625000D01*
X105003571Y-104696428D01*
X105039285Y-104767857D01*
X105075000Y-104910714D01*
X105075000Y-105017857D01*
X105039285Y-105160714D01*
X105003571Y-105232142D01*
X104932142Y-105303571D01*
X104825000Y-105339285D01*
X104646428Y-105339285D01*
X105360714Y-104660714D02*
X105396428Y-104625000D01*
X105467857Y-104589285D01*
X105646428Y-104589285D01*
X105717857Y-104625000D01*
X105753571Y-104660714D01*
X105789285Y-104732142D01*
X105789285Y-104803571D01*
X105753571Y-104910714D01*
X105325000Y-105339285D01*
X105789285Y-105339285D01*
X74096428Y-105189285D02*
X74096428Y-104439285D01*
X74275000Y-104439285D01*
X74382142Y-104475000D01*
X74453571Y-104546428D01*
X74489285Y-104617857D01*
X74525000Y-104760714D01*
X74525000Y-104867857D01*
X74489285Y-105010714D01*
X74453571Y-105082142D01*
X74382142Y-105153571D01*
X74275000Y-105189285D01*
X74096428Y-105189285D01*
X75239285Y-105189285D02*
X74810714Y-105189285D01*
X75025000Y-105189285D02*
X75025000Y-104439285D01*
X74953571Y-104546428D01*
X74882142Y-104617857D01*
X74810714Y-104653571D01*
X98617857Y-90367857D02*
X98582142Y-90403571D01*
X98475000Y-90439285D01*
X98403571Y-90439285D01*
X98296428Y-90403571D01*
X98225000Y-90332142D01*
X98189285Y-90260714D01*
X98153571Y-90117857D01*
X98153571Y-90010714D01*
X98189285Y-89867857D01*
X98225000Y-89796428D01*
X98296428Y-89725000D01*
X98403571Y-89689285D01*
X98475000Y-89689285D01*
X98582142Y-89725000D01*
X98617857Y-89760714D01*
X99332142Y-90439285D02*
X98903571Y-90439285D01*
X99117857Y-90439285D02*
X99117857Y-89689285D01*
X99046428Y-89796428D01*
X98975000Y-89867857D01*
X98903571Y-89903571D01*
X100046428Y-90439285D02*
X99617857Y-90439285D01*
X99832142Y-90439285D02*
X99832142Y-89689285D01*
X99760714Y-89796428D01*
X99689285Y-89867857D01*
X99617857Y-89903571D01*
X86517857Y-129067857D02*
X86482142Y-129103571D01*
X86375000Y-129139285D01*
X86303571Y-129139285D01*
X86196428Y-129103571D01*
X86125000Y-129032142D01*
X86089285Y-128960714D01*
X86053571Y-128817857D01*
X86053571Y-128710714D01*
X86089285Y-128567857D01*
X86125000Y-128496428D01*
X86196428Y-128425000D01*
X86303571Y-128389285D01*
X86375000Y-128389285D01*
X86482142Y-128425000D01*
X86517857Y-128460714D01*
X87232142Y-129139285D02*
X86803571Y-129139285D01*
X87017857Y-129139285D02*
X87017857Y-128389285D01*
X86946428Y-128496428D01*
X86875000Y-128567857D01*
X86803571Y-128603571D01*
X87696428Y-128389285D02*
X87767857Y-128389285D01*
X87839285Y-128425000D01*
X87875000Y-128460714D01*
X87910714Y-128532142D01*
X87946428Y-128675000D01*
X87946428Y-128853571D01*
X87910714Y-128996428D01*
X87875000Y-129067857D01*
X87839285Y-129103571D01*
X87767857Y-129139285D01*
X87696428Y-129139285D01*
X87625000Y-129103571D01*
X87589285Y-129067857D01*
X87553571Y-128996428D01*
X87517857Y-128853571D01*
X87517857Y-128675000D01*
X87553571Y-128532142D01*
X87589285Y-128460714D01*
X87625000Y-128425000D01*
X87696428Y-128389285D01*
X84125000Y-97867857D02*
X84089285Y-97903571D01*
X83982142Y-97939285D01*
X83910714Y-97939285D01*
X83803571Y-97903571D01*
X83732142Y-97832142D01*
X83696428Y-97760714D01*
X83660714Y-97617857D01*
X83660714Y-97510714D01*
X83696428Y-97367857D01*
X83732142Y-97296428D01*
X83803571Y-97225000D01*
X83910714Y-97189285D01*
X83982142Y-97189285D01*
X84089285Y-97225000D01*
X84125000Y-97260714D01*
X84482142Y-97939285D02*
X84625000Y-97939285D01*
X84696428Y-97903571D01*
X84732142Y-97867857D01*
X84803571Y-97760714D01*
X84839285Y-97617857D01*
X84839285Y-97332142D01*
X84803571Y-97260714D01*
X84767857Y-97225000D01*
X84696428Y-97189285D01*
X84553571Y-97189285D01*
X84482142Y-97225000D01*
X84446428Y-97260714D01*
X84410714Y-97332142D01*
X84410714Y-97510714D01*
X84446428Y-97582142D01*
X84482142Y-97617857D01*
X84553571Y-97653571D01*
X84696428Y-97653571D01*
X84767857Y-97617857D01*
X84803571Y-97582142D01*
X84839285Y-97510714D01*
X80125000Y-101517857D02*
X80089285Y-101553571D01*
X79982142Y-101589285D01*
X79910714Y-101589285D01*
X79803571Y-101553571D01*
X79732142Y-101482142D01*
X79696428Y-101410714D01*
X79660714Y-101267857D01*
X79660714Y-101160714D01*
X79696428Y-101017857D01*
X79732142Y-100946428D01*
X79803571Y-100875000D01*
X79910714Y-100839285D01*
X79982142Y-100839285D01*
X80089285Y-100875000D01*
X80125000Y-100910714D01*
X80553571Y-101160714D02*
X80482142Y-101125000D01*
X80446428Y-101089285D01*
X80410714Y-101017857D01*
X80410714Y-100982142D01*
X80446428Y-100910714D01*
X80482142Y-100875000D01*
X80553571Y-100839285D01*
X80696428Y-100839285D01*
X80767857Y-100875000D01*
X80803571Y-100910714D01*
X80839285Y-100982142D01*
X80839285Y-101017857D01*
X80803571Y-101089285D01*
X80767857Y-101125000D01*
X80696428Y-101160714D01*
X80553571Y-101160714D01*
X80482142Y-101196428D01*
X80446428Y-101232142D01*
X80410714Y-101303571D01*
X80410714Y-101446428D01*
X80446428Y-101517857D01*
X80482142Y-101553571D01*
X80553571Y-101589285D01*
X80696428Y-101589285D01*
X80767857Y-101553571D01*
X80803571Y-101517857D01*
X80839285Y-101446428D01*
X80839285Y-101303571D01*
X80803571Y-101232142D01*
X80767857Y-101196428D01*
X80696428Y-101160714D01*
X89475000Y-130567857D02*
X89439285Y-130603571D01*
X89332142Y-130639285D01*
X89260714Y-130639285D01*
X89153571Y-130603571D01*
X89082142Y-130532142D01*
X89046428Y-130460714D01*
X89010714Y-130317857D01*
X89010714Y-130210714D01*
X89046428Y-130067857D01*
X89082142Y-129996428D01*
X89153571Y-129925000D01*
X89260714Y-129889285D01*
X89332142Y-129889285D01*
X89439285Y-129925000D01*
X89475000Y-129960714D01*
X89725000Y-129889285D02*
X90225000Y-129889285D01*
X89903571Y-130639285D01*
X91675000Y-130867857D02*
X91639285Y-130903571D01*
X91532142Y-130939285D01*
X91460714Y-130939285D01*
X91353571Y-130903571D01*
X91282142Y-130832142D01*
X91246428Y-130760714D01*
X91210714Y-130617857D01*
X91210714Y-130510714D01*
X91246428Y-130367857D01*
X91282142Y-130296428D01*
X91353571Y-130225000D01*
X91460714Y-130189285D01*
X91532142Y-130189285D01*
X91639285Y-130225000D01*
X91675000Y-130260714D01*
X92317857Y-130189285D02*
X92175000Y-130189285D01*
X92103571Y-130225000D01*
X92067857Y-130260714D01*
X91996428Y-130367857D01*
X91960714Y-130510714D01*
X91960714Y-130796428D01*
X91996428Y-130867857D01*
X92032142Y-130903571D01*
X92103571Y-130939285D01*
X92246428Y-130939285D01*
X92317857Y-130903571D01*
X92353571Y-130867857D01*
X92389285Y-130796428D01*
X92389285Y-130617857D01*
X92353571Y-130546428D01*
X92317857Y-130510714D01*
X92246428Y-130475000D01*
X92103571Y-130475000D01*
X92032142Y-130510714D01*
X91996428Y-130546428D01*
X91960714Y-130617857D01*
X105175000Y-113667857D02*
X105139285Y-113703571D01*
X105032142Y-113739285D01*
X104960714Y-113739285D01*
X104853571Y-113703571D01*
X104782142Y-113632142D01*
X104746428Y-113560714D01*
X104710714Y-113417857D01*
X104710714Y-113310714D01*
X104746428Y-113167857D01*
X104782142Y-113096428D01*
X104853571Y-113025000D01*
X104960714Y-112989285D01*
X105032142Y-112989285D01*
X105139285Y-113025000D01*
X105175000Y-113060714D01*
X105853571Y-112989285D02*
X105496428Y-112989285D01*
X105460714Y-113346428D01*
X105496428Y-113310714D01*
X105567857Y-113275000D01*
X105746428Y-113275000D01*
X105817857Y-113310714D01*
X105853571Y-113346428D01*
X105889285Y-113417857D01*
X105889285Y-113596428D01*
X105853571Y-113667857D01*
X105817857Y-113703571D01*
X105746428Y-113739285D01*
X105567857Y-113739285D01*
X105496428Y-113703571D01*
X105460714Y-113667857D01*
X74525000Y-113617857D02*
X74489285Y-113653571D01*
X74382142Y-113689285D01*
X74310714Y-113689285D01*
X74203571Y-113653571D01*
X74132142Y-113582142D01*
X74096428Y-113510714D01*
X74060714Y-113367857D01*
X74060714Y-113260714D01*
X74096428Y-113117857D01*
X74132142Y-113046428D01*
X74203571Y-112975000D01*
X74310714Y-112939285D01*
X74382142Y-112939285D01*
X74489285Y-112975000D01*
X74525000Y-113010714D01*
X75167857Y-113189285D02*
X75167857Y-113689285D01*
X74989285Y-112903571D02*
X74810714Y-113439285D01*
X75275000Y-113439285D01*
X95150000Y-81117857D02*
X95114285Y-81153571D01*
X95007142Y-81189285D01*
X94935714Y-81189285D01*
X94828571Y-81153571D01*
X94757142Y-81082142D01*
X94721428Y-81010714D01*
X94685714Y-80867857D01*
X94685714Y-80760714D01*
X94721428Y-80617857D01*
X94757142Y-80546428D01*
X94828571Y-80475000D01*
X94935714Y-80439285D01*
X95007142Y-80439285D01*
X95114285Y-80475000D01*
X95150000Y-80510714D01*
X95400000Y-80439285D02*
X95864285Y-80439285D01*
X95614285Y-80725000D01*
X95721428Y-80725000D01*
X95792857Y-80760714D01*
X95828571Y-80796428D01*
X95864285Y-80867857D01*
X95864285Y-81046428D01*
X95828571Y-81117857D01*
X95792857Y-81153571D01*
X95721428Y-81189285D01*
X95507142Y-81189285D01*
X95435714Y-81153571D01*
X95400000Y-81117857D01*
X95175000Y-84367857D02*
X95139285Y-84403571D01*
X95032142Y-84439285D01*
X94960714Y-84439285D01*
X94853571Y-84403571D01*
X94782142Y-84332142D01*
X94746428Y-84260714D01*
X94710714Y-84117857D01*
X94710714Y-84010714D01*
X94746428Y-83867857D01*
X94782142Y-83796428D01*
X94853571Y-83725000D01*
X94960714Y-83689285D01*
X95032142Y-83689285D01*
X95139285Y-83725000D01*
X95175000Y-83760714D01*
X95889285Y-84439285D02*
X95460714Y-84439285D01*
X95675000Y-84439285D02*
X95675000Y-83689285D01*
X95603571Y-83796428D01*
X95532142Y-83867857D01*
X95460714Y-83903571D01*
M02*
