G04 #@! TF.GenerationSoftware,KiCad,Pcbnew,(5.1.2)-2*
G04 #@! TF.CreationDate,2022-02-14T19:05:22-05:00*
G04 #@! TF.ProjectId,FWA_2022_Compass_Badge_LWL-003-E10,4657415f-3230-4323-925f-436f6d706173,B*
G04 #@! TF.SameCoordinates,Original*
G04 #@! TF.FileFunction,Paste,Top*
G04 #@! TF.FilePolarity,Positive*
%FSLAX46Y46*%
G04 Gerber Fmt 4.6, Leading zero omitted, Abs format (unit mm)*
G04 Created by KiCad (PCBNEW (5.1.2)-2) date 2022-02-14 19:05:22*
%MOMM*%
%LPD*%
G04 APERTURE LIST*
%ADD10R,3.600000X3.000000*%
%ADD11R,1.300000X0.600000*%
%ADD12R,0.300000X0.490000*%
%ADD13R,0.375000X0.375000*%
%ADD14R,0.490000X0.300000*%
%ADD15C,0.100000*%
%ADD16C,0.875000*%
%ADD17R,0.800000X0.800000*%
%ADD18C,1.250000*%
%ADD19C,0.590000*%
%ADD20C,0.600000*%
%ADD21R,0.600000X2.000000*%
%ADD22R,0.600000X1.300000*%
%ADD23R,0.550000X0.400000*%
%ADD24R,0.700000X0.500000*%
%ADD25C,0.800000*%
%ADD26C,0.975000*%
G04 APERTURE END LIST*
D10*
X90000000Y-53500000D03*
X90000000Y-74900000D03*
D11*
X95550000Y-77850000D03*
X97650000Y-76900000D03*
X97650000Y-78800000D03*
D12*
X90250000Y-125770000D03*
X89750000Y-125770000D03*
D13*
X90762500Y-125750000D03*
D14*
X90770000Y-125250000D03*
X90770000Y-124750000D03*
D13*
X90762500Y-124250000D03*
D12*
X90250000Y-124230000D03*
X89750000Y-124230000D03*
D13*
X89237500Y-125750000D03*
X89237500Y-124250000D03*
D14*
X89230000Y-124750000D03*
X89230000Y-125250000D03*
D15*
G36*
X107377691Y-107731053D02*
G01*
X107398926Y-107734203D01*
X107419750Y-107739419D01*
X107439962Y-107746651D01*
X107459368Y-107755830D01*
X107477781Y-107766866D01*
X107495024Y-107779654D01*
X107510930Y-107794070D01*
X107525346Y-107809976D01*
X107538134Y-107827219D01*
X107549170Y-107845632D01*
X107558349Y-107865038D01*
X107565581Y-107885250D01*
X107570797Y-107906074D01*
X107573947Y-107927309D01*
X107575000Y-107948750D01*
X107575000Y-108386250D01*
X107573947Y-108407691D01*
X107570797Y-108428926D01*
X107565581Y-108449750D01*
X107558349Y-108469962D01*
X107549170Y-108489368D01*
X107538134Y-108507781D01*
X107525346Y-108525024D01*
X107510930Y-108540930D01*
X107495024Y-108555346D01*
X107477781Y-108568134D01*
X107459368Y-108579170D01*
X107439962Y-108588349D01*
X107419750Y-108595581D01*
X107398926Y-108600797D01*
X107377691Y-108603947D01*
X107356250Y-108605000D01*
X106843750Y-108605000D01*
X106822309Y-108603947D01*
X106801074Y-108600797D01*
X106780250Y-108595581D01*
X106760038Y-108588349D01*
X106740632Y-108579170D01*
X106722219Y-108568134D01*
X106704976Y-108555346D01*
X106689070Y-108540930D01*
X106674654Y-108525024D01*
X106661866Y-108507781D01*
X106650830Y-108489368D01*
X106641651Y-108469962D01*
X106634419Y-108449750D01*
X106629203Y-108428926D01*
X106626053Y-108407691D01*
X106625000Y-108386250D01*
X106625000Y-107948750D01*
X106626053Y-107927309D01*
X106629203Y-107906074D01*
X106634419Y-107885250D01*
X106641651Y-107865038D01*
X106650830Y-107845632D01*
X106661866Y-107827219D01*
X106674654Y-107809976D01*
X106689070Y-107794070D01*
X106704976Y-107779654D01*
X106722219Y-107766866D01*
X106740632Y-107755830D01*
X106760038Y-107746651D01*
X106780250Y-107739419D01*
X106801074Y-107734203D01*
X106822309Y-107731053D01*
X106843750Y-107730000D01*
X107356250Y-107730000D01*
X107377691Y-107731053D01*
X107377691Y-107731053D01*
G37*
D16*
X107100000Y-108167500D03*
D15*
G36*
X107377691Y-106156053D02*
G01*
X107398926Y-106159203D01*
X107419750Y-106164419D01*
X107439962Y-106171651D01*
X107459368Y-106180830D01*
X107477781Y-106191866D01*
X107495024Y-106204654D01*
X107510930Y-106219070D01*
X107525346Y-106234976D01*
X107538134Y-106252219D01*
X107549170Y-106270632D01*
X107558349Y-106290038D01*
X107565581Y-106310250D01*
X107570797Y-106331074D01*
X107573947Y-106352309D01*
X107575000Y-106373750D01*
X107575000Y-106811250D01*
X107573947Y-106832691D01*
X107570797Y-106853926D01*
X107565581Y-106874750D01*
X107558349Y-106894962D01*
X107549170Y-106914368D01*
X107538134Y-106932781D01*
X107525346Y-106950024D01*
X107510930Y-106965930D01*
X107495024Y-106980346D01*
X107477781Y-106993134D01*
X107459368Y-107004170D01*
X107439962Y-107013349D01*
X107419750Y-107020581D01*
X107398926Y-107025797D01*
X107377691Y-107028947D01*
X107356250Y-107030000D01*
X106843750Y-107030000D01*
X106822309Y-107028947D01*
X106801074Y-107025797D01*
X106780250Y-107020581D01*
X106760038Y-107013349D01*
X106740632Y-107004170D01*
X106722219Y-106993134D01*
X106704976Y-106980346D01*
X106689070Y-106965930D01*
X106674654Y-106950024D01*
X106661866Y-106932781D01*
X106650830Y-106914368D01*
X106641651Y-106894962D01*
X106634419Y-106874750D01*
X106629203Y-106853926D01*
X106626053Y-106832691D01*
X106625000Y-106811250D01*
X106625000Y-106373750D01*
X106626053Y-106352309D01*
X106629203Y-106331074D01*
X106634419Y-106310250D01*
X106641651Y-106290038D01*
X106650830Y-106270632D01*
X106661866Y-106252219D01*
X106674654Y-106234976D01*
X106689070Y-106219070D01*
X106704976Y-106204654D01*
X106722219Y-106191866D01*
X106740632Y-106180830D01*
X106760038Y-106171651D01*
X106780250Y-106164419D01*
X106801074Y-106159203D01*
X106822309Y-106156053D01*
X106843750Y-106155000D01*
X107356250Y-106155000D01*
X107377691Y-106156053D01*
X107377691Y-106156053D01*
G37*
D16*
X107100000Y-106592500D03*
D15*
G36*
X73167691Y-107703553D02*
G01*
X73188926Y-107706703D01*
X73209750Y-107711919D01*
X73229962Y-107719151D01*
X73249368Y-107728330D01*
X73267781Y-107739366D01*
X73285024Y-107752154D01*
X73300930Y-107766570D01*
X73315346Y-107782476D01*
X73328134Y-107799719D01*
X73339170Y-107818132D01*
X73348349Y-107837538D01*
X73355581Y-107857750D01*
X73360797Y-107878574D01*
X73363947Y-107899809D01*
X73365000Y-107921250D01*
X73365000Y-108358750D01*
X73363947Y-108380191D01*
X73360797Y-108401426D01*
X73355581Y-108422250D01*
X73348349Y-108442462D01*
X73339170Y-108461868D01*
X73328134Y-108480281D01*
X73315346Y-108497524D01*
X73300930Y-108513430D01*
X73285024Y-108527846D01*
X73267781Y-108540634D01*
X73249368Y-108551670D01*
X73229962Y-108560849D01*
X73209750Y-108568081D01*
X73188926Y-108573297D01*
X73167691Y-108576447D01*
X73146250Y-108577500D01*
X72633750Y-108577500D01*
X72612309Y-108576447D01*
X72591074Y-108573297D01*
X72570250Y-108568081D01*
X72550038Y-108560849D01*
X72530632Y-108551670D01*
X72512219Y-108540634D01*
X72494976Y-108527846D01*
X72479070Y-108513430D01*
X72464654Y-108497524D01*
X72451866Y-108480281D01*
X72440830Y-108461868D01*
X72431651Y-108442462D01*
X72424419Y-108422250D01*
X72419203Y-108401426D01*
X72416053Y-108380191D01*
X72415000Y-108358750D01*
X72415000Y-107921250D01*
X72416053Y-107899809D01*
X72419203Y-107878574D01*
X72424419Y-107857750D01*
X72431651Y-107837538D01*
X72440830Y-107818132D01*
X72451866Y-107799719D01*
X72464654Y-107782476D01*
X72479070Y-107766570D01*
X72494976Y-107752154D01*
X72512219Y-107739366D01*
X72530632Y-107728330D01*
X72550038Y-107719151D01*
X72570250Y-107711919D01*
X72591074Y-107706703D01*
X72612309Y-107703553D01*
X72633750Y-107702500D01*
X73146250Y-107702500D01*
X73167691Y-107703553D01*
X73167691Y-107703553D01*
G37*
D16*
X72890000Y-108140000D03*
D15*
G36*
X73167691Y-106128553D02*
G01*
X73188926Y-106131703D01*
X73209750Y-106136919D01*
X73229962Y-106144151D01*
X73249368Y-106153330D01*
X73267781Y-106164366D01*
X73285024Y-106177154D01*
X73300930Y-106191570D01*
X73315346Y-106207476D01*
X73328134Y-106224719D01*
X73339170Y-106243132D01*
X73348349Y-106262538D01*
X73355581Y-106282750D01*
X73360797Y-106303574D01*
X73363947Y-106324809D01*
X73365000Y-106346250D01*
X73365000Y-106783750D01*
X73363947Y-106805191D01*
X73360797Y-106826426D01*
X73355581Y-106847250D01*
X73348349Y-106867462D01*
X73339170Y-106886868D01*
X73328134Y-106905281D01*
X73315346Y-106922524D01*
X73300930Y-106938430D01*
X73285024Y-106952846D01*
X73267781Y-106965634D01*
X73249368Y-106976670D01*
X73229962Y-106985849D01*
X73209750Y-106993081D01*
X73188926Y-106998297D01*
X73167691Y-107001447D01*
X73146250Y-107002500D01*
X72633750Y-107002500D01*
X72612309Y-107001447D01*
X72591074Y-106998297D01*
X72570250Y-106993081D01*
X72550038Y-106985849D01*
X72530632Y-106976670D01*
X72512219Y-106965634D01*
X72494976Y-106952846D01*
X72479070Y-106938430D01*
X72464654Y-106922524D01*
X72451866Y-106905281D01*
X72440830Y-106886868D01*
X72431651Y-106867462D01*
X72424419Y-106847250D01*
X72419203Y-106826426D01*
X72416053Y-106805191D01*
X72415000Y-106783750D01*
X72415000Y-106346250D01*
X72416053Y-106324809D01*
X72419203Y-106303574D01*
X72424419Y-106282750D01*
X72431651Y-106262538D01*
X72440830Y-106243132D01*
X72451866Y-106224719D01*
X72464654Y-106207476D01*
X72479070Y-106191570D01*
X72494976Y-106177154D01*
X72512219Y-106164366D01*
X72530632Y-106153330D01*
X72550038Y-106144151D01*
X72570250Y-106136919D01*
X72591074Y-106131703D01*
X72612309Y-106128553D01*
X72633750Y-106127500D01*
X73146250Y-106127500D01*
X73167691Y-106128553D01*
X73167691Y-106128553D01*
G37*
D16*
X72890000Y-106565000D03*
D15*
G36*
X91877691Y-105851053D02*
G01*
X91898926Y-105854203D01*
X91919750Y-105859419D01*
X91939962Y-105866651D01*
X91959368Y-105875830D01*
X91977781Y-105886866D01*
X91995024Y-105899654D01*
X92010930Y-105914070D01*
X92025346Y-105929976D01*
X92038134Y-105947219D01*
X92049170Y-105965632D01*
X92058349Y-105985038D01*
X92065581Y-106005250D01*
X92070797Y-106026074D01*
X92073947Y-106047309D01*
X92075000Y-106068750D01*
X92075000Y-106506250D01*
X92073947Y-106527691D01*
X92070797Y-106548926D01*
X92065581Y-106569750D01*
X92058349Y-106589962D01*
X92049170Y-106609368D01*
X92038134Y-106627781D01*
X92025346Y-106645024D01*
X92010930Y-106660930D01*
X91995024Y-106675346D01*
X91977781Y-106688134D01*
X91959368Y-106699170D01*
X91939962Y-106708349D01*
X91919750Y-106715581D01*
X91898926Y-106720797D01*
X91877691Y-106723947D01*
X91856250Y-106725000D01*
X91343750Y-106725000D01*
X91322309Y-106723947D01*
X91301074Y-106720797D01*
X91280250Y-106715581D01*
X91260038Y-106708349D01*
X91240632Y-106699170D01*
X91222219Y-106688134D01*
X91204976Y-106675346D01*
X91189070Y-106660930D01*
X91174654Y-106645024D01*
X91161866Y-106627781D01*
X91150830Y-106609368D01*
X91141651Y-106589962D01*
X91134419Y-106569750D01*
X91129203Y-106548926D01*
X91126053Y-106527691D01*
X91125000Y-106506250D01*
X91125000Y-106068750D01*
X91126053Y-106047309D01*
X91129203Y-106026074D01*
X91134419Y-106005250D01*
X91141651Y-105985038D01*
X91150830Y-105965632D01*
X91161866Y-105947219D01*
X91174654Y-105929976D01*
X91189070Y-105914070D01*
X91204976Y-105899654D01*
X91222219Y-105886866D01*
X91240632Y-105875830D01*
X91260038Y-105866651D01*
X91280250Y-105859419D01*
X91301074Y-105854203D01*
X91322309Y-105851053D01*
X91343750Y-105850000D01*
X91856250Y-105850000D01*
X91877691Y-105851053D01*
X91877691Y-105851053D01*
G37*
D16*
X91600000Y-106287500D03*
D15*
G36*
X91877691Y-104276053D02*
G01*
X91898926Y-104279203D01*
X91919750Y-104284419D01*
X91939962Y-104291651D01*
X91959368Y-104300830D01*
X91977781Y-104311866D01*
X91995024Y-104324654D01*
X92010930Y-104339070D01*
X92025346Y-104354976D01*
X92038134Y-104372219D01*
X92049170Y-104390632D01*
X92058349Y-104410038D01*
X92065581Y-104430250D01*
X92070797Y-104451074D01*
X92073947Y-104472309D01*
X92075000Y-104493750D01*
X92075000Y-104931250D01*
X92073947Y-104952691D01*
X92070797Y-104973926D01*
X92065581Y-104994750D01*
X92058349Y-105014962D01*
X92049170Y-105034368D01*
X92038134Y-105052781D01*
X92025346Y-105070024D01*
X92010930Y-105085930D01*
X91995024Y-105100346D01*
X91977781Y-105113134D01*
X91959368Y-105124170D01*
X91939962Y-105133349D01*
X91919750Y-105140581D01*
X91898926Y-105145797D01*
X91877691Y-105148947D01*
X91856250Y-105150000D01*
X91343750Y-105150000D01*
X91322309Y-105148947D01*
X91301074Y-105145797D01*
X91280250Y-105140581D01*
X91260038Y-105133349D01*
X91240632Y-105124170D01*
X91222219Y-105113134D01*
X91204976Y-105100346D01*
X91189070Y-105085930D01*
X91174654Y-105070024D01*
X91161866Y-105052781D01*
X91150830Y-105034368D01*
X91141651Y-105014962D01*
X91134419Y-104994750D01*
X91129203Y-104973926D01*
X91126053Y-104952691D01*
X91125000Y-104931250D01*
X91125000Y-104493750D01*
X91126053Y-104472309D01*
X91129203Y-104451074D01*
X91134419Y-104430250D01*
X91141651Y-104410038D01*
X91150830Y-104390632D01*
X91161866Y-104372219D01*
X91174654Y-104354976D01*
X91189070Y-104339070D01*
X91204976Y-104324654D01*
X91222219Y-104311866D01*
X91240632Y-104300830D01*
X91260038Y-104291651D01*
X91280250Y-104284419D01*
X91301074Y-104279203D01*
X91322309Y-104276053D01*
X91343750Y-104275000D01*
X91856250Y-104275000D01*
X91877691Y-104276053D01*
X91877691Y-104276053D01*
G37*
D16*
X91600000Y-104712500D03*
D15*
G36*
X90377691Y-105851053D02*
G01*
X90398926Y-105854203D01*
X90419750Y-105859419D01*
X90439962Y-105866651D01*
X90459368Y-105875830D01*
X90477781Y-105886866D01*
X90495024Y-105899654D01*
X90510930Y-105914070D01*
X90525346Y-105929976D01*
X90538134Y-105947219D01*
X90549170Y-105965632D01*
X90558349Y-105985038D01*
X90565581Y-106005250D01*
X90570797Y-106026074D01*
X90573947Y-106047309D01*
X90575000Y-106068750D01*
X90575000Y-106506250D01*
X90573947Y-106527691D01*
X90570797Y-106548926D01*
X90565581Y-106569750D01*
X90558349Y-106589962D01*
X90549170Y-106609368D01*
X90538134Y-106627781D01*
X90525346Y-106645024D01*
X90510930Y-106660930D01*
X90495024Y-106675346D01*
X90477781Y-106688134D01*
X90459368Y-106699170D01*
X90439962Y-106708349D01*
X90419750Y-106715581D01*
X90398926Y-106720797D01*
X90377691Y-106723947D01*
X90356250Y-106725000D01*
X89843750Y-106725000D01*
X89822309Y-106723947D01*
X89801074Y-106720797D01*
X89780250Y-106715581D01*
X89760038Y-106708349D01*
X89740632Y-106699170D01*
X89722219Y-106688134D01*
X89704976Y-106675346D01*
X89689070Y-106660930D01*
X89674654Y-106645024D01*
X89661866Y-106627781D01*
X89650830Y-106609368D01*
X89641651Y-106589962D01*
X89634419Y-106569750D01*
X89629203Y-106548926D01*
X89626053Y-106527691D01*
X89625000Y-106506250D01*
X89625000Y-106068750D01*
X89626053Y-106047309D01*
X89629203Y-106026074D01*
X89634419Y-106005250D01*
X89641651Y-105985038D01*
X89650830Y-105965632D01*
X89661866Y-105947219D01*
X89674654Y-105929976D01*
X89689070Y-105914070D01*
X89704976Y-105899654D01*
X89722219Y-105886866D01*
X89740632Y-105875830D01*
X89760038Y-105866651D01*
X89780250Y-105859419D01*
X89801074Y-105854203D01*
X89822309Y-105851053D01*
X89843750Y-105850000D01*
X90356250Y-105850000D01*
X90377691Y-105851053D01*
X90377691Y-105851053D01*
G37*
D16*
X90100000Y-106287500D03*
D15*
G36*
X90377691Y-104276053D02*
G01*
X90398926Y-104279203D01*
X90419750Y-104284419D01*
X90439962Y-104291651D01*
X90459368Y-104300830D01*
X90477781Y-104311866D01*
X90495024Y-104324654D01*
X90510930Y-104339070D01*
X90525346Y-104354976D01*
X90538134Y-104372219D01*
X90549170Y-104390632D01*
X90558349Y-104410038D01*
X90565581Y-104430250D01*
X90570797Y-104451074D01*
X90573947Y-104472309D01*
X90575000Y-104493750D01*
X90575000Y-104931250D01*
X90573947Y-104952691D01*
X90570797Y-104973926D01*
X90565581Y-104994750D01*
X90558349Y-105014962D01*
X90549170Y-105034368D01*
X90538134Y-105052781D01*
X90525346Y-105070024D01*
X90510930Y-105085930D01*
X90495024Y-105100346D01*
X90477781Y-105113134D01*
X90459368Y-105124170D01*
X90439962Y-105133349D01*
X90419750Y-105140581D01*
X90398926Y-105145797D01*
X90377691Y-105148947D01*
X90356250Y-105150000D01*
X89843750Y-105150000D01*
X89822309Y-105148947D01*
X89801074Y-105145797D01*
X89780250Y-105140581D01*
X89760038Y-105133349D01*
X89740632Y-105124170D01*
X89722219Y-105113134D01*
X89704976Y-105100346D01*
X89689070Y-105085930D01*
X89674654Y-105070024D01*
X89661866Y-105052781D01*
X89650830Y-105034368D01*
X89641651Y-105014962D01*
X89634419Y-104994750D01*
X89629203Y-104973926D01*
X89626053Y-104952691D01*
X89625000Y-104931250D01*
X89625000Y-104493750D01*
X89626053Y-104472309D01*
X89629203Y-104451074D01*
X89634419Y-104430250D01*
X89641651Y-104410038D01*
X89650830Y-104390632D01*
X89661866Y-104372219D01*
X89674654Y-104354976D01*
X89689070Y-104339070D01*
X89704976Y-104324654D01*
X89722219Y-104311866D01*
X89740632Y-104300830D01*
X89760038Y-104291651D01*
X89780250Y-104284419D01*
X89801074Y-104279203D01*
X89822309Y-104276053D01*
X89843750Y-104275000D01*
X90356250Y-104275000D01*
X90377691Y-104276053D01*
X90377691Y-104276053D01*
G37*
D16*
X90100000Y-104712500D03*
D15*
G36*
X88877691Y-105851053D02*
G01*
X88898926Y-105854203D01*
X88919750Y-105859419D01*
X88939962Y-105866651D01*
X88959368Y-105875830D01*
X88977781Y-105886866D01*
X88995024Y-105899654D01*
X89010930Y-105914070D01*
X89025346Y-105929976D01*
X89038134Y-105947219D01*
X89049170Y-105965632D01*
X89058349Y-105985038D01*
X89065581Y-106005250D01*
X89070797Y-106026074D01*
X89073947Y-106047309D01*
X89075000Y-106068750D01*
X89075000Y-106506250D01*
X89073947Y-106527691D01*
X89070797Y-106548926D01*
X89065581Y-106569750D01*
X89058349Y-106589962D01*
X89049170Y-106609368D01*
X89038134Y-106627781D01*
X89025346Y-106645024D01*
X89010930Y-106660930D01*
X88995024Y-106675346D01*
X88977781Y-106688134D01*
X88959368Y-106699170D01*
X88939962Y-106708349D01*
X88919750Y-106715581D01*
X88898926Y-106720797D01*
X88877691Y-106723947D01*
X88856250Y-106725000D01*
X88343750Y-106725000D01*
X88322309Y-106723947D01*
X88301074Y-106720797D01*
X88280250Y-106715581D01*
X88260038Y-106708349D01*
X88240632Y-106699170D01*
X88222219Y-106688134D01*
X88204976Y-106675346D01*
X88189070Y-106660930D01*
X88174654Y-106645024D01*
X88161866Y-106627781D01*
X88150830Y-106609368D01*
X88141651Y-106589962D01*
X88134419Y-106569750D01*
X88129203Y-106548926D01*
X88126053Y-106527691D01*
X88125000Y-106506250D01*
X88125000Y-106068750D01*
X88126053Y-106047309D01*
X88129203Y-106026074D01*
X88134419Y-106005250D01*
X88141651Y-105985038D01*
X88150830Y-105965632D01*
X88161866Y-105947219D01*
X88174654Y-105929976D01*
X88189070Y-105914070D01*
X88204976Y-105899654D01*
X88222219Y-105886866D01*
X88240632Y-105875830D01*
X88260038Y-105866651D01*
X88280250Y-105859419D01*
X88301074Y-105854203D01*
X88322309Y-105851053D01*
X88343750Y-105850000D01*
X88856250Y-105850000D01*
X88877691Y-105851053D01*
X88877691Y-105851053D01*
G37*
D16*
X88600000Y-106287500D03*
D15*
G36*
X88877691Y-104276053D02*
G01*
X88898926Y-104279203D01*
X88919750Y-104284419D01*
X88939962Y-104291651D01*
X88959368Y-104300830D01*
X88977781Y-104311866D01*
X88995024Y-104324654D01*
X89010930Y-104339070D01*
X89025346Y-104354976D01*
X89038134Y-104372219D01*
X89049170Y-104390632D01*
X89058349Y-104410038D01*
X89065581Y-104430250D01*
X89070797Y-104451074D01*
X89073947Y-104472309D01*
X89075000Y-104493750D01*
X89075000Y-104931250D01*
X89073947Y-104952691D01*
X89070797Y-104973926D01*
X89065581Y-104994750D01*
X89058349Y-105014962D01*
X89049170Y-105034368D01*
X89038134Y-105052781D01*
X89025346Y-105070024D01*
X89010930Y-105085930D01*
X88995024Y-105100346D01*
X88977781Y-105113134D01*
X88959368Y-105124170D01*
X88939962Y-105133349D01*
X88919750Y-105140581D01*
X88898926Y-105145797D01*
X88877691Y-105148947D01*
X88856250Y-105150000D01*
X88343750Y-105150000D01*
X88322309Y-105148947D01*
X88301074Y-105145797D01*
X88280250Y-105140581D01*
X88260038Y-105133349D01*
X88240632Y-105124170D01*
X88222219Y-105113134D01*
X88204976Y-105100346D01*
X88189070Y-105085930D01*
X88174654Y-105070024D01*
X88161866Y-105052781D01*
X88150830Y-105034368D01*
X88141651Y-105014962D01*
X88134419Y-104994750D01*
X88129203Y-104973926D01*
X88126053Y-104952691D01*
X88125000Y-104931250D01*
X88125000Y-104493750D01*
X88126053Y-104472309D01*
X88129203Y-104451074D01*
X88134419Y-104430250D01*
X88141651Y-104410038D01*
X88150830Y-104390632D01*
X88161866Y-104372219D01*
X88174654Y-104354976D01*
X88189070Y-104339070D01*
X88204976Y-104324654D01*
X88222219Y-104311866D01*
X88240632Y-104300830D01*
X88260038Y-104291651D01*
X88280250Y-104284419D01*
X88301074Y-104279203D01*
X88322309Y-104276053D01*
X88343750Y-104275000D01*
X88856250Y-104275000D01*
X88877691Y-104276053D01*
X88877691Y-104276053D01*
G37*
D16*
X88600000Y-104712500D03*
D15*
G36*
X87377691Y-105851053D02*
G01*
X87398926Y-105854203D01*
X87419750Y-105859419D01*
X87439962Y-105866651D01*
X87459368Y-105875830D01*
X87477781Y-105886866D01*
X87495024Y-105899654D01*
X87510930Y-105914070D01*
X87525346Y-105929976D01*
X87538134Y-105947219D01*
X87549170Y-105965632D01*
X87558349Y-105985038D01*
X87565581Y-106005250D01*
X87570797Y-106026074D01*
X87573947Y-106047309D01*
X87575000Y-106068750D01*
X87575000Y-106506250D01*
X87573947Y-106527691D01*
X87570797Y-106548926D01*
X87565581Y-106569750D01*
X87558349Y-106589962D01*
X87549170Y-106609368D01*
X87538134Y-106627781D01*
X87525346Y-106645024D01*
X87510930Y-106660930D01*
X87495024Y-106675346D01*
X87477781Y-106688134D01*
X87459368Y-106699170D01*
X87439962Y-106708349D01*
X87419750Y-106715581D01*
X87398926Y-106720797D01*
X87377691Y-106723947D01*
X87356250Y-106725000D01*
X86843750Y-106725000D01*
X86822309Y-106723947D01*
X86801074Y-106720797D01*
X86780250Y-106715581D01*
X86760038Y-106708349D01*
X86740632Y-106699170D01*
X86722219Y-106688134D01*
X86704976Y-106675346D01*
X86689070Y-106660930D01*
X86674654Y-106645024D01*
X86661866Y-106627781D01*
X86650830Y-106609368D01*
X86641651Y-106589962D01*
X86634419Y-106569750D01*
X86629203Y-106548926D01*
X86626053Y-106527691D01*
X86625000Y-106506250D01*
X86625000Y-106068750D01*
X86626053Y-106047309D01*
X86629203Y-106026074D01*
X86634419Y-106005250D01*
X86641651Y-105985038D01*
X86650830Y-105965632D01*
X86661866Y-105947219D01*
X86674654Y-105929976D01*
X86689070Y-105914070D01*
X86704976Y-105899654D01*
X86722219Y-105886866D01*
X86740632Y-105875830D01*
X86760038Y-105866651D01*
X86780250Y-105859419D01*
X86801074Y-105854203D01*
X86822309Y-105851053D01*
X86843750Y-105850000D01*
X87356250Y-105850000D01*
X87377691Y-105851053D01*
X87377691Y-105851053D01*
G37*
D16*
X87100000Y-106287500D03*
D15*
G36*
X87377691Y-104276053D02*
G01*
X87398926Y-104279203D01*
X87419750Y-104284419D01*
X87439962Y-104291651D01*
X87459368Y-104300830D01*
X87477781Y-104311866D01*
X87495024Y-104324654D01*
X87510930Y-104339070D01*
X87525346Y-104354976D01*
X87538134Y-104372219D01*
X87549170Y-104390632D01*
X87558349Y-104410038D01*
X87565581Y-104430250D01*
X87570797Y-104451074D01*
X87573947Y-104472309D01*
X87575000Y-104493750D01*
X87575000Y-104931250D01*
X87573947Y-104952691D01*
X87570797Y-104973926D01*
X87565581Y-104994750D01*
X87558349Y-105014962D01*
X87549170Y-105034368D01*
X87538134Y-105052781D01*
X87525346Y-105070024D01*
X87510930Y-105085930D01*
X87495024Y-105100346D01*
X87477781Y-105113134D01*
X87459368Y-105124170D01*
X87439962Y-105133349D01*
X87419750Y-105140581D01*
X87398926Y-105145797D01*
X87377691Y-105148947D01*
X87356250Y-105150000D01*
X86843750Y-105150000D01*
X86822309Y-105148947D01*
X86801074Y-105145797D01*
X86780250Y-105140581D01*
X86760038Y-105133349D01*
X86740632Y-105124170D01*
X86722219Y-105113134D01*
X86704976Y-105100346D01*
X86689070Y-105085930D01*
X86674654Y-105070024D01*
X86661866Y-105052781D01*
X86650830Y-105034368D01*
X86641651Y-105014962D01*
X86634419Y-104994750D01*
X86629203Y-104973926D01*
X86626053Y-104952691D01*
X86625000Y-104931250D01*
X86625000Y-104493750D01*
X86626053Y-104472309D01*
X86629203Y-104451074D01*
X86634419Y-104430250D01*
X86641651Y-104410038D01*
X86650830Y-104390632D01*
X86661866Y-104372219D01*
X86674654Y-104354976D01*
X86689070Y-104339070D01*
X86704976Y-104324654D01*
X86722219Y-104311866D01*
X86740632Y-104300830D01*
X86760038Y-104291651D01*
X86780250Y-104284419D01*
X86801074Y-104279203D01*
X86822309Y-104276053D01*
X86843750Y-104275000D01*
X87356250Y-104275000D01*
X87377691Y-104276053D01*
X87377691Y-104276053D01*
G37*
D16*
X87100000Y-104712500D03*
D17*
X90010000Y-134790000D03*
X90010000Y-133290000D03*
D15*
G36*
X103739504Y-92036204D02*
G01*
X103763773Y-92039804D01*
X103787571Y-92045765D01*
X103810671Y-92054030D01*
X103832849Y-92064520D01*
X103853893Y-92077133D01*
X103873598Y-92091747D01*
X103891777Y-92108223D01*
X103908253Y-92126402D01*
X103922867Y-92146107D01*
X103935480Y-92167151D01*
X103945970Y-92189329D01*
X103954235Y-92212429D01*
X103960196Y-92236227D01*
X103963796Y-92260496D01*
X103965000Y-92285000D01*
X103965000Y-93035000D01*
X103963796Y-93059504D01*
X103960196Y-93083773D01*
X103954235Y-93107571D01*
X103945970Y-93130671D01*
X103935480Y-93152849D01*
X103922867Y-93173893D01*
X103908253Y-93193598D01*
X103891777Y-93211777D01*
X103873598Y-93228253D01*
X103853893Y-93242867D01*
X103832849Y-93255480D01*
X103810671Y-93265970D01*
X103787571Y-93274235D01*
X103763773Y-93280196D01*
X103739504Y-93283796D01*
X103715000Y-93285000D01*
X101565000Y-93285000D01*
X101540496Y-93283796D01*
X101516227Y-93280196D01*
X101492429Y-93274235D01*
X101469329Y-93265970D01*
X101447151Y-93255480D01*
X101426107Y-93242867D01*
X101406402Y-93228253D01*
X101388223Y-93211777D01*
X101371747Y-93193598D01*
X101357133Y-93173893D01*
X101344520Y-93152849D01*
X101334030Y-93130671D01*
X101325765Y-93107571D01*
X101319804Y-93083773D01*
X101316204Y-93059504D01*
X101315000Y-93035000D01*
X101315000Y-92285000D01*
X101316204Y-92260496D01*
X101319804Y-92236227D01*
X101325765Y-92212429D01*
X101334030Y-92189329D01*
X101344520Y-92167151D01*
X101357133Y-92146107D01*
X101371747Y-92126402D01*
X101388223Y-92108223D01*
X101406402Y-92091747D01*
X101426107Y-92077133D01*
X101447151Y-92064520D01*
X101469329Y-92054030D01*
X101492429Y-92045765D01*
X101516227Y-92039804D01*
X101540496Y-92036204D01*
X101565000Y-92035000D01*
X103715000Y-92035000D01*
X103739504Y-92036204D01*
X103739504Y-92036204D01*
G37*
D18*
X102640000Y-92660000D03*
D15*
G36*
X103739504Y-89236204D02*
G01*
X103763773Y-89239804D01*
X103787571Y-89245765D01*
X103810671Y-89254030D01*
X103832849Y-89264520D01*
X103853893Y-89277133D01*
X103873598Y-89291747D01*
X103891777Y-89308223D01*
X103908253Y-89326402D01*
X103922867Y-89346107D01*
X103935480Y-89367151D01*
X103945970Y-89389329D01*
X103954235Y-89412429D01*
X103960196Y-89436227D01*
X103963796Y-89460496D01*
X103965000Y-89485000D01*
X103965000Y-90235000D01*
X103963796Y-90259504D01*
X103960196Y-90283773D01*
X103954235Y-90307571D01*
X103945970Y-90330671D01*
X103935480Y-90352849D01*
X103922867Y-90373893D01*
X103908253Y-90393598D01*
X103891777Y-90411777D01*
X103873598Y-90428253D01*
X103853893Y-90442867D01*
X103832849Y-90455480D01*
X103810671Y-90465970D01*
X103787571Y-90474235D01*
X103763773Y-90480196D01*
X103739504Y-90483796D01*
X103715000Y-90485000D01*
X101565000Y-90485000D01*
X101540496Y-90483796D01*
X101516227Y-90480196D01*
X101492429Y-90474235D01*
X101469329Y-90465970D01*
X101447151Y-90455480D01*
X101426107Y-90442867D01*
X101406402Y-90428253D01*
X101388223Y-90411777D01*
X101371747Y-90393598D01*
X101357133Y-90373893D01*
X101344520Y-90352849D01*
X101334030Y-90330671D01*
X101325765Y-90307571D01*
X101319804Y-90283773D01*
X101316204Y-90259504D01*
X101315000Y-90235000D01*
X101315000Y-89485000D01*
X101316204Y-89460496D01*
X101319804Y-89436227D01*
X101325765Y-89412429D01*
X101334030Y-89389329D01*
X101344520Y-89367151D01*
X101357133Y-89346107D01*
X101371747Y-89326402D01*
X101388223Y-89308223D01*
X101406402Y-89291747D01*
X101426107Y-89277133D01*
X101447151Y-89264520D01*
X101469329Y-89254030D01*
X101492429Y-89245765D01*
X101516227Y-89239804D01*
X101540496Y-89236204D01*
X101565000Y-89235000D01*
X103715000Y-89235000D01*
X103739504Y-89236204D01*
X103739504Y-89236204D01*
G37*
D18*
X102640000Y-89860000D03*
D15*
G36*
X78639504Y-92056204D02*
G01*
X78663773Y-92059804D01*
X78687571Y-92065765D01*
X78710671Y-92074030D01*
X78732849Y-92084520D01*
X78753893Y-92097133D01*
X78773598Y-92111747D01*
X78791777Y-92128223D01*
X78808253Y-92146402D01*
X78822867Y-92166107D01*
X78835480Y-92187151D01*
X78845970Y-92209329D01*
X78854235Y-92232429D01*
X78860196Y-92256227D01*
X78863796Y-92280496D01*
X78865000Y-92305000D01*
X78865000Y-93055000D01*
X78863796Y-93079504D01*
X78860196Y-93103773D01*
X78854235Y-93127571D01*
X78845970Y-93150671D01*
X78835480Y-93172849D01*
X78822867Y-93193893D01*
X78808253Y-93213598D01*
X78791777Y-93231777D01*
X78773598Y-93248253D01*
X78753893Y-93262867D01*
X78732849Y-93275480D01*
X78710671Y-93285970D01*
X78687571Y-93294235D01*
X78663773Y-93300196D01*
X78639504Y-93303796D01*
X78615000Y-93305000D01*
X76465000Y-93305000D01*
X76440496Y-93303796D01*
X76416227Y-93300196D01*
X76392429Y-93294235D01*
X76369329Y-93285970D01*
X76347151Y-93275480D01*
X76326107Y-93262867D01*
X76306402Y-93248253D01*
X76288223Y-93231777D01*
X76271747Y-93213598D01*
X76257133Y-93193893D01*
X76244520Y-93172849D01*
X76234030Y-93150671D01*
X76225765Y-93127571D01*
X76219804Y-93103773D01*
X76216204Y-93079504D01*
X76215000Y-93055000D01*
X76215000Y-92305000D01*
X76216204Y-92280496D01*
X76219804Y-92256227D01*
X76225765Y-92232429D01*
X76234030Y-92209329D01*
X76244520Y-92187151D01*
X76257133Y-92166107D01*
X76271747Y-92146402D01*
X76288223Y-92128223D01*
X76306402Y-92111747D01*
X76326107Y-92097133D01*
X76347151Y-92084520D01*
X76369329Y-92074030D01*
X76392429Y-92065765D01*
X76416227Y-92059804D01*
X76440496Y-92056204D01*
X76465000Y-92055000D01*
X78615000Y-92055000D01*
X78639504Y-92056204D01*
X78639504Y-92056204D01*
G37*
D18*
X77540000Y-92680000D03*
D15*
G36*
X78639504Y-89256204D02*
G01*
X78663773Y-89259804D01*
X78687571Y-89265765D01*
X78710671Y-89274030D01*
X78732849Y-89284520D01*
X78753893Y-89297133D01*
X78773598Y-89311747D01*
X78791777Y-89328223D01*
X78808253Y-89346402D01*
X78822867Y-89366107D01*
X78835480Y-89387151D01*
X78845970Y-89409329D01*
X78854235Y-89432429D01*
X78860196Y-89456227D01*
X78863796Y-89480496D01*
X78865000Y-89505000D01*
X78865000Y-90255000D01*
X78863796Y-90279504D01*
X78860196Y-90303773D01*
X78854235Y-90327571D01*
X78845970Y-90350671D01*
X78835480Y-90372849D01*
X78822867Y-90393893D01*
X78808253Y-90413598D01*
X78791777Y-90431777D01*
X78773598Y-90448253D01*
X78753893Y-90462867D01*
X78732849Y-90475480D01*
X78710671Y-90485970D01*
X78687571Y-90494235D01*
X78663773Y-90500196D01*
X78639504Y-90503796D01*
X78615000Y-90505000D01*
X76465000Y-90505000D01*
X76440496Y-90503796D01*
X76416227Y-90500196D01*
X76392429Y-90494235D01*
X76369329Y-90485970D01*
X76347151Y-90475480D01*
X76326107Y-90462867D01*
X76306402Y-90448253D01*
X76288223Y-90431777D01*
X76271747Y-90413598D01*
X76257133Y-90393893D01*
X76244520Y-90372849D01*
X76234030Y-90350671D01*
X76225765Y-90327571D01*
X76219804Y-90303773D01*
X76216204Y-90279504D01*
X76215000Y-90255000D01*
X76215000Y-89505000D01*
X76216204Y-89480496D01*
X76219804Y-89456227D01*
X76225765Y-89432429D01*
X76234030Y-89409329D01*
X76244520Y-89387151D01*
X76257133Y-89366107D01*
X76271747Y-89346402D01*
X76288223Y-89328223D01*
X76306402Y-89311747D01*
X76326107Y-89297133D01*
X76347151Y-89284520D01*
X76369329Y-89274030D01*
X76392429Y-89265765D01*
X76416227Y-89259804D01*
X76440496Y-89256204D01*
X76465000Y-89255000D01*
X78615000Y-89255000D01*
X78639504Y-89256204D01*
X78639504Y-89256204D01*
G37*
D18*
X77540000Y-89880000D03*
D15*
G36*
X89676958Y-76880710D02*
G01*
X89691276Y-76882834D01*
X89705317Y-76886351D01*
X89718946Y-76891228D01*
X89732031Y-76897417D01*
X89744447Y-76904858D01*
X89756073Y-76913481D01*
X89766798Y-76923202D01*
X89776519Y-76933927D01*
X89785142Y-76945553D01*
X89792583Y-76957969D01*
X89798772Y-76971054D01*
X89803649Y-76984683D01*
X89807166Y-76998724D01*
X89809290Y-77013042D01*
X89810000Y-77027500D01*
X89810000Y-77372500D01*
X89809290Y-77386958D01*
X89807166Y-77401276D01*
X89803649Y-77415317D01*
X89798772Y-77428946D01*
X89792583Y-77442031D01*
X89785142Y-77454447D01*
X89776519Y-77466073D01*
X89766798Y-77476798D01*
X89756073Y-77486519D01*
X89744447Y-77495142D01*
X89732031Y-77502583D01*
X89718946Y-77508772D01*
X89705317Y-77513649D01*
X89691276Y-77517166D01*
X89676958Y-77519290D01*
X89662500Y-77520000D01*
X89367500Y-77520000D01*
X89353042Y-77519290D01*
X89338724Y-77517166D01*
X89324683Y-77513649D01*
X89311054Y-77508772D01*
X89297969Y-77502583D01*
X89285553Y-77495142D01*
X89273927Y-77486519D01*
X89263202Y-77476798D01*
X89253481Y-77466073D01*
X89244858Y-77454447D01*
X89237417Y-77442031D01*
X89231228Y-77428946D01*
X89226351Y-77415317D01*
X89222834Y-77401276D01*
X89220710Y-77386958D01*
X89220000Y-77372500D01*
X89220000Y-77027500D01*
X89220710Y-77013042D01*
X89222834Y-76998724D01*
X89226351Y-76984683D01*
X89231228Y-76971054D01*
X89237417Y-76957969D01*
X89244858Y-76945553D01*
X89253481Y-76933927D01*
X89263202Y-76923202D01*
X89273927Y-76913481D01*
X89285553Y-76904858D01*
X89297969Y-76897417D01*
X89311054Y-76891228D01*
X89324683Y-76886351D01*
X89338724Y-76882834D01*
X89353042Y-76880710D01*
X89367500Y-76880000D01*
X89662500Y-76880000D01*
X89676958Y-76880710D01*
X89676958Y-76880710D01*
G37*
D19*
X89515000Y-77200000D03*
D15*
G36*
X90646958Y-76880710D02*
G01*
X90661276Y-76882834D01*
X90675317Y-76886351D01*
X90688946Y-76891228D01*
X90702031Y-76897417D01*
X90714447Y-76904858D01*
X90726073Y-76913481D01*
X90736798Y-76923202D01*
X90746519Y-76933927D01*
X90755142Y-76945553D01*
X90762583Y-76957969D01*
X90768772Y-76971054D01*
X90773649Y-76984683D01*
X90777166Y-76998724D01*
X90779290Y-77013042D01*
X90780000Y-77027500D01*
X90780000Y-77372500D01*
X90779290Y-77386958D01*
X90777166Y-77401276D01*
X90773649Y-77415317D01*
X90768772Y-77428946D01*
X90762583Y-77442031D01*
X90755142Y-77454447D01*
X90746519Y-77466073D01*
X90736798Y-77476798D01*
X90726073Y-77486519D01*
X90714447Y-77495142D01*
X90702031Y-77502583D01*
X90688946Y-77508772D01*
X90675317Y-77513649D01*
X90661276Y-77517166D01*
X90646958Y-77519290D01*
X90632500Y-77520000D01*
X90337500Y-77520000D01*
X90323042Y-77519290D01*
X90308724Y-77517166D01*
X90294683Y-77513649D01*
X90281054Y-77508772D01*
X90267969Y-77502583D01*
X90255553Y-77495142D01*
X90243927Y-77486519D01*
X90233202Y-77476798D01*
X90223481Y-77466073D01*
X90214858Y-77454447D01*
X90207417Y-77442031D01*
X90201228Y-77428946D01*
X90196351Y-77415317D01*
X90192834Y-77401276D01*
X90190710Y-77386958D01*
X90190000Y-77372500D01*
X90190000Y-77027500D01*
X90190710Y-77013042D01*
X90192834Y-76998724D01*
X90196351Y-76984683D01*
X90201228Y-76971054D01*
X90207417Y-76957969D01*
X90214858Y-76945553D01*
X90223481Y-76933927D01*
X90233202Y-76923202D01*
X90243927Y-76913481D01*
X90255553Y-76904858D01*
X90267969Y-76897417D01*
X90281054Y-76891228D01*
X90294683Y-76886351D01*
X90308724Y-76882834D01*
X90323042Y-76880710D01*
X90337500Y-76880000D01*
X90632500Y-76880000D01*
X90646958Y-76880710D01*
X90646958Y-76880710D01*
G37*
D19*
X90485000Y-77200000D03*
D15*
G36*
X86354703Y-96550722D02*
G01*
X86369264Y-96552882D01*
X86383543Y-96556459D01*
X86397403Y-96561418D01*
X86410710Y-96567712D01*
X86423336Y-96575280D01*
X86435159Y-96584048D01*
X86446066Y-96593934D01*
X86455952Y-96604841D01*
X86464720Y-96616664D01*
X86472288Y-96629290D01*
X86478582Y-96642597D01*
X86483541Y-96656457D01*
X86487118Y-96670736D01*
X86489278Y-96685297D01*
X86490000Y-96700000D01*
X86490000Y-98350000D01*
X86489278Y-98364703D01*
X86487118Y-98379264D01*
X86483541Y-98393543D01*
X86478582Y-98407403D01*
X86472288Y-98420710D01*
X86464720Y-98433336D01*
X86455952Y-98445159D01*
X86446066Y-98456066D01*
X86435159Y-98465952D01*
X86423336Y-98474720D01*
X86410710Y-98482288D01*
X86397403Y-98488582D01*
X86383543Y-98493541D01*
X86369264Y-98497118D01*
X86354703Y-98499278D01*
X86340000Y-98500000D01*
X86040000Y-98500000D01*
X86025297Y-98499278D01*
X86010736Y-98497118D01*
X85996457Y-98493541D01*
X85982597Y-98488582D01*
X85969290Y-98482288D01*
X85956664Y-98474720D01*
X85944841Y-98465952D01*
X85933934Y-98456066D01*
X85924048Y-98445159D01*
X85915280Y-98433336D01*
X85907712Y-98420710D01*
X85901418Y-98407403D01*
X85896459Y-98393543D01*
X85892882Y-98379264D01*
X85890722Y-98364703D01*
X85890000Y-98350000D01*
X85890000Y-96700000D01*
X85890722Y-96685297D01*
X85892882Y-96670736D01*
X85896459Y-96656457D01*
X85901418Y-96642597D01*
X85907712Y-96629290D01*
X85915280Y-96616664D01*
X85924048Y-96604841D01*
X85933934Y-96593934D01*
X85944841Y-96584048D01*
X85956664Y-96575280D01*
X85969290Y-96567712D01*
X85982597Y-96561418D01*
X85996457Y-96556459D01*
X86010736Y-96552882D01*
X86025297Y-96550722D01*
X86040000Y-96550000D01*
X86340000Y-96550000D01*
X86354703Y-96550722D01*
X86354703Y-96550722D01*
G37*
D20*
X86190000Y-97525000D03*
D15*
G36*
X87624703Y-96550722D02*
G01*
X87639264Y-96552882D01*
X87653543Y-96556459D01*
X87667403Y-96561418D01*
X87680710Y-96567712D01*
X87693336Y-96575280D01*
X87705159Y-96584048D01*
X87716066Y-96593934D01*
X87725952Y-96604841D01*
X87734720Y-96616664D01*
X87742288Y-96629290D01*
X87748582Y-96642597D01*
X87753541Y-96656457D01*
X87757118Y-96670736D01*
X87759278Y-96685297D01*
X87760000Y-96700000D01*
X87760000Y-98350000D01*
X87759278Y-98364703D01*
X87757118Y-98379264D01*
X87753541Y-98393543D01*
X87748582Y-98407403D01*
X87742288Y-98420710D01*
X87734720Y-98433336D01*
X87725952Y-98445159D01*
X87716066Y-98456066D01*
X87705159Y-98465952D01*
X87693336Y-98474720D01*
X87680710Y-98482288D01*
X87667403Y-98488582D01*
X87653543Y-98493541D01*
X87639264Y-98497118D01*
X87624703Y-98499278D01*
X87610000Y-98500000D01*
X87310000Y-98500000D01*
X87295297Y-98499278D01*
X87280736Y-98497118D01*
X87266457Y-98493541D01*
X87252597Y-98488582D01*
X87239290Y-98482288D01*
X87226664Y-98474720D01*
X87214841Y-98465952D01*
X87203934Y-98456066D01*
X87194048Y-98445159D01*
X87185280Y-98433336D01*
X87177712Y-98420710D01*
X87171418Y-98407403D01*
X87166459Y-98393543D01*
X87162882Y-98379264D01*
X87160722Y-98364703D01*
X87160000Y-98350000D01*
X87160000Y-96700000D01*
X87160722Y-96685297D01*
X87162882Y-96670736D01*
X87166459Y-96656457D01*
X87171418Y-96642597D01*
X87177712Y-96629290D01*
X87185280Y-96616664D01*
X87194048Y-96604841D01*
X87203934Y-96593934D01*
X87214841Y-96584048D01*
X87226664Y-96575280D01*
X87239290Y-96567712D01*
X87252597Y-96561418D01*
X87266457Y-96556459D01*
X87280736Y-96552882D01*
X87295297Y-96550722D01*
X87310000Y-96550000D01*
X87610000Y-96550000D01*
X87624703Y-96550722D01*
X87624703Y-96550722D01*
G37*
D20*
X87460000Y-97525000D03*
D15*
G36*
X88894703Y-96550722D02*
G01*
X88909264Y-96552882D01*
X88923543Y-96556459D01*
X88937403Y-96561418D01*
X88950710Y-96567712D01*
X88963336Y-96575280D01*
X88975159Y-96584048D01*
X88986066Y-96593934D01*
X88995952Y-96604841D01*
X89004720Y-96616664D01*
X89012288Y-96629290D01*
X89018582Y-96642597D01*
X89023541Y-96656457D01*
X89027118Y-96670736D01*
X89029278Y-96685297D01*
X89030000Y-96700000D01*
X89030000Y-98350000D01*
X89029278Y-98364703D01*
X89027118Y-98379264D01*
X89023541Y-98393543D01*
X89018582Y-98407403D01*
X89012288Y-98420710D01*
X89004720Y-98433336D01*
X88995952Y-98445159D01*
X88986066Y-98456066D01*
X88975159Y-98465952D01*
X88963336Y-98474720D01*
X88950710Y-98482288D01*
X88937403Y-98488582D01*
X88923543Y-98493541D01*
X88909264Y-98497118D01*
X88894703Y-98499278D01*
X88880000Y-98500000D01*
X88580000Y-98500000D01*
X88565297Y-98499278D01*
X88550736Y-98497118D01*
X88536457Y-98493541D01*
X88522597Y-98488582D01*
X88509290Y-98482288D01*
X88496664Y-98474720D01*
X88484841Y-98465952D01*
X88473934Y-98456066D01*
X88464048Y-98445159D01*
X88455280Y-98433336D01*
X88447712Y-98420710D01*
X88441418Y-98407403D01*
X88436459Y-98393543D01*
X88432882Y-98379264D01*
X88430722Y-98364703D01*
X88430000Y-98350000D01*
X88430000Y-96700000D01*
X88430722Y-96685297D01*
X88432882Y-96670736D01*
X88436459Y-96656457D01*
X88441418Y-96642597D01*
X88447712Y-96629290D01*
X88455280Y-96616664D01*
X88464048Y-96604841D01*
X88473934Y-96593934D01*
X88484841Y-96584048D01*
X88496664Y-96575280D01*
X88509290Y-96567712D01*
X88522597Y-96561418D01*
X88536457Y-96556459D01*
X88550736Y-96552882D01*
X88565297Y-96550722D01*
X88580000Y-96550000D01*
X88880000Y-96550000D01*
X88894703Y-96550722D01*
X88894703Y-96550722D01*
G37*
D20*
X88730000Y-97525000D03*
D15*
G36*
X90164703Y-96550722D02*
G01*
X90179264Y-96552882D01*
X90193543Y-96556459D01*
X90207403Y-96561418D01*
X90220710Y-96567712D01*
X90233336Y-96575280D01*
X90245159Y-96584048D01*
X90256066Y-96593934D01*
X90265952Y-96604841D01*
X90274720Y-96616664D01*
X90282288Y-96629290D01*
X90288582Y-96642597D01*
X90293541Y-96656457D01*
X90297118Y-96670736D01*
X90299278Y-96685297D01*
X90300000Y-96700000D01*
X90300000Y-98350000D01*
X90299278Y-98364703D01*
X90297118Y-98379264D01*
X90293541Y-98393543D01*
X90288582Y-98407403D01*
X90282288Y-98420710D01*
X90274720Y-98433336D01*
X90265952Y-98445159D01*
X90256066Y-98456066D01*
X90245159Y-98465952D01*
X90233336Y-98474720D01*
X90220710Y-98482288D01*
X90207403Y-98488582D01*
X90193543Y-98493541D01*
X90179264Y-98497118D01*
X90164703Y-98499278D01*
X90150000Y-98500000D01*
X89850000Y-98500000D01*
X89835297Y-98499278D01*
X89820736Y-98497118D01*
X89806457Y-98493541D01*
X89792597Y-98488582D01*
X89779290Y-98482288D01*
X89766664Y-98474720D01*
X89754841Y-98465952D01*
X89743934Y-98456066D01*
X89734048Y-98445159D01*
X89725280Y-98433336D01*
X89717712Y-98420710D01*
X89711418Y-98407403D01*
X89706459Y-98393543D01*
X89702882Y-98379264D01*
X89700722Y-98364703D01*
X89700000Y-98350000D01*
X89700000Y-96700000D01*
X89700722Y-96685297D01*
X89702882Y-96670736D01*
X89706459Y-96656457D01*
X89711418Y-96642597D01*
X89717712Y-96629290D01*
X89725280Y-96616664D01*
X89734048Y-96604841D01*
X89743934Y-96593934D01*
X89754841Y-96584048D01*
X89766664Y-96575280D01*
X89779290Y-96567712D01*
X89792597Y-96561418D01*
X89806457Y-96556459D01*
X89820736Y-96552882D01*
X89835297Y-96550722D01*
X89850000Y-96550000D01*
X90150000Y-96550000D01*
X90164703Y-96550722D01*
X90164703Y-96550722D01*
G37*
D20*
X90000000Y-97525000D03*
D15*
G36*
X91434703Y-96550722D02*
G01*
X91449264Y-96552882D01*
X91463543Y-96556459D01*
X91477403Y-96561418D01*
X91490710Y-96567712D01*
X91503336Y-96575280D01*
X91515159Y-96584048D01*
X91526066Y-96593934D01*
X91535952Y-96604841D01*
X91544720Y-96616664D01*
X91552288Y-96629290D01*
X91558582Y-96642597D01*
X91563541Y-96656457D01*
X91567118Y-96670736D01*
X91569278Y-96685297D01*
X91570000Y-96700000D01*
X91570000Y-98350000D01*
X91569278Y-98364703D01*
X91567118Y-98379264D01*
X91563541Y-98393543D01*
X91558582Y-98407403D01*
X91552288Y-98420710D01*
X91544720Y-98433336D01*
X91535952Y-98445159D01*
X91526066Y-98456066D01*
X91515159Y-98465952D01*
X91503336Y-98474720D01*
X91490710Y-98482288D01*
X91477403Y-98488582D01*
X91463543Y-98493541D01*
X91449264Y-98497118D01*
X91434703Y-98499278D01*
X91420000Y-98500000D01*
X91120000Y-98500000D01*
X91105297Y-98499278D01*
X91090736Y-98497118D01*
X91076457Y-98493541D01*
X91062597Y-98488582D01*
X91049290Y-98482288D01*
X91036664Y-98474720D01*
X91024841Y-98465952D01*
X91013934Y-98456066D01*
X91004048Y-98445159D01*
X90995280Y-98433336D01*
X90987712Y-98420710D01*
X90981418Y-98407403D01*
X90976459Y-98393543D01*
X90972882Y-98379264D01*
X90970722Y-98364703D01*
X90970000Y-98350000D01*
X90970000Y-96700000D01*
X90970722Y-96685297D01*
X90972882Y-96670736D01*
X90976459Y-96656457D01*
X90981418Y-96642597D01*
X90987712Y-96629290D01*
X90995280Y-96616664D01*
X91004048Y-96604841D01*
X91013934Y-96593934D01*
X91024841Y-96584048D01*
X91036664Y-96575280D01*
X91049290Y-96567712D01*
X91062597Y-96561418D01*
X91076457Y-96556459D01*
X91090736Y-96552882D01*
X91105297Y-96550722D01*
X91120000Y-96550000D01*
X91420000Y-96550000D01*
X91434703Y-96550722D01*
X91434703Y-96550722D01*
G37*
D20*
X91270000Y-97525000D03*
D15*
G36*
X92704703Y-96550722D02*
G01*
X92719264Y-96552882D01*
X92733543Y-96556459D01*
X92747403Y-96561418D01*
X92760710Y-96567712D01*
X92773336Y-96575280D01*
X92785159Y-96584048D01*
X92796066Y-96593934D01*
X92805952Y-96604841D01*
X92814720Y-96616664D01*
X92822288Y-96629290D01*
X92828582Y-96642597D01*
X92833541Y-96656457D01*
X92837118Y-96670736D01*
X92839278Y-96685297D01*
X92840000Y-96700000D01*
X92840000Y-98350000D01*
X92839278Y-98364703D01*
X92837118Y-98379264D01*
X92833541Y-98393543D01*
X92828582Y-98407403D01*
X92822288Y-98420710D01*
X92814720Y-98433336D01*
X92805952Y-98445159D01*
X92796066Y-98456066D01*
X92785159Y-98465952D01*
X92773336Y-98474720D01*
X92760710Y-98482288D01*
X92747403Y-98488582D01*
X92733543Y-98493541D01*
X92719264Y-98497118D01*
X92704703Y-98499278D01*
X92690000Y-98500000D01*
X92390000Y-98500000D01*
X92375297Y-98499278D01*
X92360736Y-98497118D01*
X92346457Y-98493541D01*
X92332597Y-98488582D01*
X92319290Y-98482288D01*
X92306664Y-98474720D01*
X92294841Y-98465952D01*
X92283934Y-98456066D01*
X92274048Y-98445159D01*
X92265280Y-98433336D01*
X92257712Y-98420710D01*
X92251418Y-98407403D01*
X92246459Y-98393543D01*
X92242882Y-98379264D01*
X92240722Y-98364703D01*
X92240000Y-98350000D01*
X92240000Y-96700000D01*
X92240722Y-96685297D01*
X92242882Y-96670736D01*
X92246459Y-96656457D01*
X92251418Y-96642597D01*
X92257712Y-96629290D01*
X92265280Y-96616664D01*
X92274048Y-96604841D01*
X92283934Y-96593934D01*
X92294841Y-96584048D01*
X92306664Y-96575280D01*
X92319290Y-96567712D01*
X92332597Y-96561418D01*
X92346457Y-96556459D01*
X92360736Y-96552882D01*
X92375297Y-96550722D01*
X92390000Y-96550000D01*
X92690000Y-96550000D01*
X92704703Y-96550722D01*
X92704703Y-96550722D01*
G37*
D20*
X92540000Y-97525000D03*
D15*
G36*
X93974703Y-96550722D02*
G01*
X93989264Y-96552882D01*
X94003543Y-96556459D01*
X94017403Y-96561418D01*
X94030710Y-96567712D01*
X94043336Y-96575280D01*
X94055159Y-96584048D01*
X94066066Y-96593934D01*
X94075952Y-96604841D01*
X94084720Y-96616664D01*
X94092288Y-96629290D01*
X94098582Y-96642597D01*
X94103541Y-96656457D01*
X94107118Y-96670736D01*
X94109278Y-96685297D01*
X94110000Y-96700000D01*
X94110000Y-98350000D01*
X94109278Y-98364703D01*
X94107118Y-98379264D01*
X94103541Y-98393543D01*
X94098582Y-98407403D01*
X94092288Y-98420710D01*
X94084720Y-98433336D01*
X94075952Y-98445159D01*
X94066066Y-98456066D01*
X94055159Y-98465952D01*
X94043336Y-98474720D01*
X94030710Y-98482288D01*
X94017403Y-98488582D01*
X94003543Y-98493541D01*
X93989264Y-98497118D01*
X93974703Y-98499278D01*
X93960000Y-98500000D01*
X93660000Y-98500000D01*
X93645297Y-98499278D01*
X93630736Y-98497118D01*
X93616457Y-98493541D01*
X93602597Y-98488582D01*
X93589290Y-98482288D01*
X93576664Y-98474720D01*
X93564841Y-98465952D01*
X93553934Y-98456066D01*
X93544048Y-98445159D01*
X93535280Y-98433336D01*
X93527712Y-98420710D01*
X93521418Y-98407403D01*
X93516459Y-98393543D01*
X93512882Y-98379264D01*
X93510722Y-98364703D01*
X93510000Y-98350000D01*
X93510000Y-96700000D01*
X93510722Y-96685297D01*
X93512882Y-96670736D01*
X93516459Y-96656457D01*
X93521418Y-96642597D01*
X93527712Y-96629290D01*
X93535280Y-96616664D01*
X93544048Y-96604841D01*
X93553934Y-96593934D01*
X93564841Y-96584048D01*
X93576664Y-96575280D01*
X93589290Y-96567712D01*
X93602597Y-96561418D01*
X93616457Y-96556459D01*
X93630736Y-96552882D01*
X93645297Y-96550722D01*
X93660000Y-96550000D01*
X93960000Y-96550000D01*
X93974703Y-96550722D01*
X93974703Y-96550722D01*
G37*
D20*
X93810000Y-97525000D03*
D15*
G36*
X93974703Y-101500722D02*
G01*
X93989264Y-101502882D01*
X94003543Y-101506459D01*
X94017403Y-101511418D01*
X94030710Y-101517712D01*
X94043336Y-101525280D01*
X94055159Y-101534048D01*
X94066066Y-101543934D01*
X94075952Y-101554841D01*
X94084720Y-101566664D01*
X94092288Y-101579290D01*
X94098582Y-101592597D01*
X94103541Y-101606457D01*
X94107118Y-101620736D01*
X94109278Y-101635297D01*
X94110000Y-101650000D01*
X94110000Y-103300000D01*
X94109278Y-103314703D01*
X94107118Y-103329264D01*
X94103541Y-103343543D01*
X94098582Y-103357403D01*
X94092288Y-103370710D01*
X94084720Y-103383336D01*
X94075952Y-103395159D01*
X94066066Y-103406066D01*
X94055159Y-103415952D01*
X94043336Y-103424720D01*
X94030710Y-103432288D01*
X94017403Y-103438582D01*
X94003543Y-103443541D01*
X93989264Y-103447118D01*
X93974703Y-103449278D01*
X93960000Y-103450000D01*
X93660000Y-103450000D01*
X93645297Y-103449278D01*
X93630736Y-103447118D01*
X93616457Y-103443541D01*
X93602597Y-103438582D01*
X93589290Y-103432288D01*
X93576664Y-103424720D01*
X93564841Y-103415952D01*
X93553934Y-103406066D01*
X93544048Y-103395159D01*
X93535280Y-103383336D01*
X93527712Y-103370710D01*
X93521418Y-103357403D01*
X93516459Y-103343543D01*
X93512882Y-103329264D01*
X93510722Y-103314703D01*
X93510000Y-103300000D01*
X93510000Y-101650000D01*
X93510722Y-101635297D01*
X93512882Y-101620736D01*
X93516459Y-101606457D01*
X93521418Y-101592597D01*
X93527712Y-101579290D01*
X93535280Y-101566664D01*
X93544048Y-101554841D01*
X93553934Y-101543934D01*
X93564841Y-101534048D01*
X93576664Y-101525280D01*
X93589290Y-101517712D01*
X93602597Y-101511418D01*
X93616457Y-101506459D01*
X93630736Y-101502882D01*
X93645297Y-101500722D01*
X93660000Y-101500000D01*
X93960000Y-101500000D01*
X93974703Y-101500722D01*
X93974703Y-101500722D01*
G37*
D20*
X93810000Y-102475000D03*
D15*
G36*
X92704703Y-101500722D02*
G01*
X92719264Y-101502882D01*
X92733543Y-101506459D01*
X92747403Y-101511418D01*
X92760710Y-101517712D01*
X92773336Y-101525280D01*
X92785159Y-101534048D01*
X92796066Y-101543934D01*
X92805952Y-101554841D01*
X92814720Y-101566664D01*
X92822288Y-101579290D01*
X92828582Y-101592597D01*
X92833541Y-101606457D01*
X92837118Y-101620736D01*
X92839278Y-101635297D01*
X92840000Y-101650000D01*
X92840000Y-103300000D01*
X92839278Y-103314703D01*
X92837118Y-103329264D01*
X92833541Y-103343543D01*
X92828582Y-103357403D01*
X92822288Y-103370710D01*
X92814720Y-103383336D01*
X92805952Y-103395159D01*
X92796066Y-103406066D01*
X92785159Y-103415952D01*
X92773336Y-103424720D01*
X92760710Y-103432288D01*
X92747403Y-103438582D01*
X92733543Y-103443541D01*
X92719264Y-103447118D01*
X92704703Y-103449278D01*
X92690000Y-103450000D01*
X92390000Y-103450000D01*
X92375297Y-103449278D01*
X92360736Y-103447118D01*
X92346457Y-103443541D01*
X92332597Y-103438582D01*
X92319290Y-103432288D01*
X92306664Y-103424720D01*
X92294841Y-103415952D01*
X92283934Y-103406066D01*
X92274048Y-103395159D01*
X92265280Y-103383336D01*
X92257712Y-103370710D01*
X92251418Y-103357403D01*
X92246459Y-103343543D01*
X92242882Y-103329264D01*
X92240722Y-103314703D01*
X92240000Y-103300000D01*
X92240000Y-101650000D01*
X92240722Y-101635297D01*
X92242882Y-101620736D01*
X92246459Y-101606457D01*
X92251418Y-101592597D01*
X92257712Y-101579290D01*
X92265280Y-101566664D01*
X92274048Y-101554841D01*
X92283934Y-101543934D01*
X92294841Y-101534048D01*
X92306664Y-101525280D01*
X92319290Y-101517712D01*
X92332597Y-101511418D01*
X92346457Y-101506459D01*
X92360736Y-101502882D01*
X92375297Y-101500722D01*
X92390000Y-101500000D01*
X92690000Y-101500000D01*
X92704703Y-101500722D01*
X92704703Y-101500722D01*
G37*
D20*
X92540000Y-102475000D03*
D15*
G36*
X91434703Y-101500722D02*
G01*
X91449264Y-101502882D01*
X91463543Y-101506459D01*
X91477403Y-101511418D01*
X91490710Y-101517712D01*
X91503336Y-101525280D01*
X91515159Y-101534048D01*
X91526066Y-101543934D01*
X91535952Y-101554841D01*
X91544720Y-101566664D01*
X91552288Y-101579290D01*
X91558582Y-101592597D01*
X91563541Y-101606457D01*
X91567118Y-101620736D01*
X91569278Y-101635297D01*
X91570000Y-101650000D01*
X91570000Y-103300000D01*
X91569278Y-103314703D01*
X91567118Y-103329264D01*
X91563541Y-103343543D01*
X91558582Y-103357403D01*
X91552288Y-103370710D01*
X91544720Y-103383336D01*
X91535952Y-103395159D01*
X91526066Y-103406066D01*
X91515159Y-103415952D01*
X91503336Y-103424720D01*
X91490710Y-103432288D01*
X91477403Y-103438582D01*
X91463543Y-103443541D01*
X91449264Y-103447118D01*
X91434703Y-103449278D01*
X91420000Y-103450000D01*
X91120000Y-103450000D01*
X91105297Y-103449278D01*
X91090736Y-103447118D01*
X91076457Y-103443541D01*
X91062597Y-103438582D01*
X91049290Y-103432288D01*
X91036664Y-103424720D01*
X91024841Y-103415952D01*
X91013934Y-103406066D01*
X91004048Y-103395159D01*
X90995280Y-103383336D01*
X90987712Y-103370710D01*
X90981418Y-103357403D01*
X90976459Y-103343543D01*
X90972882Y-103329264D01*
X90970722Y-103314703D01*
X90970000Y-103300000D01*
X90970000Y-101650000D01*
X90970722Y-101635297D01*
X90972882Y-101620736D01*
X90976459Y-101606457D01*
X90981418Y-101592597D01*
X90987712Y-101579290D01*
X90995280Y-101566664D01*
X91004048Y-101554841D01*
X91013934Y-101543934D01*
X91024841Y-101534048D01*
X91036664Y-101525280D01*
X91049290Y-101517712D01*
X91062597Y-101511418D01*
X91076457Y-101506459D01*
X91090736Y-101502882D01*
X91105297Y-101500722D01*
X91120000Y-101500000D01*
X91420000Y-101500000D01*
X91434703Y-101500722D01*
X91434703Y-101500722D01*
G37*
D20*
X91270000Y-102475000D03*
D15*
G36*
X90164703Y-101500722D02*
G01*
X90179264Y-101502882D01*
X90193543Y-101506459D01*
X90207403Y-101511418D01*
X90220710Y-101517712D01*
X90233336Y-101525280D01*
X90245159Y-101534048D01*
X90256066Y-101543934D01*
X90265952Y-101554841D01*
X90274720Y-101566664D01*
X90282288Y-101579290D01*
X90288582Y-101592597D01*
X90293541Y-101606457D01*
X90297118Y-101620736D01*
X90299278Y-101635297D01*
X90300000Y-101650000D01*
X90300000Y-103300000D01*
X90299278Y-103314703D01*
X90297118Y-103329264D01*
X90293541Y-103343543D01*
X90288582Y-103357403D01*
X90282288Y-103370710D01*
X90274720Y-103383336D01*
X90265952Y-103395159D01*
X90256066Y-103406066D01*
X90245159Y-103415952D01*
X90233336Y-103424720D01*
X90220710Y-103432288D01*
X90207403Y-103438582D01*
X90193543Y-103443541D01*
X90179264Y-103447118D01*
X90164703Y-103449278D01*
X90150000Y-103450000D01*
X89850000Y-103450000D01*
X89835297Y-103449278D01*
X89820736Y-103447118D01*
X89806457Y-103443541D01*
X89792597Y-103438582D01*
X89779290Y-103432288D01*
X89766664Y-103424720D01*
X89754841Y-103415952D01*
X89743934Y-103406066D01*
X89734048Y-103395159D01*
X89725280Y-103383336D01*
X89717712Y-103370710D01*
X89711418Y-103357403D01*
X89706459Y-103343543D01*
X89702882Y-103329264D01*
X89700722Y-103314703D01*
X89700000Y-103300000D01*
X89700000Y-101650000D01*
X89700722Y-101635297D01*
X89702882Y-101620736D01*
X89706459Y-101606457D01*
X89711418Y-101592597D01*
X89717712Y-101579290D01*
X89725280Y-101566664D01*
X89734048Y-101554841D01*
X89743934Y-101543934D01*
X89754841Y-101534048D01*
X89766664Y-101525280D01*
X89779290Y-101517712D01*
X89792597Y-101511418D01*
X89806457Y-101506459D01*
X89820736Y-101502882D01*
X89835297Y-101500722D01*
X89850000Y-101500000D01*
X90150000Y-101500000D01*
X90164703Y-101500722D01*
X90164703Y-101500722D01*
G37*
D20*
X90000000Y-102475000D03*
D15*
G36*
X88894703Y-101500722D02*
G01*
X88909264Y-101502882D01*
X88923543Y-101506459D01*
X88937403Y-101511418D01*
X88950710Y-101517712D01*
X88963336Y-101525280D01*
X88975159Y-101534048D01*
X88986066Y-101543934D01*
X88995952Y-101554841D01*
X89004720Y-101566664D01*
X89012288Y-101579290D01*
X89018582Y-101592597D01*
X89023541Y-101606457D01*
X89027118Y-101620736D01*
X89029278Y-101635297D01*
X89030000Y-101650000D01*
X89030000Y-103300000D01*
X89029278Y-103314703D01*
X89027118Y-103329264D01*
X89023541Y-103343543D01*
X89018582Y-103357403D01*
X89012288Y-103370710D01*
X89004720Y-103383336D01*
X88995952Y-103395159D01*
X88986066Y-103406066D01*
X88975159Y-103415952D01*
X88963336Y-103424720D01*
X88950710Y-103432288D01*
X88937403Y-103438582D01*
X88923543Y-103443541D01*
X88909264Y-103447118D01*
X88894703Y-103449278D01*
X88880000Y-103450000D01*
X88580000Y-103450000D01*
X88565297Y-103449278D01*
X88550736Y-103447118D01*
X88536457Y-103443541D01*
X88522597Y-103438582D01*
X88509290Y-103432288D01*
X88496664Y-103424720D01*
X88484841Y-103415952D01*
X88473934Y-103406066D01*
X88464048Y-103395159D01*
X88455280Y-103383336D01*
X88447712Y-103370710D01*
X88441418Y-103357403D01*
X88436459Y-103343543D01*
X88432882Y-103329264D01*
X88430722Y-103314703D01*
X88430000Y-103300000D01*
X88430000Y-101650000D01*
X88430722Y-101635297D01*
X88432882Y-101620736D01*
X88436459Y-101606457D01*
X88441418Y-101592597D01*
X88447712Y-101579290D01*
X88455280Y-101566664D01*
X88464048Y-101554841D01*
X88473934Y-101543934D01*
X88484841Y-101534048D01*
X88496664Y-101525280D01*
X88509290Y-101517712D01*
X88522597Y-101511418D01*
X88536457Y-101506459D01*
X88550736Y-101502882D01*
X88565297Y-101500722D01*
X88580000Y-101500000D01*
X88880000Y-101500000D01*
X88894703Y-101500722D01*
X88894703Y-101500722D01*
G37*
D20*
X88730000Y-102475000D03*
D15*
G36*
X87624703Y-101500722D02*
G01*
X87639264Y-101502882D01*
X87653543Y-101506459D01*
X87667403Y-101511418D01*
X87680710Y-101517712D01*
X87693336Y-101525280D01*
X87705159Y-101534048D01*
X87716066Y-101543934D01*
X87725952Y-101554841D01*
X87734720Y-101566664D01*
X87742288Y-101579290D01*
X87748582Y-101592597D01*
X87753541Y-101606457D01*
X87757118Y-101620736D01*
X87759278Y-101635297D01*
X87760000Y-101650000D01*
X87760000Y-103300000D01*
X87759278Y-103314703D01*
X87757118Y-103329264D01*
X87753541Y-103343543D01*
X87748582Y-103357403D01*
X87742288Y-103370710D01*
X87734720Y-103383336D01*
X87725952Y-103395159D01*
X87716066Y-103406066D01*
X87705159Y-103415952D01*
X87693336Y-103424720D01*
X87680710Y-103432288D01*
X87667403Y-103438582D01*
X87653543Y-103443541D01*
X87639264Y-103447118D01*
X87624703Y-103449278D01*
X87610000Y-103450000D01*
X87310000Y-103450000D01*
X87295297Y-103449278D01*
X87280736Y-103447118D01*
X87266457Y-103443541D01*
X87252597Y-103438582D01*
X87239290Y-103432288D01*
X87226664Y-103424720D01*
X87214841Y-103415952D01*
X87203934Y-103406066D01*
X87194048Y-103395159D01*
X87185280Y-103383336D01*
X87177712Y-103370710D01*
X87171418Y-103357403D01*
X87166459Y-103343543D01*
X87162882Y-103329264D01*
X87160722Y-103314703D01*
X87160000Y-103300000D01*
X87160000Y-101650000D01*
X87160722Y-101635297D01*
X87162882Y-101620736D01*
X87166459Y-101606457D01*
X87171418Y-101592597D01*
X87177712Y-101579290D01*
X87185280Y-101566664D01*
X87194048Y-101554841D01*
X87203934Y-101543934D01*
X87214841Y-101534048D01*
X87226664Y-101525280D01*
X87239290Y-101517712D01*
X87252597Y-101511418D01*
X87266457Y-101506459D01*
X87280736Y-101502882D01*
X87295297Y-101500722D01*
X87310000Y-101500000D01*
X87610000Y-101500000D01*
X87624703Y-101500722D01*
X87624703Y-101500722D01*
G37*
D20*
X87460000Y-102475000D03*
D15*
G36*
X86354703Y-101500722D02*
G01*
X86369264Y-101502882D01*
X86383543Y-101506459D01*
X86397403Y-101511418D01*
X86410710Y-101517712D01*
X86423336Y-101525280D01*
X86435159Y-101534048D01*
X86446066Y-101543934D01*
X86455952Y-101554841D01*
X86464720Y-101566664D01*
X86472288Y-101579290D01*
X86478582Y-101592597D01*
X86483541Y-101606457D01*
X86487118Y-101620736D01*
X86489278Y-101635297D01*
X86490000Y-101650000D01*
X86490000Y-103300000D01*
X86489278Y-103314703D01*
X86487118Y-103329264D01*
X86483541Y-103343543D01*
X86478582Y-103357403D01*
X86472288Y-103370710D01*
X86464720Y-103383336D01*
X86455952Y-103395159D01*
X86446066Y-103406066D01*
X86435159Y-103415952D01*
X86423336Y-103424720D01*
X86410710Y-103432288D01*
X86397403Y-103438582D01*
X86383543Y-103443541D01*
X86369264Y-103447118D01*
X86354703Y-103449278D01*
X86340000Y-103450000D01*
X86040000Y-103450000D01*
X86025297Y-103449278D01*
X86010736Y-103447118D01*
X85996457Y-103443541D01*
X85982597Y-103438582D01*
X85969290Y-103432288D01*
X85956664Y-103424720D01*
X85944841Y-103415952D01*
X85933934Y-103406066D01*
X85924048Y-103395159D01*
X85915280Y-103383336D01*
X85907712Y-103370710D01*
X85901418Y-103357403D01*
X85896459Y-103343543D01*
X85892882Y-103329264D01*
X85890722Y-103314703D01*
X85890000Y-103300000D01*
X85890000Y-101650000D01*
X85890722Y-101635297D01*
X85892882Y-101620736D01*
X85896459Y-101606457D01*
X85901418Y-101592597D01*
X85907712Y-101579290D01*
X85915280Y-101566664D01*
X85924048Y-101554841D01*
X85933934Y-101543934D01*
X85944841Y-101534048D01*
X85956664Y-101525280D01*
X85969290Y-101517712D01*
X85982597Y-101511418D01*
X85996457Y-101506459D01*
X86010736Y-101502882D01*
X86025297Y-101500722D01*
X86040000Y-101500000D01*
X86340000Y-101500000D01*
X86354703Y-101500722D01*
X86354703Y-101500722D01*
G37*
D20*
X86190000Y-102475000D03*
D21*
X89365000Y-79100000D03*
X91905000Y-84000000D03*
X90635000Y-84000000D03*
X89365000Y-84000000D03*
X88095000Y-84000000D03*
X88095000Y-79100000D03*
X90635000Y-79100000D03*
X91905000Y-79100000D03*
D15*
G36*
X80952691Y-95526053D02*
G01*
X80973926Y-95529203D01*
X80994750Y-95534419D01*
X81014962Y-95541651D01*
X81034368Y-95550830D01*
X81052781Y-95561866D01*
X81070024Y-95574654D01*
X81085930Y-95589070D01*
X81100346Y-95604976D01*
X81113134Y-95622219D01*
X81124170Y-95640632D01*
X81133349Y-95660038D01*
X81140581Y-95680250D01*
X81145797Y-95701074D01*
X81148947Y-95722309D01*
X81150000Y-95743750D01*
X81150000Y-96256250D01*
X81148947Y-96277691D01*
X81145797Y-96298926D01*
X81140581Y-96319750D01*
X81133349Y-96339962D01*
X81124170Y-96359368D01*
X81113134Y-96377781D01*
X81100346Y-96395024D01*
X81085930Y-96410930D01*
X81070024Y-96425346D01*
X81052781Y-96438134D01*
X81034368Y-96449170D01*
X81014962Y-96458349D01*
X80994750Y-96465581D01*
X80973926Y-96470797D01*
X80952691Y-96473947D01*
X80931250Y-96475000D01*
X80493750Y-96475000D01*
X80472309Y-96473947D01*
X80451074Y-96470797D01*
X80430250Y-96465581D01*
X80410038Y-96458349D01*
X80390632Y-96449170D01*
X80372219Y-96438134D01*
X80354976Y-96425346D01*
X80339070Y-96410930D01*
X80324654Y-96395024D01*
X80311866Y-96377781D01*
X80300830Y-96359368D01*
X80291651Y-96339962D01*
X80284419Y-96319750D01*
X80279203Y-96298926D01*
X80276053Y-96277691D01*
X80275000Y-96256250D01*
X80275000Y-95743750D01*
X80276053Y-95722309D01*
X80279203Y-95701074D01*
X80284419Y-95680250D01*
X80291651Y-95660038D01*
X80300830Y-95640632D01*
X80311866Y-95622219D01*
X80324654Y-95604976D01*
X80339070Y-95589070D01*
X80354976Y-95574654D01*
X80372219Y-95561866D01*
X80390632Y-95550830D01*
X80410038Y-95541651D01*
X80430250Y-95534419D01*
X80451074Y-95529203D01*
X80472309Y-95526053D01*
X80493750Y-95525000D01*
X80931250Y-95525000D01*
X80952691Y-95526053D01*
X80952691Y-95526053D01*
G37*
D16*
X80712500Y-96000000D03*
D15*
G36*
X82527691Y-95526053D02*
G01*
X82548926Y-95529203D01*
X82569750Y-95534419D01*
X82589962Y-95541651D01*
X82609368Y-95550830D01*
X82627781Y-95561866D01*
X82645024Y-95574654D01*
X82660930Y-95589070D01*
X82675346Y-95604976D01*
X82688134Y-95622219D01*
X82699170Y-95640632D01*
X82708349Y-95660038D01*
X82715581Y-95680250D01*
X82720797Y-95701074D01*
X82723947Y-95722309D01*
X82725000Y-95743750D01*
X82725000Y-96256250D01*
X82723947Y-96277691D01*
X82720797Y-96298926D01*
X82715581Y-96319750D01*
X82708349Y-96339962D01*
X82699170Y-96359368D01*
X82688134Y-96377781D01*
X82675346Y-96395024D01*
X82660930Y-96410930D01*
X82645024Y-96425346D01*
X82627781Y-96438134D01*
X82609368Y-96449170D01*
X82589962Y-96458349D01*
X82569750Y-96465581D01*
X82548926Y-96470797D01*
X82527691Y-96473947D01*
X82506250Y-96475000D01*
X82068750Y-96475000D01*
X82047309Y-96473947D01*
X82026074Y-96470797D01*
X82005250Y-96465581D01*
X81985038Y-96458349D01*
X81965632Y-96449170D01*
X81947219Y-96438134D01*
X81929976Y-96425346D01*
X81914070Y-96410930D01*
X81899654Y-96395024D01*
X81886866Y-96377781D01*
X81875830Y-96359368D01*
X81866651Y-96339962D01*
X81859419Y-96319750D01*
X81854203Y-96298926D01*
X81851053Y-96277691D01*
X81850000Y-96256250D01*
X81850000Y-95743750D01*
X81851053Y-95722309D01*
X81854203Y-95701074D01*
X81859419Y-95680250D01*
X81866651Y-95660038D01*
X81875830Y-95640632D01*
X81886866Y-95622219D01*
X81899654Y-95604976D01*
X81914070Y-95589070D01*
X81929976Y-95574654D01*
X81947219Y-95561866D01*
X81965632Y-95550830D01*
X81985038Y-95541651D01*
X82005250Y-95534419D01*
X82026074Y-95529203D01*
X82047309Y-95526053D01*
X82068750Y-95525000D01*
X82506250Y-95525000D01*
X82527691Y-95526053D01*
X82527691Y-95526053D01*
G37*
D16*
X82287500Y-96000000D03*
D15*
G36*
X82277691Y-91851053D02*
G01*
X82298926Y-91854203D01*
X82319750Y-91859419D01*
X82339962Y-91866651D01*
X82359368Y-91875830D01*
X82377781Y-91886866D01*
X82395024Y-91899654D01*
X82410930Y-91914070D01*
X82425346Y-91929976D01*
X82438134Y-91947219D01*
X82449170Y-91965632D01*
X82458349Y-91985038D01*
X82465581Y-92005250D01*
X82470797Y-92026074D01*
X82473947Y-92047309D01*
X82475000Y-92068750D01*
X82475000Y-92506250D01*
X82473947Y-92527691D01*
X82470797Y-92548926D01*
X82465581Y-92569750D01*
X82458349Y-92589962D01*
X82449170Y-92609368D01*
X82438134Y-92627781D01*
X82425346Y-92645024D01*
X82410930Y-92660930D01*
X82395024Y-92675346D01*
X82377781Y-92688134D01*
X82359368Y-92699170D01*
X82339962Y-92708349D01*
X82319750Y-92715581D01*
X82298926Y-92720797D01*
X82277691Y-92723947D01*
X82256250Y-92725000D01*
X81743750Y-92725000D01*
X81722309Y-92723947D01*
X81701074Y-92720797D01*
X81680250Y-92715581D01*
X81660038Y-92708349D01*
X81640632Y-92699170D01*
X81622219Y-92688134D01*
X81604976Y-92675346D01*
X81589070Y-92660930D01*
X81574654Y-92645024D01*
X81561866Y-92627781D01*
X81550830Y-92609368D01*
X81541651Y-92589962D01*
X81534419Y-92569750D01*
X81529203Y-92548926D01*
X81526053Y-92527691D01*
X81525000Y-92506250D01*
X81525000Y-92068750D01*
X81526053Y-92047309D01*
X81529203Y-92026074D01*
X81534419Y-92005250D01*
X81541651Y-91985038D01*
X81550830Y-91965632D01*
X81561866Y-91947219D01*
X81574654Y-91929976D01*
X81589070Y-91914070D01*
X81604976Y-91899654D01*
X81622219Y-91886866D01*
X81640632Y-91875830D01*
X81660038Y-91866651D01*
X81680250Y-91859419D01*
X81701074Y-91854203D01*
X81722309Y-91851053D01*
X81743750Y-91850000D01*
X82256250Y-91850000D01*
X82277691Y-91851053D01*
X82277691Y-91851053D01*
G37*
D16*
X82000000Y-92287500D03*
D15*
G36*
X82277691Y-90276053D02*
G01*
X82298926Y-90279203D01*
X82319750Y-90284419D01*
X82339962Y-90291651D01*
X82359368Y-90300830D01*
X82377781Y-90311866D01*
X82395024Y-90324654D01*
X82410930Y-90339070D01*
X82425346Y-90354976D01*
X82438134Y-90372219D01*
X82449170Y-90390632D01*
X82458349Y-90410038D01*
X82465581Y-90430250D01*
X82470797Y-90451074D01*
X82473947Y-90472309D01*
X82475000Y-90493750D01*
X82475000Y-90931250D01*
X82473947Y-90952691D01*
X82470797Y-90973926D01*
X82465581Y-90994750D01*
X82458349Y-91014962D01*
X82449170Y-91034368D01*
X82438134Y-91052781D01*
X82425346Y-91070024D01*
X82410930Y-91085930D01*
X82395024Y-91100346D01*
X82377781Y-91113134D01*
X82359368Y-91124170D01*
X82339962Y-91133349D01*
X82319750Y-91140581D01*
X82298926Y-91145797D01*
X82277691Y-91148947D01*
X82256250Y-91150000D01*
X81743750Y-91150000D01*
X81722309Y-91148947D01*
X81701074Y-91145797D01*
X81680250Y-91140581D01*
X81660038Y-91133349D01*
X81640632Y-91124170D01*
X81622219Y-91113134D01*
X81604976Y-91100346D01*
X81589070Y-91085930D01*
X81574654Y-91070024D01*
X81561866Y-91052781D01*
X81550830Y-91034368D01*
X81541651Y-91014962D01*
X81534419Y-90994750D01*
X81529203Y-90973926D01*
X81526053Y-90952691D01*
X81525000Y-90931250D01*
X81525000Y-90493750D01*
X81526053Y-90472309D01*
X81529203Y-90451074D01*
X81534419Y-90430250D01*
X81541651Y-90410038D01*
X81550830Y-90390632D01*
X81561866Y-90372219D01*
X81574654Y-90354976D01*
X81589070Y-90339070D01*
X81604976Y-90324654D01*
X81622219Y-90311866D01*
X81640632Y-90300830D01*
X81660038Y-90291651D01*
X81680250Y-90284419D01*
X81701074Y-90279203D01*
X81722309Y-90276053D01*
X81743750Y-90275000D01*
X82256250Y-90275000D01*
X82277691Y-90276053D01*
X82277691Y-90276053D01*
G37*
D16*
X82000000Y-90712500D03*
D15*
G36*
X84277691Y-91851053D02*
G01*
X84298926Y-91854203D01*
X84319750Y-91859419D01*
X84339962Y-91866651D01*
X84359368Y-91875830D01*
X84377781Y-91886866D01*
X84395024Y-91899654D01*
X84410930Y-91914070D01*
X84425346Y-91929976D01*
X84438134Y-91947219D01*
X84449170Y-91965632D01*
X84458349Y-91985038D01*
X84465581Y-92005250D01*
X84470797Y-92026074D01*
X84473947Y-92047309D01*
X84475000Y-92068750D01*
X84475000Y-92506250D01*
X84473947Y-92527691D01*
X84470797Y-92548926D01*
X84465581Y-92569750D01*
X84458349Y-92589962D01*
X84449170Y-92609368D01*
X84438134Y-92627781D01*
X84425346Y-92645024D01*
X84410930Y-92660930D01*
X84395024Y-92675346D01*
X84377781Y-92688134D01*
X84359368Y-92699170D01*
X84339962Y-92708349D01*
X84319750Y-92715581D01*
X84298926Y-92720797D01*
X84277691Y-92723947D01*
X84256250Y-92725000D01*
X83743750Y-92725000D01*
X83722309Y-92723947D01*
X83701074Y-92720797D01*
X83680250Y-92715581D01*
X83660038Y-92708349D01*
X83640632Y-92699170D01*
X83622219Y-92688134D01*
X83604976Y-92675346D01*
X83589070Y-92660930D01*
X83574654Y-92645024D01*
X83561866Y-92627781D01*
X83550830Y-92609368D01*
X83541651Y-92589962D01*
X83534419Y-92569750D01*
X83529203Y-92548926D01*
X83526053Y-92527691D01*
X83525000Y-92506250D01*
X83525000Y-92068750D01*
X83526053Y-92047309D01*
X83529203Y-92026074D01*
X83534419Y-92005250D01*
X83541651Y-91985038D01*
X83550830Y-91965632D01*
X83561866Y-91947219D01*
X83574654Y-91929976D01*
X83589070Y-91914070D01*
X83604976Y-91899654D01*
X83622219Y-91886866D01*
X83640632Y-91875830D01*
X83660038Y-91866651D01*
X83680250Y-91859419D01*
X83701074Y-91854203D01*
X83722309Y-91851053D01*
X83743750Y-91850000D01*
X84256250Y-91850000D01*
X84277691Y-91851053D01*
X84277691Y-91851053D01*
G37*
D16*
X84000000Y-92287500D03*
D15*
G36*
X84277691Y-90276053D02*
G01*
X84298926Y-90279203D01*
X84319750Y-90284419D01*
X84339962Y-90291651D01*
X84359368Y-90300830D01*
X84377781Y-90311866D01*
X84395024Y-90324654D01*
X84410930Y-90339070D01*
X84425346Y-90354976D01*
X84438134Y-90372219D01*
X84449170Y-90390632D01*
X84458349Y-90410038D01*
X84465581Y-90430250D01*
X84470797Y-90451074D01*
X84473947Y-90472309D01*
X84475000Y-90493750D01*
X84475000Y-90931250D01*
X84473947Y-90952691D01*
X84470797Y-90973926D01*
X84465581Y-90994750D01*
X84458349Y-91014962D01*
X84449170Y-91034368D01*
X84438134Y-91052781D01*
X84425346Y-91070024D01*
X84410930Y-91085930D01*
X84395024Y-91100346D01*
X84377781Y-91113134D01*
X84359368Y-91124170D01*
X84339962Y-91133349D01*
X84319750Y-91140581D01*
X84298926Y-91145797D01*
X84277691Y-91148947D01*
X84256250Y-91150000D01*
X83743750Y-91150000D01*
X83722309Y-91148947D01*
X83701074Y-91145797D01*
X83680250Y-91140581D01*
X83660038Y-91133349D01*
X83640632Y-91124170D01*
X83622219Y-91113134D01*
X83604976Y-91100346D01*
X83589070Y-91085930D01*
X83574654Y-91070024D01*
X83561866Y-91052781D01*
X83550830Y-91034368D01*
X83541651Y-91014962D01*
X83534419Y-90994750D01*
X83529203Y-90973926D01*
X83526053Y-90952691D01*
X83525000Y-90931250D01*
X83525000Y-90493750D01*
X83526053Y-90472309D01*
X83529203Y-90451074D01*
X83534419Y-90430250D01*
X83541651Y-90410038D01*
X83550830Y-90390632D01*
X83561866Y-90372219D01*
X83574654Y-90354976D01*
X83589070Y-90339070D01*
X83604976Y-90324654D01*
X83622219Y-90311866D01*
X83640632Y-90300830D01*
X83660038Y-90291651D01*
X83680250Y-90284419D01*
X83701074Y-90279203D01*
X83722309Y-90276053D01*
X83743750Y-90275000D01*
X84256250Y-90275000D01*
X84277691Y-90276053D01*
X84277691Y-90276053D01*
G37*
D16*
X84000000Y-90712500D03*
D15*
G36*
X95865191Y-92526053D02*
G01*
X95886426Y-92529203D01*
X95907250Y-92534419D01*
X95927462Y-92541651D01*
X95946868Y-92550830D01*
X95965281Y-92561866D01*
X95982524Y-92574654D01*
X95998430Y-92589070D01*
X96012846Y-92604976D01*
X96025634Y-92622219D01*
X96036670Y-92640632D01*
X96045849Y-92660038D01*
X96053081Y-92680250D01*
X96058297Y-92701074D01*
X96061447Y-92722309D01*
X96062500Y-92743750D01*
X96062500Y-93256250D01*
X96061447Y-93277691D01*
X96058297Y-93298926D01*
X96053081Y-93319750D01*
X96045849Y-93339962D01*
X96036670Y-93359368D01*
X96025634Y-93377781D01*
X96012846Y-93395024D01*
X95998430Y-93410930D01*
X95982524Y-93425346D01*
X95965281Y-93438134D01*
X95946868Y-93449170D01*
X95927462Y-93458349D01*
X95907250Y-93465581D01*
X95886426Y-93470797D01*
X95865191Y-93473947D01*
X95843750Y-93475000D01*
X95406250Y-93475000D01*
X95384809Y-93473947D01*
X95363574Y-93470797D01*
X95342750Y-93465581D01*
X95322538Y-93458349D01*
X95303132Y-93449170D01*
X95284719Y-93438134D01*
X95267476Y-93425346D01*
X95251570Y-93410930D01*
X95237154Y-93395024D01*
X95224366Y-93377781D01*
X95213330Y-93359368D01*
X95204151Y-93339962D01*
X95196919Y-93319750D01*
X95191703Y-93298926D01*
X95188553Y-93277691D01*
X95187500Y-93256250D01*
X95187500Y-92743750D01*
X95188553Y-92722309D01*
X95191703Y-92701074D01*
X95196919Y-92680250D01*
X95204151Y-92660038D01*
X95213330Y-92640632D01*
X95224366Y-92622219D01*
X95237154Y-92604976D01*
X95251570Y-92589070D01*
X95267476Y-92574654D01*
X95284719Y-92561866D01*
X95303132Y-92550830D01*
X95322538Y-92541651D01*
X95342750Y-92534419D01*
X95363574Y-92529203D01*
X95384809Y-92526053D01*
X95406250Y-92525000D01*
X95843750Y-92525000D01*
X95865191Y-92526053D01*
X95865191Y-92526053D01*
G37*
D16*
X95625000Y-93000000D03*
D15*
G36*
X97440191Y-92526053D02*
G01*
X97461426Y-92529203D01*
X97482250Y-92534419D01*
X97502462Y-92541651D01*
X97521868Y-92550830D01*
X97540281Y-92561866D01*
X97557524Y-92574654D01*
X97573430Y-92589070D01*
X97587846Y-92604976D01*
X97600634Y-92622219D01*
X97611670Y-92640632D01*
X97620849Y-92660038D01*
X97628081Y-92680250D01*
X97633297Y-92701074D01*
X97636447Y-92722309D01*
X97637500Y-92743750D01*
X97637500Y-93256250D01*
X97636447Y-93277691D01*
X97633297Y-93298926D01*
X97628081Y-93319750D01*
X97620849Y-93339962D01*
X97611670Y-93359368D01*
X97600634Y-93377781D01*
X97587846Y-93395024D01*
X97573430Y-93410930D01*
X97557524Y-93425346D01*
X97540281Y-93438134D01*
X97521868Y-93449170D01*
X97502462Y-93458349D01*
X97482250Y-93465581D01*
X97461426Y-93470797D01*
X97440191Y-93473947D01*
X97418750Y-93475000D01*
X96981250Y-93475000D01*
X96959809Y-93473947D01*
X96938574Y-93470797D01*
X96917750Y-93465581D01*
X96897538Y-93458349D01*
X96878132Y-93449170D01*
X96859719Y-93438134D01*
X96842476Y-93425346D01*
X96826570Y-93410930D01*
X96812154Y-93395024D01*
X96799366Y-93377781D01*
X96788330Y-93359368D01*
X96779151Y-93339962D01*
X96771919Y-93319750D01*
X96766703Y-93298926D01*
X96763553Y-93277691D01*
X96762500Y-93256250D01*
X96762500Y-92743750D01*
X96763553Y-92722309D01*
X96766703Y-92701074D01*
X96771919Y-92680250D01*
X96779151Y-92660038D01*
X96788330Y-92640632D01*
X96799366Y-92622219D01*
X96812154Y-92604976D01*
X96826570Y-92589070D01*
X96842476Y-92574654D01*
X96859719Y-92561866D01*
X96878132Y-92550830D01*
X96897538Y-92541651D01*
X96917750Y-92534419D01*
X96938574Y-92529203D01*
X96959809Y-92526053D01*
X96981250Y-92525000D01*
X97418750Y-92525000D01*
X97440191Y-92526053D01*
X97440191Y-92526053D01*
G37*
D16*
X97200000Y-93000000D03*
D15*
G36*
X97215191Y-104026053D02*
G01*
X97236426Y-104029203D01*
X97257250Y-104034419D01*
X97277462Y-104041651D01*
X97296868Y-104050830D01*
X97315281Y-104061866D01*
X97332524Y-104074654D01*
X97348430Y-104089070D01*
X97362846Y-104104976D01*
X97375634Y-104122219D01*
X97386670Y-104140632D01*
X97395849Y-104160038D01*
X97403081Y-104180250D01*
X97408297Y-104201074D01*
X97411447Y-104222309D01*
X97412500Y-104243750D01*
X97412500Y-104756250D01*
X97411447Y-104777691D01*
X97408297Y-104798926D01*
X97403081Y-104819750D01*
X97395849Y-104839962D01*
X97386670Y-104859368D01*
X97375634Y-104877781D01*
X97362846Y-104895024D01*
X97348430Y-104910930D01*
X97332524Y-104925346D01*
X97315281Y-104938134D01*
X97296868Y-104949170D01*
X97277462Y-104958349D01*
X97257250Y-104965581D01*
X97236426Y-104970797D01*
X97215191Y-104973947D01*
X97193750Y-104975000D01*
X96756250Y-104975000D01*
X96734809Y-104973947D01*
X96713574Y-104970797D01*
X96692750Y-104965581D01*
X96672538Y-104958349D01*
X96653132Y-104949170D01*
X96634719Y-104938134D01*
X96617476Y-104925346D01*
X96601570Y-104910930D01*
X96587154Y-104895024D01*
X96574366Y-104877781D01*
X96563330Y-104859368D01*
X96554151Y-104839962D01*
X96546919Y-104819750D01*
X96541703Y-104798926D01*
X96538553Y-104777691D01*
X96537500Y-104756250D01*
X96537500Y-104243750D01*
X96538553Y-104222309D01*
X96541703Y-104201074D01*
X96546919Y-104180250D01*
X96554151Y-104160038D01*
X96563330Y-104140632D01*
X96574366Y-104122219D01*
X96587154Y-104104976D01*
X96601570Y-104089070D01*
X96617476Y-104074654D01*
X96634719Y-104061866D01*
X96653132Y-104050830D01*
X96672538Y-104041651D01*
X96692750Y-104034419D01*
X96713574Y-104029203D01*
X96734809Y-104026053D01*
X96756250Y-104025000D01*
X97193750Y-104025000D01*
X97215191Y-104026053D01*
X97215191Y-104026053D01*
G37*
D16*
X96975000Y-104500000D03*
D15*
G36*
X95640191Y-104026053D02*
G01*
X95661426Y-104029203D01*
X95682250Y-104034419D01*
X95702462Y-104041651D01*
X95721868Y-104050830D01*
X95740281Y-104061866D01*
X95757524Y-104074654D01*
X95773430Y-104089070D01*
X95787846Y-104104976D01*
X95800634Y-104122219D01*
X95811670Y-104140632D01*
X95820849Y-104160038D01*
X95828081Y-104180250D01*
X95833297Y-104201074D01*
X95836447Y-104222309D01*
X95837500Y-104243750D01*
X95837500Y-104756250D01*
X95836447Y-104777691D01*
X95833297Y-104798926D01*
X95828081Y-104819750D01*
X95820849Y-104839962D01*
X95811670Y-104859368D01*
X95800634Y-104877781D01*
X95787846Y-104895024D01*
X95773430Y-104910930D01*
X95757524Y-104925346D01*
X95740281Y-104938134D01*
X95721868Y-104949170D01*
X95702462Y-104958349D01*
X95682250Y-104965581D01*
X95661426Y-104970797D01*
X95640191Y-104973947D01*
X95618750Y-104975000D01*
X95181250Y-104975000D01*
X95159809Y-104973947D01*
X95138574Y-104970797D01*
X95117750Y-104965581D01*
X95097538Y-104958349D01*
X95078132Y-104949170D01*
X95059719Y-104938134D01*
X95042476Y-104925346D01*
X95026570Y-104910930D01*
X95012154Y-104895024D01*
X94999366Y-104877781D01*
X94988330Y-104859368D01*
X94979151Y-104839962D01*
X94971919Y-104819750D01*
X94966703Y-104798926D01*
X94963553Y-104777691D01*
X94962500Y-104756250D01*
X94962500Y-104243750D01*
X94963553Y-104222309D01*
X94966703Y-104201074D01*
X94971919Y-104180250D01*
X94979151Y-104160038D01*
X94988330Y-104140632D01*
X94999366Y-104122219D01*
X95012154Y-104104976D01*
X95026570Y-104089070D01*
X95042476Y-104074654D01*
X95059719Y-104061866D01*
X95078132Y-104050830D01*
X95097538Y-104041651D01*
X95117750Y-104034419D01*
X95138574Y-104029203D01*
X95159809Y-104026053D01*
X95181250Y-104025000D01*
X95618750Y-104025000D01*
X95640191Y-104026053D01*
X95640191Y-104026053D01*
G37*
D16*
X95400000Y-104500000D03*
D15*
G36*
X95877691Y-96576053D02*
G01*
X95898926Y-96579203D01*
X95919750Y-96584419D01*
X95939962Y-96591651D01*
X95959368Y-96600830D01*
X95977781Y-96611866D01*
X95995024Y-96624654D01*
X96010930Y-96639070D01*
X96025346Y-96654976D01*
X96038134Y-96672219D01*
X96049170Y-96690632D01*
X96058349Y-96710038D01*
X96065581Y-96730250D01*
X96070797Y-96751074D01*
X96073947Y-96772309D01*
X96075000Y-96793750D01*
X96075000Y-97231250D01*
X96073947Y-97252691D01*
X96070797Y-97273926D01*
X96065581Y-97294750D01*
X96058349Y-97314962D01*
X96049170Y-97334368D01*
X96038134Y-97352781D01*
X96025346Y-97370024D01*
X96010930Y-97385930D01*
X95995024Y-97400346D01*
X95977781Y-97413134D01*
X95959368Y-97424170D01*
X95939962Y-97433349D01*
X95919750Y-97440581D01*
X95898926Y-97445797D01*
X95877691Y-97448947D01*
X95856250Y-97450000D01*
X95343750Y-97450000D01*
X95322309Y-97448947D01*
X95301074Y-97445797D01*
X95280250Y-97440581D01*
X95260038Y-97433349D01*
X95240632Y-97424170D01*
X95222219Y-97413134D01*
X95204976Y-97400346D01*
X95189070Y-97385930D01*
X95174654Y-97370024D01*
X95161866Y-97352781D01*
X95150830Y-97334368D01*
X95141651Y-97314962D01*
X95134419Y-97294750D01*
X95129203Y-97273926D01*
X95126053Y-97252691D01*
X95125000Y-97231250D01*
X95125000Y-96793750D01*
X95126053Y-96772309D01*
X95129203Y-96751074D01*
X95134419Y-96730250D01*
X95141651Y-96710038D01*
X95150830Y-96690632D01*
X95161866Y-96672219D01*
X95174654Y-96654976D01*
X95189070Y-96639070D01*
X95204976Y-96624654D01*
X95222219Y-96611866D01*
X95240632Y-96600830D01*
X95260038Y-96591651D01*
X95280250Y-96584419D01*
X95301074Y-96579203D01*
X95322309Y-96576053D01*
X95343750Y-96575000D01*
X95856250Y-96575000D01*
X95877691Y-96576053D01*
X95877691Y-96576053D01*
G37*
D16*
X95600000Y-97012500D03*
D15*
G36*
X95877691Y-98151053D02*
G01*
X95898926Y-98154203D01*
X95919750Y-98159419D01*
X95939962Y-98166651D01*
X95959368Y-98175830D01*
X95977781Y-98186866D01*
X95995024Y-98199654D01*
X96010930Y-98214070D01*
X96025346Y-98229976D01*
X96038134Y-98247219D01*
X96049170Y-98265632D01*
X96058349Y-98285038D01*
X96065581Y-98305250D01*
X96070797Y-98326074D01*
X96073947Y-98347309D01*
X96075000Y-98368750D01*
X96075000Y-98806250D01*
X96073947Y-98827691D01*
X96070797Y-98848926D01*
X96065581Y-98869750D01*
X96058349Y-98889962D01*
X96049170Y-98909368D01*
X96038134Y-98927781D01*
X96025346Y-98945024D01*
X96010930Y-98960930D01*
X95995024Y-98975346D01*
X95977781Y-98988134D01*
X95959368Y-98999170D01*
X95939962Y-99008349D01*
X95919750Y-99015581D01*
X95898926Y-99020797D01*
X95877691Y-99023947D01*
X95856250Y-99025000D01*
X95343750Y-99025000D01*
X95322309Y-99023947D01*
X95301074Y-99020797D01*
X95280250Y-99015581D01*
X95260038Y-99008349D01*
X95240632Y-98999170D01*
X95222219Y-98988134D01*
X95204976Y-98975346D01*
X95189070Y-98960930D01*
X95174654Y-98945024D01*
X95161866Y-98927781D01*
X95150830Y-98909368D01*
X95141651Y-98889962D01*
X95134419Y-98869750D01*
X95129203Y-98848926D01*
X95126053Y-98827691D01*
X95125000Y-98806250D01*
X95125000Y-98368750D01*
X95126053Y-98347309D01*
X95129203Y-98326074D01*
X95134419Y-98305250D01*
X95141651Y-98285038D01*
X95150830Y-98265632D01*
X95161866Y-98247219D01*
X95174654Y-98229976D01*
X95189070Y-98214070D01*
X95204976Y-98199654D01*
X95222219Y-98186866D01*
X95240632Y-98175830D01*
X95260038Y-98166651D01*
X95280250Y-98159419D01*
X95301074Y-98154203D01*
X95322309Y-98151053D01*
X95343750Y-98150000D01*
X95856250Y-98150000D01*
X95877691Y-98151053D01*
X95877691Y-98151053D01*
G37*
D16*
X95600000Y-98587500D03*
D15*
G36*
X95865191Y-99926053D02*
G01*
X95886426Y-99929203D01*
X95907250Y-99934419D01*
X95927462Y-99941651D01*
X95946868Y-99950830D01*
X95965281Y-99961866D01*
X95982524Y-99974654D01*
X95998430Y-99989070D01*
X96012846Y-100004976D01*
X96025634Y-100022219D01*
X96036670Y-100040632D01*
X96045849Y-100060038D01*
X96053081Y-100080250D01*
X96058297Y-100101074D01*
X96061447Y-100122309D01*
X96062500Y-100143750D01*
X96062500Y-100656250D01*
X96061447Y-100677691D01*
X96058297Y-100698926D01*
X96053081Y-100719750D01*
X96045849Y-100739962D01*
X96036670Y-100759368D01*
X96025634Y-100777781D01*
X96012846Y-100795024D01*
X95998430Y-100810930D01*
X95982524Y-100825346D01*
X95965281Y-100838134D01*
X95946868Y-100849170D01*
X95927462Y-100858349D01*
X95907250Y-100865581D01*
X95886426Y-100870797D01*
X95865191Y-100873947D01*
X95843750Y-100875000D01*
X95406250Y-100875000D01*
X95384809Y-100873947D01*
X95363574Y-100870797D01*
X95342750Y-100865581D01*
X95322538Y-100858349D01*
X95303132Y-100849170D01*
X95284719Y-100838134D01*
X95267476Y-100825346D01*
X95251570Y-100810930D01*
X95237154Y-100795024D01*
X95224366Y-100777781D01*
X95213330Y-100759368D01*
X95204151Y-100739962D01*
X95196919Y-100719750D01*
X95191703Y-100698926D01*
X95188553Y-100677691D01*
X95187500Y-100656250D01*
X95187500Y-100143750D01*
X95188553Y-100122309D01*
X95191703Y-100101074D01*
X95196919Y-100080250D01*
X95204151Y-100060038D01*
X95213330Y-100040632D01*
X95224366Y-100022219D01*
X95237154Y-100004976D01*
X95251570Y-99989070D01*
X95267476Y-99974654D01*
X95284719Y-99961866D01*
X95303132Y-99950830D01*
X95322538Y-99941651D01*
X95342750Y-99934419D01*
X95363574Y-99929203D01*
X95384809Y-99926053D01*
X95406250Y-99925000D01*
X95843750Y-99925000D01*
X95865191Y-99926053D01*
X95865191Y-99926053D01*
G37*
D16*
X95625000Y-100400000D03*
D15*
G36*
X97440191Y-99926053D02*
G01*
X97461426Y-99929203D01*
X97482250Y-99934419D01*
X97502462Y-99941651D01*
X97521868Y-99950830D01*
X97540281Y-99961866D01*
X97557524Y-99974654D01*
X97573430Y-99989070D01*
X97587846Y-100004976D01*
X97600634Y-100022219D01*
X97611670Y-100040632D01*
X97620849Y-100060038D01*
X97628081Y-100080250D01*
X97633297Y-100101074D01*
X97636447Y-100122309D01*
X97637500Y-100143750D01*
X97637500Y-100656250D01*
X97636447Y-100677691D01*
X97633297Y-100698926D01*
X97628081Y-100719750D01*
X97620849Y-100739962D01*
X97611670Y-100759368D01*
X97600634Y-100777781D01*
X97587846Y-100795024D01*
X97573430Y-100810930D01*
X97557524Y-100825346D01*
X97540281Y-100838134D01*
X97521868Y-100849170D01*
X97502462Y-100858349D01*
X97482250Y-100865581D01*
X97461426Y-100870797D01*
X97440191Y-100873947D01*
X97418750Y-100875000D01*
X96981250Y-100875000D01*
X96959809Y-100873947D01*
X96938574Y-100870797D01*
X96917750Y-100865581D01*
X96897538Y-100858349D01*
X96878132Y-100849170D01*
X96859719Y-100838134D01*
X96842476Y-100825346D01*
X96826570Y-100810930D01*
X96812154Y-100795024D01*
X96799366Y-100777781D01*
X96788330Y-100759368D01*
X96779151Y-100739962D01*
X96771919Y-100719750D01*
X96766703Y-100698926D01*
X96763553Y-100677691D01*
X96762500Y-100656250D01*
X96762500Y-100143750D01*
X96763553Y-100122309D01*
X96766703Y-100101074D01*
X96771919Y-100080250D01*
X96779151Y-100060038D01*
X96788330Y-100040632D01*
X96799366Y-100022219D01*
X96812154Y-100004976D01*
X96826570Y-99989070D01*
X96842476Y-99974654D01*
X96859719Y-99961866D01*
X96878132Y-99950830D01*
X96897538Y-99941651D01*
X96917750Y-99934419D01*
X96938574Y-99929203D01*
X96959809Y-99926053D01*
X96981250Y-99925000D01*
X97418750Y-99925000D01*
X97440191Y-99926053D01*
X97440191Y-99926053D01*
G37*
D16*
X97200000Y-100400000D03*
D15*
G36*
X101877691Y-107951053D02*
G01*
X101898926Y-107954203D01*
X101919750Y-107959419D01*
X101939962Y-107966651D01*
X101959368Y-107975830D01*
X101977781Y-107986866D01*
X101995024Y-107999654D01*
X102010930Y-108014070D01*
X102025346Y-108029976D01*
X102038134Y-108047219D01*
X102049170Y-108065632D01*
X102058349Y-108085038D01*
X102065581Y-108105250D01*
X102070797Y-108126074D01*
X102073947Y-108147309D01*
X102075000Y-108168750D01*
X102075000Y-108606250D01*
X102073947Y-108627691D01*
X102070797Y-108648926D01*
X102065581Y-108669750D01*
X102058349Y-108689962D01*
X102049170Y-108709368D01*
X102038134Y-108727781D01*
X102025346Y-108745024D01*
X102010930Y-108760930D01*
X101995024Y-108775346D01*
X101977781Y-108788134D01*
X101959368Y-108799170D01*
X101939962Y-108808349D01*
X101919750Y-108815581D01*
X101898926Y-108820797D01*
X101877691Y-108823947D01*
X101856250Y-108825000D01*
X101343750Y-108825000D01*
X101322309Y-108823947D01*
X101301074Y-108820797D01*
X101280250Y-108815581D01*
X101260038Y-108808349D01*
X101240632Y-108799170D01*
X101222219Y-108788134D01*
X101204976Y-108775346D01*
X101189070Y-108760930D01*
X101174654Y-108745024D01*
X101161866Y-108727781D01*
X101150830Y-108709368D01*
X101141651Y-108689962D01*
X101134419Y-108669750D01*
X101129203Y-108648926D01*
X101126053Y-108627691D01*
X101125000Y-108606250D01*
X101125000Y-108168750D01*
X101126053Y-108147309D01*
X101129203Y-108126074D01*
X101134419Y-108105250D01*
X101141651Y-108085038D01*
X101150830Y-108065632D01*
X101161866Y-108047219D01*
X101174654Y-108029976D01*
X101189070Y-108014070D01*
X101204976Y-107999654D01*
X101222219Y-107986866D01*
X101240632Y-107975830D01*
X101260038Y-107966651D01*
X101280250Y-107959419D01*
X101301074Y-107954203D01*
X101322309Y-107951053D01*
X101343750Y-107950000D01*
X101856250Y-107950000D01*
X101877691Y-107951053D01*
X101877691Y-107951053D01*
G37*
D16*
X101600000Y-108387500D03*
D15*
G36*
X101877691Y-106376053D02*
G01*
X101898926Y-106379203D01*
X101919750Y-106384419D01*
X101939962Y-106391651D01*
X101959368Y-106400830D01*
X101977781Y-106411866D01*
X101995024Y-106424654D01*
X102010930Y-106439070D01*
X102025346Y-106454976D01*
X102038134Y-106472219D01*
X102049170Y-106490632D01*
X102058349Y-106510038D01*
X102065581Y-106530250D01*
X102070797Y-106551074D01*
X102073947Y-106572309D01*
X102075000Y-106593750D01*
X102075000Y-107031250D01*
X102073947Y-107052691D01*
X102070797Y-107073926D01*
X102065581Y-107094750D01*
X102058349Y-107114962D01*
X102049170Y-107134368D01*
X102038134Y-107152781D01*
X102025346Y-107170024D01*
X102010930Y-107185930D01*
X101995024Y-107200346D01*
X101977781Y-107213134D01*
X101959368Y-107224170D01*
X101939962Y-107233349D01*
X101919750Y-107240581D01*
X101898926Y-107245797D01*
X101877691Y-107248947D01*
X101856250Y-107250000D01*
X101343750Y-107250000D01*
X101322309Y-107248947D01*
X101301074Y-107245797D01*
X101280250Y-107240581D01*
X101260038Y-107233349D01*
X101240632Y-107224170D01*
X101222219Y-107213134D01*
X101204976Y-107200346D01*
X101189070Y-107185930D01*
X101174654Y-107170024D01*
X101161866Y-107152781D01*
X101150830Y-107134368D01*
X101141651Y-107114962D01*
X101134419Y-107094750D01*
X101129203Y-107073926D01*
X101126053Y-107052691D01*
X101125000Y-107031250D01*
X101125000Y-106593750D01*
X101126053Y-106572309D01*
X101129203Y-106551074D01*
X101134419Y-106530250D01*
X101141651Y-106510038D01*
X101150830Y-106490632D01*
X101161866Y-106472219D01*
X101174654Y-106454976D01*
X101189070Y-106439070D01*
X101204976Y-106424654D01*
X101222219Y-106411866D01*
X101240632Y-106400830D01*
X101260038Y-106391651D01*
X101280250Y-106384419D01*
X101301074Y-106379203D01*
X101322309Y-106376053D01*
X101343750Y-106375000D01*
X101856250Y-106375000D01*
X101877691Y-106376053D01*
X101877691Y-106376053D01*
G37*
D16*
X101600000Y-106812500D03*
D15*
G36*
X78677691Y-107951053D02*
G01*
X78698926Y-107954203D01*
X78719750Y-107959419D01*
X78739962Y-107966651D01*
X78759368Y-107975830D01*
X78777781Y-107986866D01*
X78795024Y-107999654D01*
X78810930Y-108014070D01*
X78825346Y-108029976D01*
X78838134Y-108047219D01*
X78849170Y-108065632D01*
X78858349Y-108085038D01*
X78865581Y-108105250D01*
X78870797Y-108126074D01*
X78873947Y-108147309D01*
X78875000Y-108168750D01*
X78875000Y-108606250D01*
X78873947Y-108627691D01*
X78870797Y-108648926D01*
X78865581Y-108669750D01*
X78858349Y-108689962D01*
X78849170Y-108709368D01*
X78838134Y-108727781D01*
X78825346Y-108745024D01*
X78810930Y-108760930D01*
X78795024Y-108775346D01*
X78777781Y-108788134D01*
X78759368Y-108799170D01*
X78739962Y-108808349D01*
X78719750Y-108815581D01*
X78698926Y-108820797D01*
X78677691Y-108823947D01*
X78656250Y-108825000D01*
X78143750Y-108825000D01*
X78122309Y-108823947D01*
X78101074Y-108820797D01*
X78080250Y-108815581D01*
X78060038Y-108808349D01*
X78040632Y-108799170D01*
X78022219Y-108788134D01*
X78004976Y-108775346D01*
X77989070Y-108760930D01*
X77974654Y-108745024D01*
X77961866Y-108727781D01*
X77950830Y-108709368D01*
X77941651Y-108689962D01*
X77934419Y-108669750D01*
X77929203Y-108648926D01*
X77926053Y-108627691D01*
X77925000Y-108606250D01*
X77925000Y-108168750D01*
X77926053Y-108147309D01*
X77929203Y-108126074D01*
X77934419Y-108105250D01*
X77941651Y-108085038D01*
X77950830Y-108065632D01*
X77961866Y-108047219D01*
X77974654Y-108029976D01*
X77989070Y-108014070D01*
X78004976Y-107999654D01*
X78022219Y-107986866D01*
X78040632Y-107975830D01*
X78060038Y-107966651D01*
X78080250Y-107959419D01*
X78101074Y-107954203D01*
X78122309Y-107951053D01*
X78143750Y-107950000D01*
X78656250Y-107950000D01*
X78677691Y-107951053D01*
X78677691Y-107951053D01*
G37*
D16*
X78400000Y-108387500D03*
D15*
G36*
X78677691Y-106376053D02*
G01*
X78698926Y-106379203D01*
X78719750Y-106384419D01*
X78739962Y-106391651D01*
X78759368Y-106400830D01*
X78777781Y-106411866D01*
X78795024Y-106424654D01*
X78810930Y-106439070D01*
X78825346Y-106454976D01*
X78838134Y-106472219D01*
X78849170Y-106490632D01*
X78858349Y-106510038D01*
X78865581Y-106530250D01*
X78870797Y-106551074D01*
X78873947Y-106572309D01*
X78875000Y-106593750D01*
X78875000Y-107031250D01*
X78873947Y-107052691D01*
X78870797Y-107073926D01*
X78865581Y-107094750D01*
X78858349Y-107114962D01*
X78849170Y-107134368D01*
X78838134Y-107152781D01*
X78825346Y-107170024D01*
X78810930Y-107185930D01*
X78795024Y-107200346D01*
X78777781Y-107213134D01*
X78759368Y-107224170D01*
X78739962Y-107233349D01*
X78719750Y-107240581D01*
X78698926Y-107245797D01*
X78677691Y-107248947D01*
X78656250Y-107250000D01*
X78143750Y-107250000D01*
X78122309Y-107248947D01*
X78101074Y-107245797D01*
X78080250Y-107240581D01*
X78060038Y-107233349D01*
X78040632Y-107224170D01*
X78022219Y-107213134D01*
X78004976Y-107200346D01*
X77989070Y-107185930D01*
X77974654Y-107170024D01*
X77961866Y-107152781D01*
X77950830Y-107134368D01*
X77941651Y-107114962D01*
X77934419Y-107094750D01*
X77929203Y-107073926D01*
X77926053Y-107052691D01*
X77925000Y-107031250D01*
X77925000Y-106593750D01*
X77926053Y-106572309D01*
X77929203Y-106551074D01*
X77934419Y-106530250D01*
X77941651Y-106510038D01*
X77950830Y-106490632D01*
X77961866Y-106472219D01*
X77974654Y-106454976D01*
X77989070Y-106439070D01*
X78004976Y-106424654D01*
X78022219Y-106411866D01*
X78040632Y-106400830D01*
X78060038Y-106391651D01*
X78080250Y-106384419D01*
X78101074Y-106379203D01*
X78122309Y-106376053D01*
X78143750Y-106375000D01*
X78656250Y-106375000D01*
X78677691Y-106376053D01*
X78677691Y-106376053D01*
G37*
D16*
X78400000Y-106812500D03*
D15*
G36*
X105577691Y-107751053D02*
G01*
X105598926Y-107754203D01*
X105619750Y-107759419D01*
X105639962Y-107766651D01*
X105659368Y-107775830D01*
X105677781Y-107786866D01*
X105695024Y-107799654D01*
X105710930Y-107814070D01*
X105725346Y-107829976D01*
X105738134Y-107847219D01*
X105749170Y-107865632D01*
X105758349Y-107885038D01*
X105765581Y-107905250D01*
X105770797Y-107926074D01*
X105773947Y-107947309D01*
X105775000Y-107968750D01*
X105775000Y-108406250D01*
X105773947Y-108427691D01*
X105770797Y-108448926D01*
X105765581Y-108469750D01*
X105758349Y-108489962D01*
X105749170Y-108509368D01*
X105738134Y-108527781D01*
X105725346Y-108545024D01*
X105710930Y-108560930D01*
X105695024Y-108575346D01*
X105677781Y-108588134D01*
X105659368Y-108599170D01*
X105639962Y-108608349D01*
X105619750Y-108615581D01*
X105598926Y-108620797D01*
X105577691Y-108623947D01*
X105556250Y-108625000D01*
X105043750Y-108625000D01*
X105022309Y-108623947D01*
X105001074Y-108620797D01*
X104980250Y-108615581D01*
X104960038Y-108608349D01*
X104940632Y-108599170D01*
X104922219Y-108588134D01*
X104904976Y-108575346D01*
X104889070Y-108560930D01*
X104874654Y-108545024D01*
X104861866Y-108527781D01*
X104850830Y-108509368D01*
X104841651Y-108489962D01*
X104834419Y-108469750D01*
X104829203Y-108448926D01*
X104826053Y-108427691D01*
X104825000Y-108406250D01*
X104825000Y-107968750D01*
X104826053Y-107947309D01*
X104829203Y-107926074D01*
X104834419Y-107905250D01*
X104841651Y-107885038D01*
X104850830Y-107865632D01*
X104861866Y-107847219D01*
X104874654Y-107829976D01*
X104889070Y-107814070D01*
X104904976Y-107799654D01*
X104922219Y-107786866D01*
X104940632Y-107775830D01*
X104960038Y-107766651D01*
X104980250Y-107759419D01*
X105001074Y-107754203D01*
X105022309Y-107751053D01*
X105043750Y-107750000D01*
X105556250Y-107750000D01*
X105577691Y-107751053D01*
X105577691Y-107751053D01*
G37*
D16*
X105300000Y-108187500D03*
D15*
G36*
X105577691Y-106176053D02*
G01*
X105598926Y-106179203D01*
X105619750Y-106184419D01*
X105639962Y-106191651D01*
X105659368Y-106200830D01*
X105677781Y-106211866D01*
X105695024Y-106224654D01*
X105710930Y-106239070D01*
X105725346Y-106254976D01*
X105738134Y-106272219D01*
X105749170Y-106290632D01*
X105758349Y-106310038D01*
X105765581Y-106330250D01*
X105770797Y-106351074D01*
X105773947Y-106372309D01*
X105775000Y-106393750D01*
X105775000Y-106831250D01*
X105773947Y-106852691D01*
X105770797Y-106873926D01*
X105765581Y-106894750D01*
X105758349Y-106914962D01*
X105749170Y-106934368D01*
X105738134Y-106952781D01*
X105725346Y-106970024D01*
X105710930Y-106985930D01*
X105695024Y-107000346D01*
X105677781Y-107013134D01*
X105659368Y-107024170D01*
X105639962Y-107033349D01*
X105619750Y-107040581D01*
X105598926Y-107045797D01*
X105577691Y-107048947D01*
X105556250Y-107050000D01*
X105043750Y-107050000D01*
X105022309Y-107048947D01*
X105001074Y-107045797D01*
X104980250Y-107040581D01*
X104960038Y-107033349D01*
X104940632Y-107024170D01*
X104922219Y-107013134D01*
X104904976Y-107000346D01*
X104889070Y-106985930D01*
X104874654Y-106970024D01*
X104861866Y-106952781D01*
X104850830Y-106934368D01*
X104841651Y-106914962D01*
X104834419Y-106894750D01*
X104829203Y-106873926D01*
X104826053Y-106852691D01*
X104825000Y-106831250D01*
X104825000Y-106393750D01*
X104826053Y-106372309D01*
X104829203Y-106351074D01*
X104834419Y-106330250D01*
X104841651Y-106310038D01*
X104850830Y-106290632D01*
X104861866Y-106272219D01*
X104874654Y-106254976D01*
X104889070Y-106239070D01*
X104904976Y-106224654D01*
X104922219Y-106211866D01*
X104940632Y-106200830D01*
X104960038Y-106191651D01*
X104980250Y-106184419D01*
X105001074Y-106179203D01*
X105022309Y-106176053D01*
X105043750Y-106175000D01*
X105556250Y-106175000D01*
X105577691Y-106176053D01*
X105577691Y-106176053D01*
G37*
D16*
X105300000Y-106612500D03*
D15*
G36*
X74927691Y-107701053D02*
G01*
X74948926Y-107704203D01*
X74969750Y-107709419D01*
X74989962Y-107716651D01*
X75009368Y-107725830D01*
X75027781Y-107736866D01*
X75045024Y-107749654D01*
X75060930Y-107764070D01*
X75075346Y-107779976D01*
X75088134Y-107797219D01*
X75099170Y-107815632D01*
X75108349Y-107835038D01*
X75115581Y-107855250D01*
X75120797Y-107876074D01*
X75123947Y-107897309D01*
X75125000Y-107918750D01*
X75125000Y-108356250D01*
X75123947Y-108377691D01*
X75120797Y-108398926D01*
X75115581Y-108419750D01*
X75108349Y-108439962D01*
X75099170Y-108459368D01*
X75088134Y-108477781D01*
X75075346Y-108495024D01*
X75060930Y-108510930D01*
X75045024Y-108525346D01*
X75027781Y-108538134D01*
X75009368Y-108549170D01*
X74989962Y-108558349D01*
X74969750Y-108565581D01*
X74948926Y-108570797D01*
X74927691Y-108573947D01*
X74906250Y-108575000D01*
X74393750Y-108575000D01*
X74372309Y-108573947D01*
X74351074Y-108570797D01*
X74330250Y-108565581D01*
X74310038Y-108558349D01*
X74290632Y-108549170D01*
X74272219Y-108538134D01*
X74254976Y-108525346D01*
X74239070Y-108510930D01*
X74224654Y-108495024D01*
X74211866Y-108477781D01*
X74200830Y-108459368D01*
X74191651Y-108439962D01*
X74184419Y-108419750D01*
X74179203Y-108398926D01*
X74176053Y-108377691D01*
X74175000Y-108356250D01*
X74175000Y-107918750D01*
X74176053Y-107897309D01*
X74179203Y-107876074D01*
X74184419Y-107855250D01*
X74191651Y-107835038D01*
X74200830Y-107815632D01*
X74211866Y-107797219D01*
X74224654Y-107779976D01*
X74239070Y-107764070D01*
X74254976Y-107749654D01*
X74272219Y-107736866D01*
X74290632Y-107725830D01*
X74310038Y-107716651D01*
X74330250Y-107709419D01*
X74351074Y-107704203D01*
X74372309Y-107701053D01*
X74393750Y-107700000D01*
X74906250Y-107700000D01*
X74927691Y-107701053D01*
X74927691Y-107701053D01*
G37*
D16*
X74650000Y-108137500D03*
D15*
G36*
X74927691Y-106126053D02*
G01*
X74948926Y-106129203D01*
X74969750Y-106134419D01*
X74989962Y-106141651D01*
X75009368Y-106150830D01*
X75027781Y-106161866D01*
X75045024Y-106174654D01*
X75060930Y-106189070D01*
X75075346Y-106204976D01*
X75088134Y-106222219D01*
X75099170Y-106240632D01*
X75108349Y-106260038D01*
X75115581Y-106280250D01*
X75120797Y-106301074D01*
X75123947Y-106322309D01*
X75125000Y-106343750D01*
X75125000Y-106781250D01*
X75123947Y-106802691D01*
X75120797Y-106823926D01*
X75115581Y-106844750D01*
X75108349Y-106864962D01*
X75099170Y-106884368D01*
X75088134Y-106902781D01*
X75075346Y-106920024D01*
X75060930Y-106935930D01*
X75045024Y-106950346D01*
X75027781Y-106963134D01*
X75009368Y-106974170D01*
X74989962Y-106983349D01*
X74969750Y-106990581D01*
X74948926Y-106995797D01*
X74927691Y-106998947D01*
X74906250Y-107000000D01*
X74393750Y-107000000D01*
X74372309Y-106998947D01*
X74351074Y-106995797D01*
X74330250Y-106990581D01*
X74310038Y-106983349D01*
X74290632Y-106974170D01*
X74272219Y-106963134D01*
X74254976Y-106950346D01*
X74239070Y-106935930D01*
X74224654Y-106920024D01*
X74211866Y-106902781D01*
X74200830Y-106884368D01*
X74191651Y-106864962D01*
X74184419Y-106844750D01*
X74179203Y-106823926D01*
X74176053Y-106802691D01*
X74175000Y-106781250D01*
X74175000Y-106343750D01*
X74176053Y-106322309D01*
X74179203Y-106301074D01*
X74184419Y-106280250D01*
X74191651Y-106260038D01*
X74200830Y-106240632D01*
X74211866Y-106222219D01*
X74224654Y-106204976D01*
X74239070Y-106189070D01*
X74254976Y-106174654D01*
X74272219Y-106161866D01*
X74290632Y-106150830D01*
X74310038Y-106141651D01*
X74330250Y-106134419D01*
X74351074Y-106129203D01*
X74372309Y-106126053D01*
X74393750Y-106125000D01*
X74906250Y-106125000D01*
X74927691Y-106126053D01*
X74927691Y-106126053D01*
G37*
D16*
X74650000Y-106562500D03*
D22*
X72050000Y-121050000D03*
X73950000Y-121050000D03*
X73000000Y-118950000D03*
X106050000Y-121050000D03*
X107950000Y-121050000D03*
X107000000Y-118950000D03*
X100850000Y-112150000D03*
X102750000Y-112150000D03*
X101800000Y-110050000D03*
X77250000Y-112150000D03*
X79150000Y-112150000D03*
X78200000Y-110050000D03*
D17*
X107100000Y-103650000D03*
X107100000Y-105150000D03*
X72900000Y-103590000D03*
X72900000Y-105090000D03*
D23*
X90675000Y-119725000D03*
X90675000Y-118275000D03*
D24*
X90750000Y-119000000D03*
D23*
X89325000Y-118275000D03*
D24*
X89250000Y-119000000D03*
D23*
X89325000Y-119725000D03*
D17*
X90000000Y-137000000D03*
X90000000Y-138500000D03*
X90000000Y-113000000D03*
X90000000Y-111500000D03*
D25*
X98469670Y-133469670D03*
D15*
G36*
X99035355Y-133469670D02*
G01*
X98469670Y-134035355D01*
X97903985Y-133469670D01*
X98469670Y-132903985D01*
X99035355Y-133469670D01*
X99035355Y-133469670D01*
G37*
D25*
X99530330Y-134530330D03*
D15*
G36*
X100096015Y-134530330D02*
G01*
X99530330Y-135096015D01*
X98964645Y-134530330D01*
X99530330Y-133964645D01*
X100096015Y-134530330D01*
X100096015Y-134530330D01*
G37*
D17*
X78000000Y-125000000D03*
X76500000Y-125000000D03*
D25*
X81530330Y-116530330D03*
D15*
G36*
X80964645Y-116530330D02*
G01*
X81530330Y-115964645D01*
X82096015Y-116530330D01*
X81530330Y-117096015D01*
X80964645Y-116530330D01*
X80964645Y-116530330D01*
G37*
D25*
X80469670Y-115469670D03*
D15*
G36*
X79903985Y-115469670D02*
G01*
X80469670Y-114903985D01*
X81035355Y-115469670D01*
X80469670Y-116035355D01*
X79903985Y-115469670D01*
X79903985Y-115469670D01*
G37*
D17*
X102000000Y-125000000D03*
X103500000Y-125000000D03*
D25*
X98500000Y-116500000D03*
D15*
G36*
X98500000Y-115934315D02*
G01*
X99065685Y-116500000D01*
X98500000Y-117065685D01*
X97934315Y-116500000D01*
X98500000Y-115934315D01*
X98500000Y-115934315D01*
G37*
D25*
X99560660Y-115439340D03*
D15*
G36*
X99560660Y-114873655D02*
G01*
X100126345Y-115439340D01*
X99560660Y-116005025D01*
X98994975Y-115439340D01*
X99560660Y-114873655D01*
X99560660Y-114873655D01*
G37*
D25*
X81530330Y-133469670D03*
D15*
G36*
X81530330Y-134035355D02*
G01*
X80964645Y-133469670D01*
X81530330Y-132903985D01*
X82096015Y-133469670D01*
X81530330Y-134035355D01*
X81530330Y-134035355D01*
G37*
D25*
X80469670Y-134530330D03*
D15*
G36*
X80469670Y-135096015D02*
G01*
X79903985Y-134530330D01*
X80469670Y-133964645D01*
X81035355Y-134530330D01*
X80469670Y-135096015D01*
X80469670Y-135096015D01*
G37*
D17*
X103600000Y-103350000D03*
X103600000Y-104850000D03*
X76400000Y-103350000D03*
X76400000Y-104850000D03*
D15*
G36*
X97477691Y-87988553D02*
G01*
X97498926Y-87991703D01*
X97519750Y-87996919D01*
X97539962Y-88004151D01*
X97559368Y-88013330D01*
X97577781Y-88024366D01*
X97595024Y-88037154D01*
X97610930Y-88051570D01*
X97625346Y-88067476D01*
X97638134Y-88084719D01*
X97649170Y-88103132D01*
X97658349Y-88122538D01*
X97665581Y-88142750D01*
X97670797Y-88163574D01*
X97673947Y-88184809D01*
X97675000Y-88206250D01*
X97675000Y-88643750D01*
X97673947Y-88665191D01*
X97670797Y-88686426D01*
X97665581Y-88707250D01*
X97658349Y-88727462D01*
X97649170Y-88746868D01*
X97638134Y-88765281D01*
X97625346Y-88782524D01*
X97610930Y-88798430D01*
X97595024Y-88812846D01*
X97577781Y-88825634D01*
X97559368Y-88836670D01*
X97539962Y-88845849D01*
X97519750Y-88853081D01*
X97498926Y-88858297D01*
X97477691Y-88861447D01*
X97456250Y-88862500D01*
X96943750Y-88862500D01*
X96922309Y-88861447D01*
X96901074Y-88858297D01*
X96880250Y-88853081D01*
X96860038Y-88845849D01*
X96840632Y-88836670D01*
X96822219Y-88825634D01*
X96804976Y-88812846D01*
X96789070Y-88798430D01*
X96774654Y-88782524D01*
X96761866Y-88765281D01*
X96750830Y-88746868D01*
X96741651Y-88727462D01*
X96734419Y-88707250D01*
X96729203Y-88686426D01*
X96726053Y-88665191D01*
X96725000Y-88643750D01*
X96725000Y-88206250D01*
X96726053Y-88184809D01*
X96729203Y-88163574D01*
X96734419Y-88142750D01*
X96741651Y-88122538D01*
X96750830Y-88103132D01*
X96761866Y-88084719D01*
X96774654Y-88067476D01*
X96789070Y-88051570D01*
X96804976Y-88037154D01*
X96822219Y-88024366D01*
X96840632Y-88013330D01*
X96860038Y-88004151D01*
X96880250Y-87996919D01*
X96901074Y-87991703D01*
X96922309Y-87988553D01*
X96943750Y-87987500D01*
X97456250Y-87987500D01*
X97477691Y-87988553D01*
X97477691Y-87988553D01*
G37*
D16*
X97200000Y-88425000D03*
D15*
G36*
X97477691Y-89563553D02*
G01*
X97498926Y-89566703D01*
X97519750Y-89571919D01*
X97539962Y-89579151D01*
X97559368Y-89588330D01*
X97577781Y-89599366D01*
X97595024Y-89612154D01*
X97610930Y-89626570D01*
X97625346Y-89642476D01*
X97638134Y-89659719D01*
X97649170Y-89678132D01*
X97658349Y-89697538D01*
X97665581Y-89717750D01*
X97670797Y-89738574D01*
X97673947Y-89759809D01*
X97675000Y-89781250D01*
X97675000Y-90218750D01*
X97673947Y-90240191D01*
X97670797Y-90261426D01*
X97665581Y-90282250D01*
X97658349Y-90302462D01*
X97649170Y-90321868D01*
X97638134Y-90340281D01*
X97625346Y-90357524D01*
X97610930Y-90373430D01*
X97595024Y-90387846D01*
X97577781Y-90400634D01*
X97559368Y-90411670D01*
X97539962Y-90420849D01*
X97519750Y-90428081D01*
X97498926Y-90433297D01*
X97477691Y-90436447D01*
X97456250Y-90437500D01*
X96943750Y-90437500D01*
X96922309Y-90436447D01*
X96901074Y-90433297D01*
X96880250Y-90428081D01*
X96860038Y-90420849D01*
X96840632Y-90411670D01*
X96822219Y-90400634D01*
X96804976Y-90387846D01*
X96789070Y-90373430D01*
X96774654Y-90357524D01*
X96761866Y-90340281D01*
X96750830Y-90321868D01*
X96741651Y-90302462D01*
X96734419Y-90282250D01*
X96729203Y-90261426D01*
X96726053Y-90240191D01*
X96725000Y-90218750D01*
X96725000Y-89781250D01*
X96726053Y-89759809D01*
X96729203Y-89738574D01*
X96734419Y-89717750D01*
X96741651Y-89697538D01*
X96750830Y-89678132D01*
X96761866Y-89659719D01*
X96774654Y-89642476D01*
X96789070Y-89626570D01*
X96804976Y-89612154D01*
X96822219Y-89599366D01*
X96840632Y-89588330D01*
X96860038Y-89579151D01*
X96880250Y-89571919D01*
X96901074Y-89566703D01*
X96922309Y-89563553D01*
X96943750Y-89562500D01*
X97456250Y-89562500D01*
X97477691Y-89563553D01*
X97477691Y-89563553D01*
G37*
D16*
X97200000Y-90000000D03*
D15*
G36*
X87877691Y-125376053D02*
G01*
X87898926Y-125379203D01*
X87919750Y-125384419D01*
X87939962Y-125391651D01*
X87959368Y-125400830D01*
X87977781Y-125411866D01*
X87995024Y-125424654D01*
X88010930Y-125439070D01*
X88025346Y-125454976D01*
X88038134Y-125472219D01*
X88049170Y-125490632D01*
X88058349Y-125510038D01*
X88065581Y-125530250D01*
X88070797Y-125551074D01*
X88073947Y-125572309D01*
X88075000Y-125593750D01*
X88075000Y-126031250D01*
X88073947Y-126052691D01*
X88070797Y-126073926D01*
X88065581Y-126094750D01*
X88058349Y-126114962D01*
X88049170Y-126134368D01*
X88038134Y-126152781D01*
X88025346Y-126170024D01*
X88010930Y-126185930D01*
X87995024Y-126200346D01*
X87977781Y-126213134D01*
X87959368Y-126224170D01*
X87939962Y-126233349D01*
X87919750Y-126240581D01*
X87898926Y-126245797D01*
X87877691Y-126248947D01*
X87856250Y-126250000D01*
X87343750Y-126250000D01*
X87322309Y-126248947D01*
X87301074Y-126245797D01*
X87280250Y-126240581D01*
X87260038Y-126233349D01*
X87240632Y-126224170D01*
X87222219Y-126213134D01*
X87204976Y-126200346D01*
X87189070Y-126185930D01*
X87174654Y-126170024D01*
X87161866Y-126152781D01*
X87150830Y-126134368D01*
X87141651Y-126114962D01*
X87134419Y-126094750D01*
X87129203Y-126073926D01*
X87126053Y-126052691D01*
X87125000Y-126031250D01*
X87125000Y-125593750D01*
X87126053Y-125572309D01*
X87129203Y-125551074D01*
X87134419Y-125530250D01*
X87141651Y-125510038D01*
X87150830Y-125490632D01*
X87161866Y-125472219D01*
X87174654Y-125454976D01*
X87189070Y-125439070D01*
X87204976Y-125424654D01*
X87222219Y-125411866D01*
X87240632Y-125400830D01*
X87260038Y-125391651D01*
X87280250Y-125384419D01*
X87301074Y-125379203D01*
X87322309Y-125376053D01*
X87343750Y-125375000D01*
X87856250Y-125375000D01*
X87877691Y-125376053D01*
X87877691Y-125376053D01*
G37*
D16*
X87600000Y-125812500D03*
D15*
G36*
X87877691Y-126951053D02*
G01*
X87898926Y-126954203D01*
X87919750Y-126959419D01*
X87939962Y-126966651D01*
X87959368Y-126975830D01*
X87977781Y-126986866D01*
X87995024Y-126999654D01*
X88010930Y-127014070D01*
X88025346Y-127029976D01*
X88038134Y-127047219D01*
X88049170Y-127065632D01*
X88058349Y-127085038D01*
X88065581Y-127105250D01*
X88070797Y-127126074D01*
X88073947Y-127147309D01*
X88075000Y-127168750D01*
X88075000Y-127606250D01*
X88073947Y-127627691D01*
X88070797Y-127648926D01*
X88065581Y-127669750D01*
X88058349Y-127689962D01*
X88049170Y-127709368D01*
X88038134Y-127727781D01*
X88025346Y-127745024D01*
X88010930Y-127760930D01*
X87995024Y-127775346D01*
X87977781Y-127788134D01*
X87959368Y-127799170D01*
X87939962Y-127808349D01*
X87919750Y-127815581D01*
X87898926Y-127820797D01*
X87877691Y-127823947D01*
X87856250Y-127825000D01*
X87343750Y-127825000D01*
X87322309Y-127823947D01*
X87301074Y-127820797D01*
X87280250Y-127815581D01*
X87260038Y-127808349D01*
X87240632Y-127799170D01*
X87222219Y-127788134D01*
X87204976Y-127775346D01*
X87189070Y-127760930D01*
X87174654Y-127745024D01*
X87161866Y-127727781D01*
X87150830Y-127709368D01*
X87141651Y-127689962D01*
X87134419Y-127669750D01*
X87129203Y-127648926D01*
X87126053Y-127627691D01*
X87125000Y-127606250D01*
X87125000Y-127168750D01*
X87126053Y-127147309D01*
X87129203Y-127126074D01*
X87134419Y-127105250D01*
X87141651Y-127085038D01*
X87150830Y-127065632D01*
X87161866Y-127047219D01*
X87174654Y-127029976D01*
X87189070Y-127014070D01*
X87204976Y-126999654D01*
X87222219Y-126986866D01*
X87240632Y-126975830D01*
X87260038Y-126966651D01*
X87280250Y-126959419D01*
X87301074Y-126954203D01*
X87322309Y-126951053D01*
X87343750Y-126950000D01*
X87856250Y-126950000D01*
X87877691Y-126951053D01*
X87877691Y-126951053D01*
G37*
D16*
X87600000Y-127387500D03*
D15*
G36*
X84527691Y-98776053D02*
G01*
X84548926Y-98779203D01*
X84569750Y-98784419D01*
X84589962Y-98791651D01*
X84609368Y-98800830D01*
X84627781Y-98811866D01*
X84645024Y-98824654D01*
X84660930Y-98839070D01*
X84675346Y-98854976D01*
X84688134Y-98872219D01*
X84699170Y-98890632D01*
X84708349Y-98910038D01*
X84715581Y-98930250D01*
X84720797Y-98951074D01*
X84723947Y-98972309D01*
X84725000Y-98993750D01*
X84725000Y-99431250D01*
X84723947Y-99452691D01*
X84720797Y-99473926D01*
X84715581Y-99494750D01*
X84708349Y-99514962D01*
X84699170Y-99534368D01*
X84688134Y-99552781D01*
X84675346Y-99570024D01*
X84660930Y-99585930D01*
X84645024Y-99600346D01*
X84627781Y-99613134D01*
X84609368Y-99624170D01*
X84589962Y-99633349D01*
X84569750Y-99640581D01*
X84548926Y-99645797D01*
X84527691Y-99648947D01*
X84506250Y-99650000D01*
X83993750Y-99650000D01*
X83972309Y-99648947D01*
X83951074Y-99645797D01*
X83930250Y-99640581D01*
X83910038Y-99633349D01*
X83890632Y-99624170D01*
X83872219Y-99613134D01*
X83854976Y-99600346D01*
X83839070Y-99585930D01*
X83824654Y-99570024D01*
X83811866Y-99552781D01*
X83800830Y-99534368D01*
X83791651Y-99514962D01*
X83784419Y-99494750D01*
X83779203Y-99473926D01*
X83776053Y-99452691D01*
X83775000Y-99431250D01*
X83775000Y-98993750D01*
X83776053Y-98972309D01*
X83779203Y-98951074D01*
X83784419Y-98930250D01*
X83791651Y-98910038D01*
X83800830Y-98890632D01*
X83811866Y-98872219D01*
X83824654Y-98854976D01*
X83839070Y-98839070D01*
X83854976Y-98824654D01*
X83872219Y-98811866D01*
X83890632Y-98800830D01*
X83910038Y-98791651D01*
X83930250Y-98784419D01*
X83951074Y-98779203D01*
X83972309Y-98776053D01*
X83993750Y-98775000D01*
X84506250Y-98775000D01*
X84527691Y-98776053D01*
X84527691Y-98776053D01*
G37*
D16*
X84250000Y-99212500D03*
D15*
G36*
X84527691Y-100351053D02*
G01*
X84548926Y-100354203D01*
X84569750Y-100359419D01*
X84589962Y-100366651D01*
X84609368Y-100375830D01*
X84627781Y-100386866D01*
X84645024Y-100399654D01*
X84660930Y-100414070D01*
X84675346Y-100429976D01*
X84688134Y-100447219D01*
X84699170Y-100465632D01*
X84708349Y-100485038D01*
X84715581Y-100505250D01*
X84720797Y-100526074D01*
X84723947Y-100547309D01*
X84725000Y-100568750D01*
X84725000Y-101006250D01*
X84723947Y-101027691D01*
X84720797Y-101048926D01*
X84715581Y-101069750D01*
X84708349Y-101089962D01*
X84699170Y-101109368D01*
X84688134Y-101127781D01*
X84675346Y-101145024D01*
X84660930Y-101160930D01*
X84645024Y-101175346D01*
X84627781Y-101188134D01*
X84609368Y-101199170D01*
X84589962Y-101208349D01*
X84569750Y-101215581D01*
X84548926Y-101220797D01*
X84527691Y-101223947D01*
X84506250Y-101225000D01*
X83993750Y-101225000D01*
X83972309Y-101223947D01*
X83951074Y-101220797D01*
X83930250Y-101215581D01*
X83910038Y-101208349D01*
X83890632Y-101199170D01*
X83872219Y-101188134D01*
X83854976Y-101175346D01*
X83839070Y-101160930D01*
X83824654Y-101145024D01*
X83811866Y-101127781D01*
X83800830Y-101109368D01*
X83791651Y-101089962D01*
X83784419Y-101069750D01*
X83779203Y-101048926D01*
X83776053Y-101027691D01*
X83775000Y-101006250D01*
X83775000Y-100568750D01*
X83776053Y-100547309D01*
X83779203Y-100526074D01*
X83784419Y-100505250D01*
X83791651Y-100485038D01*
X83800830Y-100465632D01*
X83811866Y-100447219D01*
X83824654Y-100429976D01*
X83839070Y-100414070D01*
X83854976Y-100399654D01*
X83872219Y-100386866D01*
X83890632Y-100375830D01*
X83910038Y-100366651D01*
X83930250Y-100359419D01*
X83951074Y-100354203D01*
X83972309Y-100351053D01*
X83993750Y-100350000D01*
X84506250Y-100350000D01*
X84527691Y-100351053D01*
X84527691Y-100351053D01*
G37*
D16*
X84250000Y-100787500D03*
D15*
G36*
X82730142Y-98576174D02*
G01*
X82753803Y-98579684D01*
X82777007Y-98585496D01*
X82799529Y-98593554D01*
X82821153Y-98603782D01*
X82841670Y-98616079D01*
X82860883Y-98630329D01*
X82878607Y-98646393D01*
X82894671Y-98664117D01*
X82908921Y-98683330D01*
X82921218Y-98703847D01*
X82931446Y-98725471D01*
X82939504Y-98747993D01*
X82945316Y-98771197D01*
X82948826Y-98794858D01*
X82950000Y-98818750D01*
X82950000Y-99306250D01*
X82948826Y-99330142D01*
X82945316Y-99353803D01*
X82939504Y-99377007D01*
X82931446Y-99399529D01*
X82921218Y-99421153D01*
X82908921Y-99441670D01*
X82894671Y-99460883D01*
X82878607Y-99478607D01*
X82860883Y-99494671D01*
X82841670Y-99508921D01*
X82821153Y-99521218D01*
X82799529Y-99531446D01*
X82777007Y-99539504D01*
X82753803Y-99545316D01*
X82730142Y-99548826D01*
X82706250Y-99550000D01*
X81793750Y-99550000D01*
X81769858Y-99548826D01*
X81746197Y-99545316D01*
X81722993Y-99539504D01*
X81700471Y-99531446D01*
X81678847Y-99521218D01*
X81658330Y-99508921D01*
X81639117Y-99494671D01*
X81621393Y-99478607D01*
X81605329Y-99460883D01*
X81591079Y-99441670D01*
X81578782Y-99421153D01*
X81568554Y-99399529D01*
X81560496Y-99377007D01*
X81554684Y-99353803D01*
X81551174Y-99330142D01*
X81550000Y-99306250D01*
X81550000Y-98818750D01*
X81551174Y-98794858D01*
X81554684Y-98771197D01*
X81560496Y-98747993D01*
X81568554Y-98725471D01*
X81578782Y-98703847D01*
X81591079Y-98683330D01*
X81605329Y-98664117D01*
X81621393Y-98646393D01*
X81639117Y-98630329D01*
X81658330Y-98616079D01*
X81678847Y-98603782D01*
X81700471Y-98593554D01*
X81722993Y-98585496D01*
X81746197Y-98579684D01*
X81769858Y-98576174D01*
X81793750Y-98575000D01*
X82706250Y-98575000D01*
X82730142Y-98576174D01*
X82730142Y-98576174D01*
G37*
D26*
X82250000Y-99062500D03*
D15*
G36*
X82730142Y-100451174D02*
G01*
X82753803Y-100454684D01*
X82777007Y-100460496D01*
X82799529Y-100468554D01*
X82821153Y-100478782D01*
X82841670Y-100491079D01*
X82860883Y-100505329D01*
X82878607Y-100521393D01*
X82894671Y-100539117D01*
X82908921Y-100558330D01*
X82921218Y-100578847D01*
X82931446Y-100600471D01*
X82939504Y-100622993D01*
X82945316Y-100646197D01*
X82948826Y-100669858D01*
X82950000Y-100693750D01*
X82950000Y-101181250D01*
X82948826Y-101205142D01*
X82945316Y-101228803D01*
X82939504Y-101252007D01*
X82931446Y-101274529D01*
X82921218Y-101296153D01*
X82908921Y-101316670D01*
X82894671Y-101335883D01*
X82878607Y-101353607D01*
X82860883Y-101369671D01*
X82841670Y-101383921D01*
X82821153Y-101396218D01*
X82799529Y-101406446D01*
X82777007Y-101414504D01*
X82753803Y-101420316D01*
X82730142Y-101423826D01*
X82706250Y-101425000D01*
X81793750Y-101425000D01*
X81769858Y-101423826D01*
X81746197Y-101420316D01*
X81722993Y-101414504D01*
X81700471Y-101406446D01*
X81678847Y-101396218D01*
X81658330Y-101383921D01*
X81639117Y-101369671D01*
X81621393Y-101353607D01*
X81605329Y-101335883D01*
X81591079Y-101316670D01*
X81578782Y-101296153D01*
X81568554Y-101274529D01*
X81560496Y-101252007D01*
X81554684Y-101228803D01*
X81551174Y-101205142D01*
X81550000Y-101181250D01*
X81550000Y-100693750D01*
X81551174Y-100669858D01*
X81554684Y-100646197D01*
X81560496Y-100622993D01*
X81568554Y-100600471D01*
X81578782Y-100578847D01*
X81591079Y-100558330D01*
X81605329Y-100539117D01*
X81621393Y-100521393D01*
X81639117Y-100505329D01*
X81658330Y-100491079D01*
X81678847Y-100478782D01*
X81700471Y-100468554D01*
X81722993Y-100460496D01*
X81746197Y-100454684D01*
X81769858Y-100451174D01*
X81793750Y-100450000D01*
X82706250Y-100450000D01*
X82730142Y-100451174D01*
X82730142Y-100451174D01*
G37*
D26*
X82250000Y-100937500D03*
D15*
G36*
X90077691Y-128551053D02*
G01*
X90098926Y-128554203D01*
X90119750Y-128559419D01*
X90139962Y-128566651D01*
X90159368Y-128575830D01*
X90177781Y-128586866D01*
X90195024Y-128599654D01*
X90210930Y-128614070D01*
X90225346Y-128629976D01*
X90238134Y-128647219D01*
X90249170Y-128665632D01*
X90258349Y-128685038D01*
X90265581Y-128705250D01*
X90270797Y-128726074D01*
X90273947Y-128747309D01*
X90275000Y-128768750D01*
X90275000Y-129206250D01*
X90273947Y-129227691D01*
X90270797Y-129248926D01*
X90265581Y-129269750D01*
X90258349Y-129289962D01*
X90249170Y-129309368D01*
X90238134Y-129327781D01*
X90225346Y-129345024D01*
X90210930Y-129360930D01*
X90195024Y-129375346D01*
X90177781Y-129388134D01*
X90159368Y-129399170D01*
X90139962Y-129408349D01*
X90119750Y-129415581D01*
X90098926Y-129420797D01*
X90077691Y-129423947D01*
X90056250Y-129425000D01*
X89543750Y-129425000D01*
X89522309Y-129423947D01*
X89501074Y-129420797D01*
X89480250Y-129415581D01*
X89460038Y-129408349D01*
X89440632Y-129399170D01*
X89422219Y-129388134D01*
X89404976Y-129375346D01*
X89389070Y-129360930D01*
X89374654Y-129345024D01*
X89361866Y-129327781D01*
X89350830Y-129309368D01*
X89341651Y-129289962D01*
X89334419Y-129269750D01*
X89329203Y-129248926D01*
X89326053Y-129227691D01*
X89325000Y-129206250D01*
X89325000Y-128768750D01*
X89326053Y-128747309D01*
X89329203Y-128726074D01*
X89334419Y-128705250D01*
X89341651Y-128685038D01*
X89350830Y-128665632D01*
X89361866Y-128647219D01*
X89374654Y-128629976D01*
X89389070Y-128614070D01*
X89404976Y-128599654D01*
X89422219Y-128586866D01*
X89440632Y-128575830D01*
X89460038Y-128566651D01*
X89480250Y-128559419D01*
X89501074Y-128554203D01*
X89522309Y-128551053D01*
X89543750Y-128550000D01*
X90056250Y-128550000D01*
X90077691Y-128551053D01*
X90077691Y-128551053D01*
G37*
D16*
X89800000Y-128987500D03*
D15*
G36*
X90077691Y-126976053D02*
G01*
X90098926Y-126979203D01*
X90119750Y-126984419D01*
X90139962Y-126991651D01*
X90159368Y-127000830D01*
X90177781Y-127011866D01*
X90195024Y-127024654D01*
X90210930Y-127039070D01*
X90225346Y-127054976D01*
X90238134Y-127072219D01*
X90249170Y-127090632D01*
X90258349Y-127110038D01*
X90265581Y-127130250D01*
X90270797Y-127151074D01*
X90273947Y-127172309D01*
X90275000Y-127193750D01*
X90275000Y-127631250D01*
X90273947Y-127652691D01*
X90270797Y-127673926D01*
X90265581Y-127694750D01*
X90258349Y-127714962D01*
X90249170Y-127734368D01*
X90238134Y-127752781D01*
X90225346Y-127770024D01*
X90210930Y-127785930D01*
X90195024Y-127800346D01*
X90177781Y-127813134D01*
X90159368Y-127824170D01*
X90139962Y-127833349D01*
X90119750Y-127840581D01*
X90098926Y-127845797D01*
X90077691Y-127848947D01*
X90056250Y-127850000D01*
X89543750Y-127850000D01*
X89522309Y-127848947D01*
X89501074Y-127845797D01*
X89480250Y-127840581D01*
X89460038Y-127833349D01*
X89440632Y-127824170D01*
X89422219Y-127813134D01*
X89404976Y-127800346D01*
X89389070Y-127785930D01*
X89374654Y-127770024D01*
X89361866Y-127752781D01*
X89350830Y-127734368D01*
X89341651Y-127714962D01*
X89334419Y-127694750D01*
X89329203Y-127673926D01*
X89326053Y-127652691D01*
X89325000Y-127631250D01*
X89325000Y-127193750D01*
X89326053Y-127172309D01*
X89329203Y-127151074D01*
X89334419Y-127130250D01*
X89341651Y-127110038D01*
X89350830Y-127090632D01*
X89361866Y-127072219D01*
X89374654Y-127054976D01*
X89389070Y-127039070D01*
X89404976Y-127024654D01*
X89422219Y-127011866D01*
X89440632Y-127000830D01*
X89460038Y-126991651D01*
X89480250Y-126984419D01*
X89501074Y-126979203D01*
X89522309Y-126976053D01*
X89543750Y-126975000D01*
X90056250Y-126975000D01*
X90077691Y-126976053D01*
X90077691Y-126976053D01*
G37*
D16*
X89800000Y-127412500D03*
D15*
G36*
X92280142Y-128788674D02*
G01*
X92303803Y-128792184D01*
X92327007Y-128797996D01*
X92349529Y-128806054D01*
X92371153Y-128816282D01*
X92391670Y-128828579D01*
X92410883Y-128842829D01*
X92428607Y-128858893D01*
X92444671Y-128876617D01*
X92458921Y-128895830D01*
X92471218Y-128916347D01*
X92481446Y-128937971D01*
X92489504Y-128960493D01*
X92495316Y-128983697D01*
X92498826Y-129007358D01*
X92500000Y-129031250D01*
X92500000Y-129518750D01*
X92498826Y-129542642D01*
X92495316Y-129566303D01*
X92489504Y-129589507D01*
X92481446Y-129612029D01*
X92471218Y-129633653D01*
X92458921Y-129654170D01*
X92444671Y-129673383D01*
X92428607Y-129691107D01*
X92410883Y-129707171D01*
X92391670Y-129721421D01*
X92371153Y-129733718D01*
X92349529Y-129743946D01*
X92327007Y-129752004D01*
X92303803Y-129757816D01*
X92280142Y-129761326D01*
X92256250Y-129762500D01*
X91343750Y-129762500D01*
X91319858Y-129761326D01*
X91296197Y-129757816D01*
X91272993Y-129752004D01*
X91250471Y-129743946D01*
X91228847Y-129733718D01*
X91208330Y-129721421D01*
X91189117Y-129707171D01*
X91171393Y-129691107D01*
X91155329Y-129673383D01*
X91141079Y-129654170D01*
X91128782Y-129633653D01*
X91118554Y-129612029D01*
X91110496Y-129589507D01*
X91104684Y-129566303D01*
X91101174Y-129542642D01*
X91100000Y-129518750D01*
X91100000Y-129031250D01*
X91101174Y-129007358D01*
X91104684Y-128983697D01*
X91110496Y-128960493D01*
X91118554Y-128937971D01*
X91128782Y-128916347D01*
X91141079Y-128895830D01*
X91155329Y-128876617D01*
X91171393Y-128858893D01*
X91189117Y-128842829D01*
X91208330Y-128828579D01*
X91228847Y-128816282D01*
X91250471Y-128806054D01*
X91272993Y-128797996D01*
X91296197Y-128792184D01*
X91319858Y-128788674D01*
X91343750Y-128787500D01*
X92256250Y-128787500D01*
X92280142Y-128788674D01*
X92280142Y-128788674D01*
G37*
D26*
X91800000Y-129275000D03*
D15*
G36*
X92280142Y-126913674D02*
G01*
X92303803Y-126917184D01*
X92327007Y-126922996D01*
X92349529Y-126931054D01*
X92371153Y-126941282D01*
X92391670Y-126953579D01*
X92410883Y-126967829D01*
X92428607Y-126983893D01*
X92444671Y-127001617D01*
X92458921Y-127020830D01*
X92471218Y-127041347D01*
X92481446Y-127062971D01*
X92489504Y-127085493D01*
X92495316Y-127108697D01*
X92498826Y-127132358D01*
X92500000Y-127156250D01*
X92500000Y-127643750D01*
X92498826Y-127667642D01*
X92495316Y-127691303D01*
X92489504Y-127714507D01*
X92481446Y-127737029D01*
X92471218Y-127758653D01*
X92458921Y-127779170D01*
X92444671Y-127798383D01*
X92428607Y-127816107D01*
X92410883Y-127832171D01*
X92391670Y-127846421D01*
X92371153Y-127858718D01*
X92349529Y-127868946D01*
X92327007Y-127877004D01*
X92303803Y-127882816D01*
X92280142Y-127886326D01*
X92256250Y-127887500D01*
X91343750Y-127887500D01*
X91319858Y-127886326D01*
X91296197Y-127882816D01*
X91272993Y-127877004D01*
X91250471Y-127868946D01*
X91228847Y-127858718D01*
X91208330Y-127846421D01*
X91189117Y-127832171D01*
X91171393Y-127816107D01*
X91155329Y-127798383D01*
X91141079Y-127779170D01*
X91128782Y-127758653D01*
X91118554Y-127737029D01*
X91110496Y-127714507D01*
X91104684Y-127691303D01*
X91101174Y-127667642D01*
X91100000Y-127643750D01*
X91100000Y-127156250D01*
X91101174Y-127132358D01*
X91104684Y-127108697D01*
X91110496Y-127085493D01*
X91118554Y-127062971D01*
X91128782Y-127041347D01*
X91141079Y-127020830D01*
X91155329Y-127001617D01*
X91171393Y-126983893D01*
X91189117Y-126967829D01*
X91208330Y-126953579D01*
X91228847Y-126941282D01*
X91250471Y-126931054D01*
X91272993Y-126922996D01*
X91296197Y-126917184D01*
X91319858Y-126913674D01*
X91343750Y-126912500D01*
X92256250Y-126912500D01*
X92280142Y-126913674D01*
X92280142Y-126913674D01*
G37*
D26*
X91800000Y-127400000D03*
D15*
G36*
X105380142Y-109438674D02*
G01*
X105403803Y-109442184D01*
X105427007Y-109447996D01*
X105449529Y-109456054D01*
X105471153Y-109466282D01*
X105491670Y-109478579D01*
X105510883Y-109492829D01*
X105528607Y-109508893D01*
X105544671Y-109526617D01*
X105558921Y-109545830D01*
X105571218Y-109566347D01*
X105581446Y-109587971D01*
X105589504Y-109610493D01*
X105595316Y-109633697D01*
X105598826Y-109657358D01*
X105600000Y-109681250D01*
X105600000Y-110168750D01*
X105598826Y-110192642D01*
X105595316Y-110216303D01*
X105589504Y-110239507D01*
X105581446Y-110262029D01*
X105571218Y-110283653D01*
X105558921Y-110304170D01*
X105544671Y-110323383D01*
X105528607Y-110341107D01*
X105510883Y-110357171D01*
X105491670Y-110371421D01*
X105471153Y-110383718D01*
X105449529Y-110393946D01*
X105427007Y-110402004D01*
X105403803Y-110407816D01*
X105380142Y-110411326D01*
X105356250Y-110412500D01*
X104443750Y-110412500D01*
X104419858Y-110411326D01*
X104396197Y-110407816D01*
X104372993Y-110402004D01*
X104350471Y-110393946D01*
X104328847Y-110383718D01*
X104308330Y-110371421D01*
X104289117Y-110357171D01*
X104271393Y-110341107D01*
X104255329Y-110323383D01*
X104241079Y-110304170D01*
X104228782Y-110283653D01*
X104218554Y-110262029D01*
X104210496Y-110239507D01*
X104204684Y-110216303D01*
X104201174Y-110192642D01*
X104200000Y-110168750D01*
X104200000Y-109681250D01*
X104201174Y-109657358D01*
X104204684Y-109633697D01*
X104210496Y-109610493D01*
X104218554Y-109587971D01*
X104228782Y-109566347D01*
X104241079Y-109545830D01*
X104255329Y-109526617D01*
X104271393Y-109508893D01*
X104289117Y-109492829D01*
X104308330Y-109478579D01*
X104328847Y-109466282D01*
X104350471Y-109456054D01*
X104372993Y-109447996D01*
X104396197Y-109442184D01*
X104419858Y-109438674D01*
X104443750Y-109437500D01*
X105356250Y-109437500D01*
X105380142Y-109438674D01*
X105380142Y-109438674D01*
G37*
D26*
X104900000Y-109925000D03*
D15*
G36*
X105380142Y-111313674D02*
G01*
X105403803Y-111317184D01*
X105427007Y-111322996D01*
X105449529Y-111331054D01*
X105471153Y-111341282D01*
X105491670Y-111353579D01*
X105510883Y-111367829D01*
X105528607Y-111383893D01*
X105544671Y-111401617D01*
X105558921Y-111420830D01*
X105571218Y-111441347D01*
X105581446Y-111462971D01*
X105589504Y-111485493D01*
X105595316Y-111508697D01*
X105598826Y-111532358D01*
X105600000Y-111556250D01*
X105600000Y-112043750D01*
X105598826Y-112067642D01*
X105595316Y-112091303D01*
X105589504Y-112114507D01*
X105581446Y-112137029D01*
X105571218Y-112158653D01*
X105558921Y-112179170D01*
X105544671Y-112198383D01*
X105528607Y-112216107D01*
X105510883Y-112232171D01*
X105491670Y-112246421D01*
X105471153Y-112258718D01*
X105449529Y-112268946D01*
X105427007Y-112277004D01*
X105403803Y-112282816D01*
X105380142Y-112286326D01*
X105356250Y-112287500D01*
X104443750Y-112287500D01*
X104419858Y-112286326D01*
X104396197Y-112282816D01*
X104372993Y-112277004D01*
X104350471Y-112268946D01*
X104328847Y-112258718D01*
X104308330Y-112246421D01*
X104289117Y-112232171D01*
X104271393Y-112216107D01*
X104255329Y-112198383D01*
X104241079Y-112179170D01*
X104228782Y-112158653D01*
X104218554Y-112137029D01*
X104210496Y-112114507D01*
X104204684Y-112091303D01*
X104201174Y-112067642D01*
X104200000Y-112043750D01*
X104200000Y-111556250D01*
X104201174Y-111532358D01*
X104204684Y-111508697D01*
X104210496Y-111485493D01*
X104218554Y-111462971D01*
X104228782Y-111441347D01*
X104241079Y-111420830D01*
X104255329Y-111401617D01*
X104271393Y-111383893D01*
X104289117Y-111367829D01*
X104308330Y-111353579D01*
X104328847Y-111341282D01*
X104350471Y-111331054D01*
X104372993Y-111322996D01*
X104396197Y-111317184D01*
X104419858Y-111313674D01*
X104443750Y-111312500D01*
X105356250Y-111312500D01*
X105380142Y-111313674D01*
X105380142Y-111313674D01*
G37*
D26*
X104900000Y-111800000D03*
D15*
G36*
X75630142Y-111301174D02*
G01*
X75653803Y-111304684D01*
X75677007Y-111310496D01*
X75699529Y-111318554D01*
X75721153Y-111328782D01*
X75741670Y-111341079D01*
X75760883Y-111355329D01*
X75778607Y-111371393D01*
X75794671Y-111389117D01*
X75808921Y-111408330D01*
X75821218Y-111428847D01*
X75831446Y-111450471D01*
X75839504Y-111472993D01*
X75845316Y-111496197D01*
X75848826Y-111519858D01*
X75850000Y-111543750D01*
X75850000Y-112031250D01*
X75848826Y-112055142D01*
X75845316Y-112078803D01*
X75839504Y-112102007D01*
X75831446Y-112124529D01*
X75821218Y-112146153D01*
X75808921Y-112166670D01*
X75794671Y-112185883D01*
X75778607Y-112203607D01*
X75760883Y-112219671D01*
X75741670Y-112233921D01*
X75721153Y-112246218D01*
X75699529Y-112256446D01*
X75677007Y-112264504D01*
X75653803Y-112270316D01*
X75630142Y-112273826D01*
X75606250Y-112275000D01*
X74693750Y-112275000D01*
X74669858Y-112273826D01*
X74646197Y-112270316D01*
X74622993Y-112264504D01*
X74600471Y-112256446D01*
X74578847Y-112246218D01*
X74558330Y-112233921D01*
X74539117Y-112219671D01*
X74521393Y-112203607D01*
X74505329Y-112185883D01*
X74491079Y-112166670D01*
X74478782Y-112146153D01*
X74468554Y-112124529D01*
X74460496Y-112102007D01*
X74454684Y-112078803D01*
X74451174Y-112055142D01*
X74450000Y-112031250D01*
X74450000Y-111543750D01*
X74451174Y-111519858D01*
X74454684Y-111496197D01*
X74460496Y-111472993D01*
X74468554Y-111450471D01*
X74478782Y-111428847D01*
X74491079Y-111408330D01*
X74505329Y-111389117D01*
X74521393Y-111371393D01*
X74539117Y-111355329D01*
X74558330Y-111341079D01*
X74578847Y-111328782D01*
X74600471Y-111318554D01*
X74622993Y-111310496D01*
X74646197Y-111304684D01*
X74669858Y-111301174D01*
X74693750Y-111300000D01*
X75606250Y-111300000D01*
X75630142Y-111301174D01*
X75630142Y-111301174D01*
G37*
D26*
X75150000Y-111787500D03*
D15*
G36*
X75630142Y-109426174D02*
G01*
X75653803Y-109429684D01*
X75677007Y-109435496D01*
X75699529Y-109443554D01*
X75721153Y-109453782D01*
X75741670Y-109466079D01*
X75760883Y-109480329D01*
X75778607Y-109496393D01*
X75794671Y-109514117D01*
X75808921Y-109533330D01*
X75821218Y-109553847D01*
X75831446Y-109575471D01*
X75839504Y-109597993D01*
X75845316Y-109621197D01*
X75848826Y-109644858D01*
X75850000Y-109668750D01*
X75850000Y-110156250D01*
X75848826Y-110180142D01*
X75845316Y-110203803D01*
X75839504Y-110227007D01*
X75831446Y-110249529D01*
X75821218Y-110271153D01*
X75808921Y-110291670D01*
X75794671Y-110310883D01*
X75778607Y-110328607D01*
X75760883Y-110344671D01*
X75741670Y-110358921D01*
X75721153Y-110371218D01*
X75699529Y-110381446D01*
X75677007Y-110389504D01*
X75653803Y-110395316D01*
X75630142Y-110398826D01*
X75606250Y-110400000D01*
X74693750Y-110400000D01*
X74669858Y-110398826D01*
X74646197Y-110395316D01*
X74622993Y-110389504D01*
X74600471Y-110381446D01*
X74578847Y-110371218D01*
X74558330Y-110358921D01*
X74539117Y-110344671D01*
X74521393Y-110328607D01*
X74505329Y-110310883D01*
X74491079Y-110291670D01*
X74478782Y-110271153D01*
X74468554Y-110249529D01*
X74460496Y-110227007D01*
X74454684Y-110203803D01*
X74451174Y-110180142D01*
X74450000Y-110156250D01*
X74450000Y-109668750D01*
X74451174Y-109644858D01*
X74454684Y-109621197D01*
X74460496Y-109597993D01*
X74468554Y-109575471D01*
X74478782Y-109553847D01*
X74491079Y-109533330D01*
X74505329Y-109514117D01*
X74521393Y-109496393D01*
X74539117Y-109480329D01*
X74558330Y-109466079D01*
X74578847Y-109453782D01*
X74600471Y-109443554D01*
X74622993Y-109435496D01*
X74646197Y-109429684D01*
X74669858Y-109426174D01*
X74693750Y-109425000D01*
X75606250Y-109425000D01*
X75630142Y-109426174D01*
X75630142Y-109426174D01*
G37*
D26*
X75150000Y-109912500D03*
D15*
G36*
X94077691Y-78576053D02*
G01*
X94098926Y-78579203D01*
X94119750Y-78584419D01*
X94139962Y-78591651D01*
X94159368Y-78600830D01*
X94177781Y-78611866D01*
X94195024Y-78624654D01*
X94210930Y-78639070D01*
X94225346Y-78654976D01*
X94238134Y-78672219D01*
X94249170Y-78690632D01*
X94258349Y-78710038D01*
X94265581Y-78730250D01*
X94270797Y-78751074D01*
X94273947Y-78772309D01*
X94275000Y-78793750D01*
X94275000Y-79231250D01*
X94273947Y-79252691D01*
X94270797Y-79273926D01*
X94265581Y-79294750D01*
X94258349Y-79314962D01*
X94249170Y-79334368D01*
X94238134Y-79352781D01*
X94225346Y-79370024D01*
X94210930Y-79385930D01*
X94195024Y-79400346D01*
X94177781Y-79413134D01*
X94159368Y-79424170D01*
X94139962Y-79433349D01*
X94119750Y-79440581D01*
X94098926Y-79445797D01*
X94077691Y-79448947D01*
X94056250Y-79450000D01*
X93543750Y-79450000D01*
X93522309Y-79448947D01*
X93501074Y-79445797D01*
X93480250Y-79440581D01*
X93460038Y-79433349D01*
X93440632Y-79424170D01*
X93422219Y-79413134D01*
X93404976Y-79400346D01*
X93389070Y-79385930D01*
X93374654Y-79370024D01*
X93361866Y-79352781D01*
X93350830Y-79334368D01*
X93341651Y-79314962D01*
X93334419Y-79294750D01*
X93329203Y-79273926D01*
X93326053Y-79252691D01*
X93325000Y-79231250D01*
X93325000Y-78793750D01*
X93326053Y-78772309D01*
X93329203Y-78751074D01*
X93334419Y-78730250D01*
X93341651Y-78710038D01*
X93350830Y-78690632D01*
X93361866Y-78672219D01*
X93374654Y-78654976D01*
X93389070Y-78639070D01*
X93404976Y-78624654D01*
X93422219Y-78611866D01*
X93440632Y-78600830D01*
X93460038Y-78591651D01*
X93480250Y-78584419D01*
X93501074Y-78579203D01*
X93522309Y-78576053D01*
X93543750Y-78575000D01*
X94056250Y-78575000D01*
X94077691Y-78576053D01*
X94077691Y-78576053D01*
G37*
D16*
X93800000Y-79012500D03*
D15*
G36*
X94077691Y-80151053D02*
G01*
X94098926Y-80154203D01*
X94119750Y-80159419D01*
X94139962Y-80166651D01*
X94159368Y-80175830D01*
X94177781Y-80186866D01*
X94195024Y-80199654D01*
X94210930Y-80214070D01*
X94225346Y-80229976D01*
X94238134Y-80247219D01*
X94249170Y-80265632D01*
X94258349Y-80285038D01*
X94265581Y-80305250D01*
X94270797Y-80326074D01*
X94273947Y-80347309D01*
X94275000Y-80368750D01*
X94275000Y-80806250D01*
X94273947Y-80827691D01*
X94270797Y-80848926D01*
X94265581Y-80869750D01*
X94258349Y-80889962D01*
X94249170Y-80909368D01*
X94238134Y-80927781D01*
X94225346Y-80945024D01*
X94210930Y-80960930D01*
X94195024Y-80975346D01*
X94177781Y-80988134D01*
X94159368Y-80999170D01*
X94139962Y-81008349D01*
X94119750Y-81015581D01*
X94098926Y-81020797D01*
X94077691Y-81023947D01*
X94056250Y-81025000D01*
X93543750Y-81025000D01*
X93522309Y-81023947D01*
X93501074Y-81020797D01*
X93480250Y-81015581D01*
X93460038Y-81008349D01*
X93440632Y-80999170D01*
X93422219Y-80988134D01*
X93404976Y-80975346D01*
X93389070Y-80960930D01*
X93374654Y-80945024D01*
X93361866Y-80927781D01*
X93350830Y-80909368D01*
X93341651Y-80889962D01*
X93334419Y-80869750D01*
X93329203Y-80848926D01*
X93326053Y-80827691D01*
X93325000Y-80806250D01*
X93325000Y-80368750D01*
X93326053Y-80347309D01*
X93329203Y-80326074D01*
X93334419Y-80305250D01*
X93341651Y-80285038D01*
X93350830Y-80265632D01*
X93361866Y-80247219D01*
X93374654Y-80229976D01*
X93389070Y-80214070D01*
X93404976Y-80199654D01*
X93422219Y-80186866D01*
X93440632Y-80175830D01*
X93460038Y-80166651D01*
X93480250Y-80159419D01*
X93501074Y-80154203D01*
X93522309Y-80151053D01*
X93543750Y-80150000D01*
X94056250Y-80150000D01*
X94077691Y-80151053D01*
X94077691Y-80151053D01*
G37*
D16*
X93800000Y-80587500D03*
D15*
G36*
X94077691Y-81976053D02*
G01*
X94098926Y-81979203D01*
X94119750Y-81984419D01*
X94139962Y-81991651D01*
X94159368Y-82000830D01*
X94177781Y-82011866D01*
X94195024Y-82024654D01*
X94210930Y-82039070D01*
X94225346Y-82054976D01*
X94238134Y-82072219D01*
X94249170Y-82090632D01*
X94258349Y-82110038D01*
X94265581Y-82130250D01*
X94270797Y-82151074D01*
X94273947Y-82172309D01*
X94275000Y-82193750D01*
X94275000Y-82631250D01*
X94273947Y-82652691D01*
X94270797Y-82673926D01*
X94265581Y-82694750D01*
X94258349Y-82714962D01*
X94249170Y-82734368D01*
X94238134Y-82752781D01*
X94225346Y-82770024D01*
X94210930Y-82785930D01*
X94195024Y-82800346D01*
X94177781Y-82813134D01*
X94159368Y-82824170D01*
X94139962Y-82833349D01*
X94119750Y-82840581D01*
X94098926Y-82845797D01*
X94077691Y-82848947D01*
X94056250Y-82850000D01*
X93543750Y-82850000D01*
X93522309Y-82848947D01*
X93501074Y-82845797D01*
X93480250Y-82840581D01*
X93460038Y-82833349D01*
X93440632Y-82824170D01*
X93422219Y-82813134D01*
X93404976Y-82800346D01*
X93389070Y-82785930D01*
X93374654Y-82770024D01*
X93361866Y-82752781D01*
X93350830Y-82734368D01*
X93341651Y-82714962D01*
X93334419Y-82694750D01*
X93329203Y-82673926D01*
X93326053Y-82652691D01*
X93325000Y-82631250D01*
X93325000Y-82193750D01*
X93326053Y-82172309D01*
X93329203Y-82151074D01*
X93334419Y-82130250D01*
X93341651Y-82110038D01*
X93350830Y-82090632D01*
X93361866Y-82072219D01*
X93374654Y-82054976D01*
X93389070Y-82039070D01*
X93404976Y-82024654D01*
X93422219Y-82011866D01*
X93440632Y-82000830D01*
X93460038Y-81991651D01*
X93480250Y-81984419D01*
X93501074Y-81979203D01*
X93522309Y-81976053D01*
X93543750Y-81975000D01*
X94056250Y-81975000D01*
X94077691Y-81976053D01*
X94077691Y-81976053D01*
G37*
D16*
X93800000Y-82412500D03*
D15*
G36*
X94077691Y-83551053D02*
G01*
X94098926Y-83554203D01*
X94119750Y-83559419D01*
X94139962Y-83566651D01*
X94159368Y-83575830D01*
X94177781Y-83586866D01*
X94195024Y-83599654D01*
X94210930Y-83614070D01*
X94225346Y-83629976D01*
X94238134Y-83647219D01*
X94249170Y-83665632D01*
X94258349Y-83685038D01*
X94265581Y-83705250D01*
X94270797Y-83726074D01*
X94273947Y-83747309D01*
X94275000Y-83768750D01*
X94275000Y-84206250D01*
X94273947Y-84227691D01*
X94270797Y-84248926D01*
X94265581Y-84269750D01*
X94258349Y-84289962D01*
X94249170Y-84309368D01*
X94238134Y-84327781D01*
X94225346Y-84345024D01*
X94210930Y-84360930D01*
X94195024Y-84375346D01*
X94177781Y-84388134D01*
X94159368Y-84399170D01*
X94139962Y-84408349D01*
X94119750Y-84415581D01*
X94098926Y-84420797D01*
X94077691Y-84423947D01*
X94056250Y-84425000D01*
X93543750Y-84425000D01*
X93522309Y-84423947D01*
X93501074Y-84420797D01*
X93480250Y-84415581D01*
X93460038Y-84408349D01*
X93440632Y-84399170D01*
X93422219Y-84388134D01*
X93404976Y-84375346D01*
X93389070Y-84360930D01*
X93374654Y-84345024D01*
X93361866Y-84327781D01*
X93350830Y-84309368D01*
X93341651Y-84289962D01*
X93334419Y-84269750D01*
X93329203Y-84248926D01*
X93326053Y-84227691D01*
X93325000Y-84206250D01*
X93325000Y-83768750D01*
X93326053Y-83747309D01*
X93329203Y-83726074D01*
X93334419Y-83705250D01*
X93341651Y-83685038D01*
X93350830Y-83665632D01*
X93361866Y-83647219D01*
X93374654Y-83629976D01*
X93389070Y-83614070D01*
X93404976Y-83599654D01*
X93422219Y-83586866D01*
X93440632Y-83575830D01*
X93460038Y-83566651D01*
X93480250Y-83559419D01*
X93501074Y-83554203D01*
X93522309Y-83551053D01*
X93543750Y-83550000D01*
X94056250Y-83550000D01*
X94077691Y-83551053D01*
X94077691Y-83551053D01*
G37*
D16*
X93800000Y-83987500D03*
M02*
