M48
; DRILL file {KiCad (5.1.2)-2} date 2/14/2022 7:06:40 PM
; FORMAT={-:-/ absolute / inch / decimal}
; #@! TF.CreationDate,2022-02-14T19:06:40-05:00
; #@! TF.GenerationSoftware,Kicad,Pcbnew,(5.1.2)-2
FMAT,2
INCH
T1C0.0118
T2C0.0197
T3C0.0433
T4C0.0472
T5C0.1575
%
G90
G05
T1
X2.748Y-4.9094
X2.7952Y-3.9134
X2.8291Y-3.1992
X2.8661Y-2.4173
X2.8858Y-1.7244
X2.8858Y-1.9685
X2.9114Y-4.813
X2.937Y-4.6181
X2.9646Y-4.6457
X2.9646Y-4.7657
X2.9701Y-3.648
X3.0Y-4.5551
X3.0236Y-4.5866
X3.0528Y-3.7012
X3.0787Y-2.4173
X3.0827Y-4.4154
X3.0945Y-3.8051
X3.0945Y-4.0217
X3.1346Y-3.6472
X3.1398Y-5.3642
X3.1614Y-4.9213
X3.1713Y-4.4134
X3.1772Y-5.0512
X3.1811Y-4.7913
X3.1929Y-3.5236
X3.2126Y-3.8563
X3.2579Y-3.8563
X3.2598Y-4.2628
X3.2638Y-4.9213
X3.2717Y-3.5236
X3.2717Y-5.1929
X3.2726Y-4.4813
X3.2756Y-3.6929
X3.2913Y-4.7913
X3.2913Y-5.0512
X3.2972Y-4.4114
X3.3071Y-5.2165
X3.315Y-4.6181
X3.3346Y-3.3858
X3.3346Y-3.4646
X3.3425Y-3.6929
X3.3465Y-5.1181
X3.3701Y-4.5787
X3.374Y-5.1535
X3.378Y-4.6811
X3.3917Y-3.9055
X3.3976Y-4.4134
X3.3976Y-4.9508
X3.4055Y-4.3465
X3.4094Y-4.563
X3.4173Y-3.1142
X3.4173Y-3.1457
X3.418Y-3.335
X3.4488Y-4.9114
X3.4685Y-3.378
X3.4843Y-3.4193
X3.4843Y-4.6378
X3.4882Y-4.3701
X3.4882Y-5.0787
X3.4933Y-3.6882
X3.5Y-2.6457
X3.5133Y-4.844
X3.5157Y-3.7638
X3.5236Y-4.5472
X3.5364Y-3.2254
X3.5433Y-3.3976
X3.5433Y-3.7362
X3.5433Y-5.8583
X3.5512Y-4.8465
X3.5591Y-3.5768
X3.561Y-3.6083
X3.5709Y-3.3701
X3.5906Y-3.622
X3.5906Y-3.7598
X3.5906Y-4.5472
X3.5935Y-3.2254
X3.5935Y-3.5266
X3.5945Y-3.0354
X3.5984Y-4.6339
X3.6024Y-4.4843
X3.625Y-3.377
X3.628Y-3.6142
X3.6339Y-3.1752
X3.6339Y-3.2382
X3.6339Y-4.6496
X3.6624Y-4.311
X3.6624Y-4.3445
X3.6673Y-5.0886
X3.6701Y-3.9087
X3.6929Y-3.3583
X3.6929Y-3.3858
X3.6988Y-4.2884
X3.7008Y-3.9016
X3.7008Y-5.1535
X3.7087Y-4.5748
X3.7441Y-4.7205
X3.7717Y-5.2244
X3.7913Y-3.3583
X3.7913Y-3.3858
X3.7953Y-4.7913
X3.7953Y-5.0512
X3.815Y-4.6496
X3.8169Y-4.1594
X3.8268Y-3.437
X3.8307Y-4.9213
X3.8415Y-4.3996
X3.8504Y-3.7362
X3.8622Y-2.9646
X3.8622Y-3.0
X3.8622Y-4.1161
X3.878Y-3.4803
X3.878Y-3.7638
X3.9016Y-3.689
X3.9055Y-4.7913
X3.9055Y-5.0512
X3.9252Y-4.9213
X3.9291Y-3.7165
X3.9439Y-5.3681
X3.9449Y-2.9646
X3.9449Y-3.0
X3.9594Y-3.6484
X4.0Y-2.4173
X4.0079Y-4.4154
X4.0409Y-3.6933
X4.0453Y-4.4606
X4.063Y-4.5709
X4.0945Y-4.5512
X4.1217Y-3.6488
X4.1338Y-4.6418
X4.1654Y-4.622
X4.2008Y-1.7244
X4.2008Y-1.9685
X4.2205Y-2.4173
X4.25Y-4.811
X4.2577Y-3.2029
X4.2921Y-3.9284
X4.3051Y-4.7657
X4.3386Y-4.9094
T2
X3.3071Y-1.9685
X3.7795Y-1.9685
X3.0866Y-4.1181
X3.3169Y-4.0453
X3.9094Y-4.2677
X4.0Y-4.1181
X3.1496Y-3.9173
X3.3268Y-3.7598
X3.1752Y-4.2657
X3.6929Y-4.9685
X3.6535Y-4.8976
X2.8701Y-4.3346
X3.7559Y-4.1929
X4.2165Y-4.3346
T3
X3.0933Y-2.7
X3.0933Y-2.8
X3.0933Y-2.9
X3.9933Y-3.1
X3.9933Y-3.2
X3.9933Y-3.3
X3.9933Y-2.7
X3.9933Y-2.8
X3.9933Y-2.9
X3.0933Y-3.1
X3.0933Y-3.2
X3.0933Y-3.3
T4
X3.4173Y-3.4882
X3.4173Y-3.6654
X3.6732Y-3.4882
X3.6732Y-3.6654
T5
G00X3.372Y-1.8504
M15
G01X3.7146Y-1.8504
M16
G05
T0
M30
